  0
SECTION
  2
HEADER
  9
$ACADVER
  1
AC1024
  9
$ACADMAINTVER
 70
6
  9
$DWGCODEPAGE
  3
ANSI_1252
  9
$LASTSAVEDBY
  1
ezdxf
  9
$INSBASE
 10
0.0
 20
0.0
 30
0.0
  9
$EXTMIN
 10
1e+20
 20
1e+20
 30
1e+20
  9
$EXTMAX
 10
-1e+20
 20
-1e+20
 30
-1e+20
  9
$LIMMIN
 10
0.0
 20
0.0
  9
$LIMMAX
 10
420.0
 20
297.0
  9
$ORTHOMODE
 70
0
  9
$REGENMODE
 70
1
  9
$FILLMODE
 70
1
  9
$QTEXTMODE
 70
0
  9
$MIRRTEXT
 70
1
  9
$LTSCALE
 40
1.0
  9
$ATTMODE
 70
1
  9
$TEXTSIZE
 40
2.5
  9
$TRACEWID
 40
1.0
  9
$TEXTSTYLE
  7
Standard
  9
$CLAYER
  8
0
  9
$CELTYPE
  6
ByLayer
  9
$CECOLOR
 62
256
  9
$CELTSCALE
 40
1.0
  9
$DISPSILH
 70
0
  9
$DIMSCALE
 40
1.0
  9
$DIMASZ
 40
2.5
  9
$DIMEXO
 40
0.625
  9
$DIMDLI
 40
3.75
  9
$DIMRND
 40
0.0
  9
$DIMDLE
 40
0.0
  9
$DIMEXE
 40
1.25
  9
$DIMTP
 40
0.0
  9
$DIMTM
 40
0.0
  9
$DIMTXT
 40
2.5
  9
$DIMCEN
 40
2.5
  9
$DIMTSZ
 40
0.0
  9
$DIMTOL
 70
0
  9
$DIMLIM
 70
0
  9
$DIMTIH
 70
0
  9
$DIMTOH
 70
0
  9
$DIMSE1
 70
0
  9
$DIMSE2
 70
0
  9
$DIMTAD
 70
1
  9
$DIMZIN
 70
8
  9
$DIMBLK
  1

  9
$DIMASO
 70
1
  9
$DIMSHO
 70
1
  9
$DIMPOST
  1

  9
$DIMAPOST
  1

  9
$DIMALT
 70
0
  9
$DIMALTD
 70
3
  9
$DIMALTF
 40
0.03937007874
  9
$DIMLFAC
 40
1.0
  9
$DIMTOFL
 70
1
  9
$DIMTVP
 40
0.0
  9
$DIMTIX
 70
0
  9
$DIMSOXD
 70
0
  9
$DIMSAH
 70
0
  9
$DIMBLK1
  1

  9
$DIMBLK2
  1

  9
$DIMSTYLE
  2
ISO-25
  9
$DIMCLRD
 70
0
  9
$DIMCLRE
 70
0
  9
$DIMCLRT
 70
0
  9
$DIMTFAC
 40
1.0
  9
$DIMGAP
 40
0.625
  9
$DIMJUST
 70
0
  9
$DIMSD1
 70
0
  9
$DIMSD2
 70
0
  9
$DIMTOLJ
 70
0
  9
$DIMTZIN
 70
8
  9
$DIMALTZ
 70
0
  9
$DIMALTTZ
 70
0
  9
$DIMUPT
 70
0
  9
$DIMDEC
 70
2
  9
$DIMTDEC
 70
2
  9
$DIMALTU
 70
2
  9
$DIMALTTD
 70
3
  9
$DIMTXSTY
  7
Standard
  9
$DIMAUNIT
 70
0
  9
$DIMADEC
 70
0
  9
$DIMALTRND
 40
0.0
  9
$DIMAZIN
 70
0
  9
$DIMDSEP
 70
44
  9
$DIMATFIT
 70
3
  9
$DIMFRAC
 70
0
  9
$DIMLDRBLK
  1

  9
$DIMLUNIT
 70
2
  9
$DIMLWD
 70
-2
  9
$DIMLWE
 70
-2
  9
$DIMTMOVE
 70
0
  9
$DIMFXL
 40
1.0
  9
$DIMFXLON
 70
0
  9
$DIMJOGANG
 40
0.785398163397
  9
$DIMTFILL
 70
0
  9
$DIMTFILLCLR
 70
0
  9
$DIMARCSYM
 70
0
  9
$DIMLTYPE
  6

  9
$DIMLTEX1
  6

  9
$DIMLTEX2
  6

  9
$DIMTXTDIRECTION
 70
0
  9
$LUNITS
 70
2
  9
$LUPREC
 70
4
  9
$SKETCHINC
 40
1.0
  9
$FILLETRAD
 40
10.0
  9
$AUNITS
 70
0
  9
$AUPREC
 70
2
  9
$MENU
  1
.
  9
$ELEVATION
 40
0.0
  9
$PELEVATION
 40
0.0
  9
$THICKNESS
 40
0.0
  9
$LIMCHECK
 70
0
  9
$CHAMFERA
 40
0.0
  9
$CHAMFERB
 40
0.0
  9
$CHAMFERC
 40
0.0
  9
$CHAMFERD
 40
0.0
  9
$SKPOLY
 70
0
  9
$TDCREATE
 40
2451545.0
  9
$TDUCREATE
 40
2451545.0
  9
$TDUPDATE
 40
2451545.0
  9
$TDUUPDATE
 40
2451545.0
  9
$TDINDWG
 40
0.0
  9
$TDUSRTIMER
 40
0.0
  9
$USRTIMER
 70
1
  9
$ANGBASE
 50
0.0
  9
$ANGDIR
 70
0
  9
$PDMODE
 70
0
  9
$PDSIZE
 40
0.0
  9
$PLINEWID
 40
0.0
  9
$SPLFRAME
 70
0
  9
$SPLINETYPE
 70
6
  9
$SPLINESEGS
 70
8
  9
$HANDSEED
  5
74
  9
$SURFTAB1
 70
6
  9
$SURFTAB2
 70
6
  9
$SURFTYPE
 70
6
  9
$SURFU
 70
6
  9
$SURFV
 70
6
  9
$UCSBASE
  2

  9
$UCSNAME
  2

  9
$UCSORG
 10
0.0
 20
0.0
 30
0.0
  9
$UCSXDIR
 10
1.0
 20
0.0
 30
0.0
  9
$UCSYDIR
 10
0.0
 20
1.0
 30
0.0
  9
$UCSORTHOREF
  2

  9
$UCSORTHOVIEW
 70
0
  9
$UCSORGTOP
 10
0.0
 20
0.0
 30
0.0
  9
$UCSORGBOTTOM
 10
0.0
 20
0.0
 30
0.0
  9
$UCSORGLEFT
 10
0.0
 20
0.0
 30
0.0
  9
$UCSORGRIGHT
 10
0.0
 20
0.0
 30
0.0
  9
$UCSORGFRONT
 10
0.0
 20
0.0
 30
0.0
  9
$UCSORGBACK
 10
0.0
 20
0.0
 30
0.0
  9
$PUCSBASE
  2

  9
$PUCSNAME
  2

  9
$PUCSORG
 10
0.0
 20
0.0
 30
0.0
  9
$PUCSXDIR
 10
1.0
 20
0.0
 30
0.0
  9
$PUCSYDIR
 10
0.0
 20
1.0
 30
0.0
  9
$PUCSORTHOREF
  2

  9
$PUCSORTHOVIEW
 70
0
  9
$PUCSORGTOP
 10
0.0
 20
0.0
 30
0.0
  9
$PUCSORGBOTTOM
 10
0.0
 20
0.0
 30
0.0
  9
$PUCSORGLEFT
 10
0.0
 20
0.0
 30
0.0
  9
$PUCSORGRIGHT
 10
0.0
 20
0.0
 30
0.0
  9
$PUCSORGFRONT
 10
0.0
 20
0.0
 30
0.0
  9
$PUCSORGBACK
 10
0.0
 20
0.0
 30
0.0
  9
$USERI1
 70
0
  9
$USERI2
 70
0
  9
$USERI3
 70
0
  9
$USERI4
 70
0
  9
$USERI5
 70
0
  9
$USERR1
 40
0.0
  9
$USERR2
 40
0.0
  9
$USERR3
 40
0.0
  9
$USERR4
 40
0.0
  9
$USERR5
 40
0.0
  9
$WORLDVIEW
 70
1
  9
$SHADEDGE
 70
3
  9
$SHADEDIF
 70
70
  9
$TILEMODE
 70
1
  9
$MAXACTVP
 70
64
  9
$PINSBASE
 10
0.0
 20
0.0
 30
0.0
  9
$PLIMCHECK
 70
0
  9
$PEXTMIN
 10
1e+20
 20
1e+20
 30
1e+20
  9
$PEXTMAX
 10
-1e+20
 20
-1e+20
 30
-1e+20
  9
$PLIMMIN
 10
0.0
 20
0.0
  9
$PLIMMAX
 10
420.0
 20
297.0
  9
$UNITMODE
 70
0
  9
$VISRETAIN
 70
1
  9
$PLINEGEN
 70
0
  9
$PSLTSCALE
 70
1
  9
$TREEDEPTH
 70
3020
  9
$CMLSTYLE
  2
Standard
  9
$CMLJUST
 70
0
  9
$CMLSCALE
 40
20.0
  9
$PROXYGRAPHICS
 70
1
  9
$MEASUREMENT
 70
1
  9
$CELWEIGHT
370
-1
  9
$ENDCAPS
280
0
  9
$JOINSTYLE
280
0
  9
$LWDISPLAY
290
0
  9
$INSUNITS
 70
2
  9
$HYPERLINKBASE
  1

  9
$STYLESHEET
  1

  9
$XEDIT
290
1
  9
$CEPSNTYPE
380
0
  9
$PSTYLEMODE
290
1
  9
$FINGERPRINTGUID
  2
{00000000-0000-0000-0000-000000000000}
  9
$VERSIONGUID
  2
{00000000-0000-0000-0000-000000000000}
  9
$EXTNAMES
290
1
  9
$PSVPSCALE
 40
0.0
  9
$OLESTARTUP
290
0
  9
$SORTENTS
280
127
  9
$INDEXCTL
280
0
  9
$HIDETEXT
280
1
  9
$XCLIPFRAME
280
1
  9
$HALOGAP
280
0
  9
$OBSCOLOR
 70
257
  9
$OBSLTYPE
280
0
  9
$INTERSECTIONDISPLAY
280
0
  9
$INTERSECTIONCOLOR
 70
257
  9
$DIMASSOC
280
2
  9
$PROJECTNAME
  1

  9
$CAMERADISPLAY
290
0
  9
$LENSLENGTH
 40
50.0
  9
$CAMERAHEIGHT
 40
0.0
  9
$STEPSPERSEC
 40
24.0
  9
$STEPSIZE
 40
100.0
  9
$3DDWFPREC
 40
2.0
  9
$PSOLWIDTH
 40
0.005
  9
$PSOLHEIGHT
 40
0.08
  9
$LOFTANG1
 40
1.570796326795
  9
$LOFTANG2
 40
1.570796326795
  9
$LOFTMAG1
 40
0.0
  9
$LOFTMAG2
 40
0.0
  9
$LOFTPARAM
 70
7
  9
$LOFTNORMALS
280
1
  9
$LATITUDE
 40
37.795
  9
$LONGITUDE
 40
-122.394
  9
$NORTHDIRECTION
 40
0.0
  9
$TIMEZONE
 70
-8000
  9
$LIGHTGLYPHDISPLAY
280
1
  9
$TILEMODELIGHTSYNCH
280
1
  9
$CMATERIAL
347
20
  9
$SOLIDHIST
280
0
  9
$SHOWHIST
280
1
  9
$DWFFRAME
280
2
  9
$DGNFRAME
280
2
  9
$REALWORLDSCALE
290
1
  9
$INTERFERECOLOR
 62
256
  9
$CSHADOW
280
0
  9
$SHADOWPLANELOCATION
 40
0.0
  0
ENDSEC
  0
SECTION
  2
CLASSES
  0
CLASS
  1
ACDBDICTIONARYWDFLT
  2
AcDbDictionaryWithDefault
  3
ObjectDBX Classes
 90
0
 91
0
280
0
281
0
  0
CLASS
  1
SUN
  2
AcDbSun
  3
SCENEOE
 90
1153
 91
0
280
0
281
0
  0
CLASS
  1
VISUALSTYLE
  2
AcDbVisualStyle
  3
ObjectDBX Classes
 90
4095
 91
0
280
0
281
0
  0
CLASS
  1
MATERIAL
  2
AcDbMaterial
  3
ObjectDBX Classes
 90
1153
 91
0
280
0
281
0
  0
CLASS
  1
SCALE
  2
AcDbScale
  3
ObjectDBX Classes
 90
1153
 91
0
280
0
281
0
  0
CLASS
  1
TABLESTYLE
  2
AcDbTableStyle
  3
ObjectDBX Classes
 90
4095
 91
0
280
0
281
0
  0
CLASS
  1
MLEADERSTYLE
  2
AcDbMLeaderStyle
  3
ACDB_MLEADERSTYLE_CLASS
 90
4095
 91
0
280
0
281
0
  0
CLASS
  1
DICTIONARYVAR
  2
AcDbDictionaryVar
  3
ObjectDBX Classes
 90
0
 91
0
280
0
281
0
  0
CLASS
  1
CELLSTYLEMAP
  2
AcDbCellStyleMap
  3
ObjectDBX Classes
 90
1152
 91
0
280
0
281
0
  0
CLASS
  1
MENTALRAYRENDERSETTINGS
  2
AcDbMentalRayRenderSettings
  3
SCENEOE
 90
1024
 91
0
280
0
281
0
  0
CLASS
  1
ACDBDETAILVIEWSTYLE
  2
AcDbDetailViewStyle
  3
ObjectDBX Classes
 90
1025
 91
0
280
0
281
0
  0
CLASS
  1
ACDBSECTIONVIEWSTYLE
  2
AcDbSectionViewStyle
  3
ObjectDBX Classes
 90
1025
 91
0
280
0
281
0
  0
CLASS
  1
RASTERVARIABLES
  2
AcDbRasterVariables
  3
ISM
 90
0
 91
0
280
0
281
0
  0
CLASS
  1
LAYOUT
  2
AcDbLayout
  3
ObjectDBX Classes
 90
0
 91
0
280
0
281
0
  0
CLASS
  1
ACDBPLACEHOLDER
  2
AcDbPlaceHolder
  3
ObjectDBX Classes
 90
0
 91
0
280
0
281
0
  0
ENDSEC
  0
SECTION
  2
TABLES
  0
TABLE
  2
VPORT
  5
8
330
0
100
AcDbSymbolTable
 70
1
  0
VPORT
  5
23
330
8
100
AcDbSymbolTableRecord
100
AcDbViewportTableRecord
  2
*Active
 70
0
 10
0.0
 20
0.0
 11
1.0
 21
1.0
 12
0.0
 22
0.0
 13
0.0
 23
0.0
 14
0.5
 24
0.5
 15
0.5
 25
0.5
 16
0.0
 26
0.0
 36
1.0
 17
0.0
 27
0.0
 37
0.0
 40
1000.0
 41
1.34
 42
50.0
 43
0.0
 44
0.0
 50
0.0
 51
0.0
 71
0
 72
1000
 73
1
 74
3
 75
0
 76
0
 77
0
 78
0
281
0
 65
0
146
0.0
  0
ENDTAB
  0
TABLE
  2
LTYPE
  5
2
330
0
100
AcDbSymbolTable
 70
3
  0
LTYPE
  5
24
330
2
100
AcDbSymbolTableRecord
100
AcDbLinetypeTableRecord
  2
ByBlock
 70
0
  3

 72
65
 73
0
 40
0.0
  0
LTYPE
  5
25
330
2
100
AcDbSymbolTableRecord
100
AcDbLinetypeTableRecord
  2
ByLayer
 70
0
  3

 72
65
 73
0
 40
0.0
  0
LTYPE
  5
26
330
2
100
AcDbSymbolTableRecord
100
AcDbLinetypeTableRecord
  2
Continuous
 70
0
  3

 72
65
 73
0
 40
0.0
  0
ENDTAB
  0
TABLE
  2
LAYER
  5
1
330
0
100
AcDbSymbolTable
 70
6
  0
LAYER
  5
27
330
1
100
AcDbSymbolTableRecord
100
AcDbLayerTableRecord
  2
0
 70
0
 62
7
  6
Continuous
370
-3
390
13
347
21
  0
LAYER
  5
28
330
1
100
AcDbSymbolTableRecord
100
AcDbLayerTableRecord
  2
Defpoints
 70
0
 62
7
  6
Continuous
290
0
370
-3
390
13
347
21
  0
LAYER
  5
2F
330
1
100
AcDbSymbolTableRecord
100
AcDbLayerTableRecord
  2
PARCEL
 70
0
 62
5
  6
Continuous
370
-3
390
13
347
21
  0
LAYER
  5
30
330
1
100
AcDbSymbolTableRecord
100
AcDbLayerTableRecord
  2
LOTS
 70
0
 62
3
  6
Continuous
370
-3
390
13
347
21
  0
LAYER
  5
31
330
1
100
AcDbSymbolTableRecord
100
AcDbLayerTableRecord
  2
ROADS
 70
0
 62
1
  6
Continuous
370
-3
390
13
347
21
  0
LAYER
  5
32
330
1
100
AcDbSymbolTableRecord
100
AcDbLayerTableRecord
  2
CENTERLINE
 70
0
 62
2
  6
Continuous
370
-3
390
13
347
21
  0
ENDTAB
  0
TABLE
  2
STYLE
  5
5
330
0
100
AcDbSymbolTable
 70
1
  0
STYLE
  5
29
330
5
100
AcDbSymbolTableRecord
100
AcDbTextStyleTableRecord
  2
Standard
 70
0
 40
0.0
 41
1.0
 50
0.0
 71
0
 42
2.5
  3
txt
  4

  0
ENDTAB
  0
TABLE
  2
VIEW
  5
7
330
0
100
AcDbSymbolTable
 70
0
  0
ENDTAB
  0
TABLE
  2
UCS
  5
6
330
0
100
AcDbSymbolTable
 70
0
  0
ENDTAB
  0
TABLE
  2
APPID
  5
3
330
0
100
AcDbSymbolTable
 70
3
  0
APPID
  5
2A
330
3
100
AcDbSymbolTableRecord
100
AcDbRegAppTableRecord
  2
ACAD
 70
0
  0
APPID
  5
71
330
3
100
AcDbSymbolTableRecord
100
AcDbRegAppTableRecord
  2
HATCHBACKGROUNDCOLOR
 70
0
  0
APPID
  5
72
330
3
100
AcDbSymbolTableRecord
100
AcDbRegAppTableRecord
  2
EZDXF
 70
0
  0
ENDTAB
  0
TABLE
  2
DIMSTYLE
  5
4
330
0
100
AcDbSymbolTable
 70
1
100
AcDbDimStyleTable
  0
DIMSTYLE
105
2B
330
4
100
AcDbSymbolTableRecord
100
AcDbDimStyleTableRecord
  2
Standard
 70
0
 40
1.0
 41
2.5
 42
0.625
 43
3.75
 44
1.25
 45
0.0
 46
0.0
 47
0.0
 48
0.0
 49
2.5
140
2.5
141
2.5
142
0.0
143
0.03937007874
144
1.0
145
0.0
146
1.0
147
0.625
148
0.0
 69
0
 70
0
 71
0
 72
0
 73
0
 74
0
 75
0
 76
0
 77
1
 78
8
 79
3
170
0
171
3
172
1
173
0
174
0
175
0
176
0
177
0
178
0
179
2
271
2
272
2
273
2
274
3
275
0
276
0
277
2
278
44
279
0
280
0
281
0
282
0
283
0
284
8
285
0
286
0
288
0
289
3
290
0
371
-2
372
-2
  0
ENDTAB
  0
TABLE
  2
BLOCK_RECORD
  5
9
330
0
100
AcDbSymbolTable
 70
2
  0
BLOCK_RECORD
  5
17
330
9
100
AcDbSymbolTableRecord
100
AcDbBlockTableRecord
  2
*Model_Space
340
1A
 70
0
280
1
281
0
  0
BLOCK_RECORD
  5
1B
330
9
100
AcDbSymbolTableRecord
100
AcDbBlockTableRecord
  2
*Paper_Space
340
1E
 70
0
280
1
281
0
  0
ENDTAB
  0
ENDSEC
  0
SECTION
  2
BLOCKS
  0
BLOCK
  5
18
330
17
100
AcDbEntity
  8
0
100
AcDbBlockBegin
  2
*Model_Space
 70
0
 10
0.0
 20
0.0
 30
0.0
  3
*Model_Space
  1

  0
ENDBLK
  5
19
330
17
100
AcDbEntity
  8
0
100
AcDbBlockEnd
  0
BLOCK
  5
1C
330
1B
100
AcDbEntity
  8
0
100
AcDbBlockBegin
  2
*Paper_Space
 70
0
 10
0.0
 20
0.0
 30
0.0
  3
*Paper_Space
  1

  0
ENDBLK
  5
1D
330
1B
100
AcDbEntity
  8
0
100
AcDbBlockEnd
  0
ENDSEC
  0
SECTION
  2
ENTITIES
  0
LWPOLYLINE
  5
33
330
17
100
AcDbEntity
  8
PARCEL
100
AcDbPolyline
 90
44
 70
1
 10
429.86420608583404
 20
2.8122829611878872
 10
414.9553100141908
 20
0.8115002798416165
 10
399.9278182268152
 20
0.13623006603415674
 10
187.47922754503352
 20
0.0
 10
187.47326661914258
 20
9.000494722062694
 10
0.0
 20
8.87974491938051
 10
0.6693447580832864
 20
1164.7990455580384
 10
478.41154032640225
 20
1165.105797707586
 10
539.8867199903952
 20
1164.1676449173858
 10
601.3012675591924
 20
1161.27604893138
 10
662.5927864846179
 20
1156.4334943421602
 10
663.1797599907793
 20
1152.569330083652
 10
663.2230110438056
 20
1148.6613896233698
 10
662.7215390960198
 20
1144.7855189686713
 10
661.1044765198563
 20
1136.7425664836412
 10
660.9222470598738
 20
1136.0935192186168
 10
660.6459013473872
 20
1135.4792850721315
 10
660.280182389922
 20
1134.9135413072843
 10
659.8345764605273
 20
1134.4082245381521
 10
659.3183202725667
 20
1133.9752713829998
 10
656.5138552264727
 20
1131.960453774209
 10
655.8902537153888
 20
1131.4382242530114
 10
655.3500341508861
 20
1130.829954141679
 10
654.9056791523429
 20
1130.148077395422
 10
654.5666746479261
 20
1129.4087581180902
 10
654.3407594330678
 20
1128.6274143507928
 10
647.881658024866
 20
1100.7318098036608
 10
640.3213567374297
 20
1073.1149253964343
 10
634.1543682409103
 20
1074.8856594294364
 10
629.6969332833437
 20
1060.3566575834484
 10
608.7594814642995
 20
971.748190567498
 10
572.8205153443879
 20
872.8091244237022
 10
557.6682592812022
 20
827.8826143776778
 10
544.6102455196208
 20
782.3032713943303
 10
533.6749435291383
 20
736.1685713804586
 10
524.8850815878891
 20
689.5777321581243
 10
518.2596434895515
 20
642.6297240044524
 10
513.8128703905779
 20
595.426005352743
 10
478.7333760267876
 20
100.74257879230923
 10
478.1932861395131
 20
81.60763739229459
 10
479.2819419246244
 20
62.49582285017939
 10
481.99135679493475
 20
43.5456540418465
 10
486.3023096084713
 20
24.8946557584207
 10
429.86420608583404
 20
2.8122829611878872
  0
LWPOLYLINE
  5
34
330
17
100
AcDbEntity
  8
LOTS
100
AcDbPolyline
 90
5
 70
1
 10
29.26
 20
251.79
 10
0.15
 20
268.6
 10
0.18
 20
311.89
 10
48.01
 20
284.27
 10
29.26
 20
251.79
  0
LWPOLYLINE
  5
35
330
17
100
AcDbEntity
  8
LOTS
100
AcDbPolyline
 90
5
 70
1
 10
48.01
 20
284.27
 10
0.18
 20
311.89
 10
0.2
 20
355.17
 10
66.76
 20
316.75
 10
48.01
 20
284.27
  0
LWPOLYLINE
  5
36
330
17
100
AcDbEntity
  8
LOTS
100
AcDbPolyline
 90
5
 70
1
 10
66.76
 20
316.75
 10
0.2
 20
355.17
 10
0.23
 20
398.46
 10
85.51
 20
349.22
 10
66.76
 20
316.75
  0
LWPOLYLINE
  5
37
330
17
100
AcDbEntity
  8
LOTS
100
AcDbPolyline
 90
5
 70
1
 10
85.51
 20
349.22
 10
0.23
 20
398.46
 10
0.25
 20
441.75
 10
104.26
 20
381.7
 10
85.51
 20
349.22
  0
LWPOLYLINE
  5
38
330
17
100
AcDbEntity
  8
LOTS
100
AcDbPolyline
 90
5
 70
1
 10
104.26
 20
381.7
 10
0.25
 20
441.75
 10
0.28
 20
485.03
 10
123.01
 20
414.17
 10
104.26
 20
381.7
  0
LWPOLYLINE
  5
39
330
17
100
AcDbEntity
  8
LOTS
100
AcDbPolyline
 90
5
 70
1
 10
123.01
 20
414.17
 10
0.28
 20
485.03
 10
0.3
 20
528.32
 10
141.76
 20
446.65
 10
123.01
 20
414.17
  0
LWPOLYLINE
  5
3A
330
17
100
AcDbEntity
  8
LOTS
100
AcDbPolyline
 90
5
 70
1
 10
141.76
 20
446.65
 10
0.3
 20
528.32
 10
0.33
 20
571.61
 10
160.51
 20
479.13
 10
141.76
 20
446.65
  0
LWPOLYLINE
  5
3B
330
17
100
AcDbEntity
  8
LOTS
100
AcDbPolyline
 90
5
 70
1
 10
160.51
 20
479.13
 10
0.33
 20
571.61
 10
0.35
 20
614.89
 10
179.26
 20
511.6
 10
160.51
 20
479.13
  0
LWPOLYLINE
  5
3C
330
17
100
AcDbEntity
  8
LOTS
100
AcDbPolyline
 90
5
 70
1
 10
179.26
 20
511.6
 10
0.35
 20
614.89
 10
0.38
 20
658.18
 10
198.01
 20
544.08
 10
179.26
 20
511.6
  0
LWPOLYLINE
  5
3D
330
17
100
AcDbEntity
  8
LOTS
100
AcDbPolyline
 90
5
 70
1
 10
198.01
 20
544.08
 10
0.38
 20
658.18
 10
0.4
 20
701.47
 10
216.76
 20
576.55
 10
198.01
 20
544.08
  0
LWPOLYLINE
  5
3E
330
17
100
AcDbEntity
  8
LOTS
100
AcDbPolyline
 90
5
 70
1
 10
216.76
 20
576.55
 10
0.4
 20
701.47
 10
0.43
 20
744.76
 10
235.51
 20
609.03
 10
216.76
 20
576.55
  0
LWPOLYLINE
  5
3F
330
17
100
AcDbEntity
  8
LOTS
100
AcDbPolyline
 90
5
 70
1
 10
235.51
 20
609.03
 10
0.43
 20
744.76
 10
0.45
 20
788.04
 10
254.26
 20
641.51
 10
235.51
 20
609.03
  0
LWPOLYLINE
  5
40
330
17
100
AcDbEntity
  8
LOTS
100
AcDbPolyline
 90
5
 70
1
 10
254.26
 20
641.51
 10
0.45
 20
788.04
 10
0.48
 20
831.33
 10
273.01
 20
673.98
 10
254.26
 20
641.51
  0
LWPOLYLINE
  5
41
330
17
100
AcDbEntity
  8
LOTS
100
AcDbPolyline
 90
5
 70
1
 10
273.01
 20
673.98
 10
0.48
 20
831.33
 10
0.5
 20
874.62
 10
291.76
 20
706.46
 10
273.01
 20
673.98
  0
LWPOLYLINE
  5
42
330
17
100
AcDbEntity
  8
LOTS
100
AcDbPolyline
 90
5
 70
1
 10
291.76
 20
706.46
 10
0.5
 20
874.62
 10
0.53
 20
917.9
 10
310.51
 20
738.93
 10
291.76
 20
706.46
  0
LWPOLYLINE
  5
43
330
17
100
AcDbEntity
  8
LOTS
100
AcDbPolyline
 90
5
 70
1
 10
310.51
 20
738.93
 10
0.53
 20
917.9
 10
0.55
 20
961.19
 10
329.26
 20
771.41
 10
310.51
 20
738.93
  0
LWPOLYLINE
  5
44
330
17
100
AcDbEntity
  8
LOTS
100
AcDbPolyline
 90
5
 70
1
 10
329.26
 20
771.41
 10
0.55
 20
961.19
 10
0.58
 20
1004.48
 10
348.01
 20
803.89
 10
329.26
 20
771.41
  0
LWPOLYLINE
  5
45
330
17
100
AcDbEntity
  8
LOTS
100
AcDbPolyline
 90
5
 70
1
 10
348.01
 20
803.89
 10
0.58
 20
1004.48
 10
0.6
 20
1047.76
 10
366.76
 20
836.36
 10
348.01
 20
803.89
  0
LWPOLYLINE
  5
46
330
17
100
AcDbEntity
  8
LOTS
100
AcDbPolyline
 90
5
 70
1
 10
366.76
 20
836.36
 10
0.6
 20
1047.76
 10
0.63
 20
1091.05
 10
385.51
 20
868.84
 10
366.76
 20
836.36
  0
LWPOLYLINE
  5
47
330
17
100
AcDbEntity
  8
LOTS
100
AcDbPolyline
 90
5
 70
1
 10
385.51
 20
868.84
 10
0.63
 20
1091.05
 10
0.65
 20
1134.34
 10
404.26
 20
901.31
 10
385.51
 20
868.84
  0
LWPOLYLINE
  5
48
330
17
100
AcDbEntity
  8
LOTS
100
AcDbPolyline
 90
6
 70
1
 10
22.86
 20
1164.81
 10
423.01
 20
933.79
 10
404.26
 20
901.31
 10
0.65
 20
1134.34
 10
0.67
 20
1164.8
 10
22.86
 20
1164.81
  0
LWPOLYLINE
  5
49
330
17
100
AcDbEntity
  8
LOTS
100
AcDbPolyline
 90
5
 70
1
 10
97.78
 20
1164.86
 10
441.76
 20
966.27
 10
423.01
 20
933.79
 10
22.86
 20
1164.81
 10
97.78
 20
1164.86
  0
LWPOLYLINE
  5
4A
330
17
100
AcDbEntity
  8
LOTS
100
AcDbPolyline
 90
5
 70
1
 10
172.7
 20
1164.91
 10
460.51
 20
998.74
 10
441.76
 20
966.27
 10
97.78
 20
1164.86
 10
172.7
 20
1164.91
  0
LWPOLYLINE
  5
4B
330
17
100
AcDbEntity
  8
LOTS
100
AcDbPolyline
 90
5
 70
1
 10
247.61
 20
1164.96
 10
479.26
 20
1031.22
 10
460.51
 20
998.74
 10
172.7
 20
1164.91
 10
247.61
 20
1164.96
  0
LWPOLYLINE
  5
4C
330
17
100
AcDbEntity
  8
LOTS
100
AcDbPolyline
 90
5
 70
1
 10
322.53
 20
1165.01
 10
498.01
 20
1063.69
 10
479.26
 20
1031.22
 10
247.61
 20
1164.96
 10
322.53
 20
1165.01
  0
LWPOLYLINE
  5
4D
330
17
100
AcDbEntity
  8
LOTS
100
AcDbPolyline
 90
5
 70
1
 10
397.45
 20
1165.05
 10
516.76
 20
1096.17
 10
498.01
 20
1063.69
 10
322.53
 20
1165.01
 10
397.45
 20
1165.05
  0
LWPOLYLINE
  5
4E
330
17
100
AcDbEntity
  8
LOTS
100
AcDbPolyline
 90
5
 70
1
 10
472.36
 20
1165.1
 10
535.51
 20
1128.65
 10
516.76
 20
1096.17
 10
397.45
 20
1165.05
 10
472.36
 20
1165.1
  0
LWPOLYLINE
  5
4F
330
17
100
AcDbEntity
  8
LOTS
100
AcDbPolyline
 90
7
 70
1
 10
478.41
 20
1165.11
 10
539.89
 20
1164.17
 10
549.79
 20
1163.7
 10
554.26
 20
1161.12
 10
535.51
 20
1128.65
 10
472.36
 20
1165.1
 10
478.41
 20
1165.11
  0
LWPOLYLINE
  5
50
330
17
100
AcDbEntity
  8
LOTS
100
AcDbPolyline
 90
6
 70
1
 10
240.32
 20
0.03
 10
0.08
 20
138.74
 10
0.08
 20
145.25
 10
16.01
 20
172.84
 10
315.24
 20
0.08
 10
240.32
 20
0.03
  0
LWPOLYLINE
  5
51
330
17
100
AcDbEntity
  8
LOTS
100
AcDbPolyline
 90
5
 70
1
 10
315.24
 20
0.08
 10
16.01
 20
172.84
 10
34.76
 20
205.32
 10
390.16
 20
0.13
 10
315.24
 20
0.08
  0
LWPOLYLINE
  5
52
330
17
100
AcDbEntity
  8
LOTS
100
AcDbPolyline
 90
8
 70
1
 10
390.16
 20
0.13
 10
34.76
 20
205.32
 10
53.51
 20
237.79
 10
448.13
 20
9.96
 10
429.86
 20
2.81
 10
414.96
 20
0.81
 10
399.93
 20
0.14
 10
390.16
 20
0.13
  0
LWPOLYLINE
  5
53
330
17
100
AcDbEntity
  8
LOTS
100
AcDbPolyline
 90
6
 70
1
 10
72.26
 20
270.27
 10
484.61
 20
32.2
 10
486.3
 20
24.89
 10
448.13
 20
9.96
 10
53.51
 20
237.79
 10
72.26
 20
270.27
  0
LWPOLYLINE
  5
54
330
17
100
AcDbEntity
  8
LOTS
100
AcDbPolyline
 90
7
 70
1
 10
91.01
 20
302.75
 10
478.33
 20
79.12
 10
479.28
 20
62.5
 10
481.99
 20
43.55
 10
484.61
 20
32.2
 10
72.26
 20
270.27
 10
91.01
 20
302.75
  0
LWPOLYLINE
  5
55
330
17
100
AcDbEntity
  8
LOTS
100
AcDbPolyline
 90
7
 70
1
 10
109.76
 20
335.22
 10
480.19
 20
121.35
 10
478.73
 20
100.74
 10
478.19
 20
81.61
 10
478.33
 20
79.12
 10
91.01
 20
302.75
 10
109.76
 20
335.22
  0
LWPOLYLINE
  5
56
330
17
100
AcDbEntity
  8
LOTS
100
AcDbPolyline
 90
5
 70
1
 10
128.51
 20
367.7
 10
483.14
 20
162.95
 10
480.19
 20
121.35
 10
109.76
 20
335.22
 10
128.51
 20
367.7
  0
LWPOLYLINE
  5
57
330
17
100
AcDbEntity
  8
LOTS
100
AcDbPolyline
 90
5
 70
1
 10
147.26
 20
400.17
 10
486.09
 20
204.55
 10
483.14
 20
162.95
 10
128.51
 20
367.7
 10
147.26
 20
400.17
  0
LWPOLYLINE
  5
58
330
17
100
AcDbEntity
  8
LOTS
100
AcDbPolyline
 90
5
 70
1
 10
166.01
 20
432.65
 10
489.04
 20
246.15
 10
486.09
 20
204.55
 10
147.26
 20
400.17
 10
166.01
 20
432.65
  0
LWPOLYLINE
  5
59
330
17
100
AcDbEntity
  8
LOTS
100
AcDbPolyline
 90
5
 70
1
 10
184.76
 20
465.13
 10
491.99
 20
287.74
 10
489.04
 20
246.15
 10
166.01
 20
432.65
 10
184.76
 20
465.13
  0
LWPOLYLINE
  5
5A
330
17
100
AcDbEntity
  8
LOTS
100
AcDbPolyline
 90
5
 70
1
 10
203.51
 20
497.6
 10
494.94
 20
329.34
 10
491.99
 20
287.74
 10
184.76
 20
465.13
 10
203.51
 20
497.6
  0
LWPOLYLINE
  5
5B
330
17
100
AcDbEntity
  8
LOTS
100
AcDbPolyline
 90
5
 70
1
 10
222.26
 20
530.08
 10
497.89
 20
370.94
 10
494.94
 20
329.34
 10
203.51
 20
497.6
 10
222.26
 20
530.08
  0
LWPOLYLINE
  5
5C
330
17
100
AcDbEntity
  8
LOTS
100
AcDbPolyline
 90
5
 70
1
 10
241.01
 20
562.55
 10
500.84
 20
412.54
 10
497.89
 20
370.94
 10
222.26
 20
530.08
 10
241.01
 20
562.55
  0
LWPOLYLINE
  5
5D
330
17
100
AcDbEntity
  8
LOTS
100
AcDbPolyline
 90
5
 70
1
 10
259.76
 20
595.03
 10
503.79
 20
454.14
 10
500.84
 20
412.54
 10
241.01
 20
562.55
 10
259.76
 20
595.03
  0
LWPOLYLINE
  5
5E
330
17
100
AcDbEntity
  8
LOTS
100
AcDbPolyline
 90
5
 70
1
 10
278.51
 20
627.51
 10
506.74
 20
495.73
 10
503.79
 20
454.14
 10
259.76
 20
595.03
 10
278.51
 20
627.51
  0
LWPOLYLINE
  5
5F
330
17
100
AcDbEntity
  8
LOTS
100
AcDbPolyline
 90
5
 70
1
 10
297.26
 20
659.98
 10
509.69
 20
537.33
 10
506.74
 20
495.73
 10
278.51
 20
627.51
 10
297.26
 20
659.98
  0
LWPOLYLINE
  5
60
330
17
100
AcDbEntity
  8
LOTS
100
AcDbPolyline
 90
5
 70
1
 10
316.01
 20
692.46
 10
512.64
 20
578.93
 10
509.69
 20
537.33
 10
297.26
 20
659.98
 10
316.01
 20
692.46
  0
LWPOLYLINE
  5
61
330
17
100
AcDbEntity
  8
LOTS
100
AcDbPolyline
 90
6
 70
1
 10
334.76
 20
724.93
 10
516.15
 20
620.21
 10
513.81
 20
595.43
 10
512.64
 20
578.93
 10
316.01
 20
692.46
 10
334.76
 20
724.93
  0
LWPOLYLINE
  5
62
330
17
100
AcDbEntity
  8
LOTS
100
AcDbPolyline
 90
6
 70
1
 10
353.51
 20
757.41
 10
520.83
 20
660.81
 10
518.26
 20
642.63
 10
516.15
 20
620.21
 10
334.76
 20
724.93
 10
353.51
 20
757.41
  0
LWPOLYLINE
  5
63
330
17
100
AcDbEntity
  8
LOTS
100
AcDbPolyline
 90
6
 70
1
 10
372.26
 20
789.89
 10
526.96
 20
700.57
 10
524.89
 20
689.58
 10
520.83
 20
660.81
 10
353.51
 20
757.41
 10
372.26
 20
789.89
  0
LWPOLYLINE
  5
64
330
17
100
AcDbEntity
  8
LOTS
100
AcDbPolyline
 90
6
 70
1
 10
391.01
 20
822.36
 10
534.47
 20
739.53
 10
533.67
 20
736.17
 10
526.96
 20
700.57
 10
372.26
 20
789.89
 10
391.01
 20
822.36
  0
LWPOLYLINE
  5
65
330
17
100
AcDbEntity
  8
LOTS
100
AcDbPolyline
 90
5
 70
1
 10
409.76
 20
854.84
 10
543.5
 20
777.62
 10
534.47
 20
739.53
 10
391.01
 20
822.36
 10
409.76
 20
854.84
  0
LWPOLYLINE
  5
66
330
17
100
AcDbEntity
  8
LOTS
100
AcDbPolyline
 90
6
 70
1
 10
428.51
 20
887.31
 10
553.95
 20
814.89
 10
544.61
 20
782.3
 10
543.5
 20
777.62
 10
409.76
 20
854.84
 10
428.51
 20
887.31
  0
LWPOLYLINE
  5
67
330
17
100
AcDbEntity
  8
LOTS
100
AcDbPolyline
 90
6
 70
1
 10
447.26
 20
919.79
 10
565.62
 20
851.45
 10
557.67
 20
827.88
 10
553.95
 20
814.89
 10
428.51
 20
887.31
 10
447.26
 20
919.79
  0
LWPOLYLINE
  5
68
330
17
100
AcDbEntity
  8
LOTS
100
AcDbPolyline
 90
6
 70
1
 10
466.01
 20
952.27
 10
578.16
 20
887.51
 10
572.82
 20
872.81
 10
565.62
 20
851.45
 10
447.26
 20
919.79
 10
466.01
 20
952.27
  0
LWPOLYLINE
  5
69
330
17
100
AcDbEntity
  8
LOTS
100
AcDbPolyline
 90
5
 70
1
 10
484.76
 20
984.74
 10
591.16
 20
923.31
 10
578.16
 20
887.51
 10
466.01
 20
952.27
 10
484.76
 20
984.74
  0
LWPOLYLINE
  5
6A
330
17
100
AcDbEntity
  8
LOTS
100
AcDbPolyline
 90
5
 70
1
 10
503.51
 20
1017.22
 10
604.17
 20
959.1
 10
591.16
 20
923.31
 10
484.76
 20
984.74
 10
503.51
 20
1017.22
  0
LWPOLYLINE
  5
6B
330
17
100
AcDbEntity
  8
LOTS
100
AcDbPolyline
 90
6
 70
1
 10
522.26
 20
1049.69
 10
614.58
 20
996.39
 10
608.76
 20
971.75
 10
604.17
 20
959.1
 10
503.51
 20
1017.22
 10
522.26
 20
1049.69
  0
LWPOLYLINE
  5
6C
330
17
100
AcDbEntity
  8
LOTS
100
AcDbPolyline
 90
5
 70
1
 10
541.01
 20
1082.17
 10
623.59
 20
1034.49
 10
614.58
 20
996.39
 10
522.26
 20
1049.69
 10
541.01
 20
1082.17
  0
LWPOLYLINE
  5
6D
330
17
100
AcDbEntity
  8
LOTS
100
AcDbPolyline
 90
6
 70
1
 10
559.76
 20
1114.65
 10
633.32
 20
1072.17
 10
629.7
 20
1060.36
 10
623.59
 20
1034.49
 10
541.01
 20
1082.17
 10
559.76
 20
1114.65
  0
LWPOLYLINE
  5
6E
330
17
100
AcDbEntity
  8
LOTS
100
AcDbPolyline
 90
8
 70
1
 10
578.51
 20
1147.12
 10
649.18
 20
1106.32
 10
647.88
 20
1100.73
 10
640.32
 20
1073.11
 10
634.15
 20
1074.89
 10
633.32
 20
1072.17
 10
559.76
 20
1114.65
 10
578.51
 20
1147.12
  0
LWPOLYLINE
  5
6F
330
17
100
AcDbEntity
  8
ROADS
100
AcDbPolyline
 90
5
 70
1
 10
559.21
 20
1169.69
 10
583.45
 20
1155.69
 10
12.22
 20
166.28
 10
-12.02
 20
180.28
 10
559.21
 20
1169.69
  0
LWPOLYLINE
  5
70
330
17
100
AcDbEntity
  8
CENTERLINE
100
AcDbPolyline
 90
2
 70
0
 10
0.1
 20
173.28
 10
571.33
 20
1162.69
  0
ENDSEC
  0
SECTION
  2
OBJECTS
  0
DICTIONARY
  5
A
330
0
100
AcDbDictionary
281
1
  3
ACAD_COLOR
350
B
  3
ACAD_GROUP
350
C
  3
ACAD_LAYOUT
350
D
  3
ACAD_MATERIAL
350
E
  3
ACAD_MLEADERSTYLE
350
F
  3
ACAD_MLINESTYLE
350
10
  3
ACAD_PLOTSETTINGS
350
11
  3
ACAD_PLOTSTYLENAME
350
12
  3
ACAD_SCALELIST
350
14
  3
ACAD_TABLESTYLE
350
15
  3
ACAD_VISUALSTYLE
350
16
  3
EZDXF_META
350
2D
  0
DICTIONARY
  5
B
330
A
100
AcDbDictionary
281
1
  0
DICTIONARY
  5
C
330
A
100
AcDbDictionary
281
1
  0
DICTIONARY
  5
D
330
A
100
AcDbDictionary
281
1
  3
Model
350
1A
  3
Layout1
350
1E
  0
DICTIONARY
  5
E
330
A
100
AcDbDictionary
281
1
  3
ByBlock
350
1F
  3
ByLayer
350
20
  3
Global
350
21
  0
DICTIONARY
  5
F
330
A
100
AcDbDictionary
281
1
  3
Standard
350
2C
  0
DICTIONARY
  5
10
330
A
100
AcDbDictionary
281
1
  3
Standard
350
22
  0
DICTIONARY
  5
11
330
A
100
AcDbDictionary
281
1
  0
ACDBDICTIONARYWDFLT
  5
12
330
A
100
AcDbDictionary
281
1
  3
Normal
350
13
100
AcDbDictionaryWithDefault
340
13
  0
ACDBPLACEHOLDER
  5
13
330
12
  0
DICTIONARY
  5
14
330
A
100
AcDbDictionary
281
1
  0
DICTIONARY
  5
15
330
A
100
AcDbDictionary
281
1
  0
DICTIONARY
  5
16
330
A
100
AcDbDictionary
281
1
  0
LAYOUT
  5
1A
330
D
100
AcDbPlotSettings
  1

  4
A3
  6

 40
7.5
 41
20.0
 42
7.5
 43
20.0
 44
420.0
 45
297.0
 46
0.0
 47
0.0
 48
0.0
 49
0.0
140
0.0
141
0.0
142
1.0
143
1.0
 70
1024
 72
1
 73
0
 74
5
  7

 75
16
 76
0
 77
2
 78
300
147
1.0
148
0.0
149
0.0
100
AcDbLayout
  1
Model
 70
1
 71
0
 10
0.0
 20
0.0
 11
420.0
 21
297.0
 12
0.0
 22
0.0
 32
0.0
 14
1e+20
 24
1e+20
 34
1e+20
 15
-1e+20
 25
-1e+20
 35
-1e+20
146
0.0
 13
0.0
 23
0.0
 33
0.0
 16
1.0
 26
0.0
 36
0.0
 17
0.0
 27
1.0
 37
0.0
 76
1
330
17
  0
LAYOUT
  5
1E
330
D
100
AcDbPlotSettings
  1

  4
A3
  6

 40
7.5
 41
20.0
 42
7.5
 43
20.0
 44
420.0
 45
297.0
 46
0.0
 47
0.0
 48
0.0
 49
0.0
140
0.0
141
0.0
142
1.0
143
1.0
 70
0
 72
1
 73
0
 74
5
  7

 75
16
 76
0
 77
2
 78
300
147
1.0
148
0.0
149
0.0
100
AcDbLayout
  1
Layout1
 70
1
 71
1
 10
0.0
 20
0.0
 11
420.0
 21
297.0
 12
0.0
 22
0.0
 32
0.0
 14
1e+20
 24
1e+20
 34
1e+20
 15
-1e+20
 25
-1e+20
 35
-1e+20
146
0.0
 13
0.0
 23
0.0
 33
0.0
 16
1.0
 26
0.0
 36
0.0
 17
0.0
 27
1.0
 37
0.0
 76
1
330
1B
  0
MATERIAL
  5
1F
102
{ACAD_REACTORS
330
E
102
}
330
E
100
AcDbMaterial
  1
ByBlock
  2

 70
0
 40
1.0
 71
1
 41
1.0
 91
-1023410177
 42
1.0
 72
1
  3

 73
1
 74
1
 75
1
 44
0.5
 73
0
 45
1.0
 46
1.0
 77
1
  4

 78
1
 79
1
170
1
 48
1.0
171
1
  6

172
1
173
1
174
1
140
1.0
141
1.0
175
1
  7

176
1
177
1
178
1
143
1.0
179
1
  8

270
1
271
1
272
1
145
1.0
146
1.0
273
1
  9

274
1
275
1
276
1
 42
1.0
 72
1
  3

 73
1
 74
1
 75
1
 94
63
  0
MATERIAL
  5
20
102
{ACAD_REACTORS
330
E
102
}
330
E
100
AcDbMaterial
  1
ByLayer
  2

 70
0
 40
1.0
 71
1
 41
1.0
 91
-1023410177
 42
1.0
 72
1
  3

 73
1
 74
1
 75
1
 44
0.5
 73
0
 45
1.0
 46
1.0
 77
1
  4

 78
1
 79
1
170
1
 48
1.0
171
1
  6

172
1
173
1
174
1
140
1.0
141
1.0
175
1
  7

176
1
177
1
178
1
143
1.0
179
1
  8

270
1
271
1
272
1
145
1.0
146
1.0
273
1
  9

274
1
275
1
276
1
 42
1.0
 72
1
  3

 73
1
 74
1
 75
1
 94
63
  0
MATERIAL
  5
21
102
{ACAD_REACTORS
330
E
102
}
330
E
100
AcDbMaterial
  1
Global
  2

 70
0
 40
1.0
 71
1
 41
1.0
 91
-1023410177
 42
1.0
 72
1
  3

 73
1
 74
1
 75
1
 44
0.5
 73
0
 45
1.0
 46
1.0
 77
1
  4

 78
1
 79
1
170
1
 48
1.0
171
1
  6

172
1
173
1
174
1
140
1.0
141
1.0
175
1
  7

176
1
177
1
178
1
143
1.0
179
1
  8

270
1
271
1
272
1
145
1.0
146
1.0
273
1
  9

274
1
275
1
276
1
 42
1.0
 72
1
  3

 73
1
 74
1
 75
1
 94
63
  0
MLINESTYLE
  5
22
102
{ACAD_REACTORS
330
10
102
}
330
10
100
AcDbMlineStyle
  2
Standard
 70
0
  3

 62
256
 51
90.0
 52
90.0
 71
2
 49
0.5
 62
256
  6
BYLAYER
 49
-0.5
 62
256
  6
BYLAYER
  0
MLEADERSTYLE
  5
2C
102
{ACAD_REACTORS
330
F
102
}
330
F
100
AcDbMLeaderStyle
179
2
170
2
171
1
172
0
 90
2
 40
0.0
 41
0.0
173
1
 91
-1056964608
 92
-2
290
1
 42
2.0
291
1
 43
8.0
  3
Standard
 44
4.0
300

342
29
174
1
175
1
176
0
178
1
 93
-1056964608
 45
4.0
292
0
297
0
 46
4.0
 94
-1056964608
 47
1.0
 49
1.0
140
1.0
294
1
141
0.0
177
0
142
1.0
295
0
296
0
143
3.75
271
0
272
9
273
9
  0
DICTIONARY
  5
2D
330
A
100
AcDbDictionary
280
1
281
1
  3
CREATED_BY_EZDXF
350
2E
  3
WRITTEN_BY_EZDXF
350
73
  0
DICTIONARYVAR
  5
2E
330
2D
100
DictionaryVariables
280
0
  1
0.0 @ 2000-01-01T00:00:00.000000+00:00
  0
DICTIONARYVAR
  5
73
330
2D
100
DictionaryVariables
280
0
  1
0.0 @ 2000-01-01T00:00:00.000000+00:00
  0
ENDSEC
  0
EOF
