  0
SECTION
  2
HEADER
  9
$ACADVER
  1
AC1024
  9
$ACADMAINTVER
 70
6
  9
$DWGCODEPAGE
  3
ANSI_1252
  9
$LASTSAVEDBY
  1
ezdxf
  9
$INSBASE
 10
0.0
 20
0.0
 30
0.0
  9
$EXTMIN
 10
1e+20
 20
1e+20
 30
1e+20
  9
$EXTMAX
 10
-1e+20
 20
-1e+20
 30
-1e+20
  9
$LIMMIN
 10
0.0
 20
0.0
  9
$LIMMAX
 10
420.0
 20
297.0
  9
$ORTHOMODE
 70
0
  9
$REGENMODE
 70
1
  9
$FILLMODE
 70
1
  9
$QTEXTMODE
 70
0
  9
$MIRRTEXT
 70
1
  9
$LTSCALE
 40
1.0
  9
$ATTMODE
 70
1
  9
$TEXTSIZE
 40
2.5
  9
$TRACEWID
 40
1.0
  9
$TEXTSTYLE
  7
Standard
  9
$CLAYER
  8
0
  9
$CELTYPE
  6
ByLayer
  9
$CECOLOR
 62
256
  9
$CELTSCALE
 40
1.0
  9
$DISPSILH
 70
0
  9
$DIMSCALE
 40
1.0
  9
$DIMASZ
 40
2.5
  9
$DIMEXO
 40
0.625
  9
$DIMDLI
 40
3.75
  9
$DIMRND
 40
0.0
  9
$DIMDLE
 40
0.0
  9
$DIMEXE
 40
1.25
  9
$DIMTP
 40
0.0
  9
$DIMTM
 40
0.0
  9
$DIMTXT
 40
2.5
  9
$DIMCEN
 40
2.5
  9
$DIMTSZ
 40
0.0
  9
$DIMTOL
 70
0
  9
$DIMLIM
 70
0
  9
$DIMTIH
 70
0
  9
$DIMTOH
 70
0
  9
$DIMSE1
 70
0
  9
$DIMSE2
 70
0
  9
$DIMTAD
 70
1
  9
$DIMZIN
 70
8
  9
$DIMBLK
  1

  9
$DIMASO
 70
1
  9
$DIMSHO
 70
1
  9
$DIMPOST
  1

  9
$DIMAPOST
  1

  9
$DIMALT
 70
0
  9
$DIMALTD
 70
3
  9
$DIMALTF
 40
0.03937007874
  9
$DIMLFAC
 40
1.0
  9
$DIMTOFL
 70
1
  9
$DIMTVP
 40
0.0
  9
$DIMTIX
 70
0
  9
$DIMSOXD
 70
0
  9
$DIMSAH
 70
0
  9
$DIMBLK1
  1

  9
$DIMBLK2
  1

  9
$DIMSTYLE
  2
ISO-25
  9
$DIMCLRD
 70
0
  9
$DIMCLRE
 70
0
  9
$DIMCLRT
 70
0
  9
$DIMTFAC
 40
1.0
  9
$DIMGAP
 40
0.625
  9
$DIMJUST
 70
0
  9
$DIMSD1
 70
0
  9
$DIMSD2
 70
0
  9
$DIMTOLJ
 70
0
  9
$DIMTZIN
 70
8
  9
$DIMALTZ
 70
0
  9
$DIMALTTZ
 70
0
  9
$DIMUPT
 70
0
  9
$DIMDEC
 70
2
  9
$DIMTDEC
 70
2
  9
$DIMALTU
 70
2
  9
$DIMALTTD
 70
3
  9
$DIMTXSTY
  7
Standard
  9
$DIMAUNIT
 70
0
  9
$DIMADEC
 70
0
  9
$DIMALTRND
 40
0.0
  9
$DIMAZIN
 70
0
  9
$DIMDSEP
 70
44
  9
$DIMATFIT
 70
3
  9
$DIMFRAC
 70
0
  9
$DIMLDRBLK
  1

  9
$DIMLUNIT
 70
2
  9
$DIMLWD
 70
-2
  9
$DIMLWE
 70
-2
  9
$DIMTMOVE
 70
0
  9
$DIMFXL
 40
1.0
  9
$DIMFXLON
 70
0
  9
$DIMJOGANG
 40
0.785398163397
  9
$DIMTFILL
 70
0
  9
$DIMTFILLCLR
 70
0
  9
$DIMARCSYM
 70
0
  9
$DIMLTYPE
  6

  9
$DIMLTEX1
  6

  9
$DIMLTEX2
  6

  9
$DIMTXTDIRECTION
 70
0
  9
$LUNITS
 70
2
  9
$LUPREC
 70
4
  9
$SKETCHINC
 40
1.0
  9
$FILLETRAD
 40
10.0
  9
$AUNITS
 70
0
  9
$AUPREC
 70
2
  9
$MENU
  1
.
  9
$ELEVATION
 40
0.0
  9
$PELEVATION
 40
0.0
  9
$THICKNESS
 40
0.0
  9
$LIMCHECK
 70
0
  9
$CHAMFERA
 40
0.0
  9
$CHAMFERB
 40
0.0
  9
$CHAMFERC
 40
0.0
  9
$CHAMFERD
 40
0.0
  9
$SKPOLY
 70
0
  9
$TDCREATE
 40
2451545.0
  9
$TDUCREATE
 40
2451545.0
  9
$TDUPDATE
 40
2451545.0
  9
$TDUUPDATE
 40
2451545.0
  9
$TDINDWG
 40
0.0
  9
$TDUSRTIMER
 40
0.0
  9
$USRTIMER
 70
1
  9
$ANGBASE
 50
0.0
  9
$ANGDIR
 70
0
  9
$PDMODE
 70
0
  9
$PDSIZE
 40
0.0
  9
$PLINEWID
 40
0.0
  9
$SPLFRAME
 70
0
  9
$SPLINETYPE
 70
6
  9
$SPLINESEGS
 70
8
  9
$HANDSEED
  5
7D
  9
$SURFTAB1
 70
6
  9
$SURFTAB2
 70
6
  9
$SURFTYPE
 70
6
  9
$SURFU
 70
6
  9
$SURFV
 70
6
  9
$UCSBASE
  2

  9
$UCSNAME
  2

  9
$UCSORG
 10
0.0
 20
0.0
 30
0.0
  9
$UCSXDIR
 10
1.0
 20
0.0
 30
0.0
  9
$UCSYDIR
 10
0.0
 20
1.0
 30
0.0
  9
$UCSORTHOREF
  2

  9
$UCSORTHOVIEW
 70
0
  9
$UCSORGTOP
 10
0.0
 20
0.0
 30
0.0
  9
$UCSORGBOTTOM
 10
0.0
 20
0.0
 30
0.0
  9
$UCSORGLEFT
 10
0.0
 20
0.0
 30
0.0
  9
$UCSORGRIGHT
 10
0.0
 20
0.0
 30
0.0
  9
$UCSORGFRONT
 10
0.0
 20
0.0
 30
0.0
  9
$UCSORGBACK
 10
0.0
 20
0.0
 30
0.0
  9
$PUCSBASE
  2

  9
$PUCSNAME
  2

  9
$PUCSORG
 10
0.0
 20
0.0
 30
0.0
  9
$PUCSXDIR
 10
1.0
 20
0.0
 30
0.0
  9
$PUCSYDIR
 10
0.0
 20
1.0
 30
0.0
  9
$PUCSORTHOREF
  2

  9
$PUCSORTHOVIEW
 70
0
  9
$PUCSORGTOP
 10
0.0
 20
0.0
 30
0.0
  9
$PUCSORGBOTTOM
 10
0.0
 20
0.0
 30
0.0
  9
$PUCSORGLEFT
 10
0.0
 20
0.0
 30
0.0
  9
$PUCSORGRIGHT
 10
0.0
 20
0.0
 30
0.0
  9
$PUCSORGFRONT
 10
0.0
 20
0.0
 30
0.0
  9
$PUCSORGBACK
 10
0.0
 20
0.0
 30
0.0
  9
$USERI1
 70
0
  9
$USERI2
 70
0
  9
$USERI3
 70
0
  9
$USERI4
 70
0
  9
$USERI5
 70
0
  9
$USERR1
 40
0.0
  9
$USERR2
 40
0.0
  9
$USERR3
 40
0.0
  9
$USERR4
 40
0.0
  9
$USERR5
 40
0.0
  9
$WORLDVIEW
 70
1
  9
$SHADEDGE
 70
3
  9
$SHADEDIF
 70
70
  9
$TILEMODE
 70
1
  9
$MAXACTVP
 70
64
  9
$PINSBASE
 10
0.0
 20
0.0
 30
0.0
  9
$PLIMCHECK
 70
0
  9
$PEXTMIN
 10
1e+20
 20
1e+20
 30
1e+20
  9
$PEXTMAX
 10
-1e+20
 20
-1e+20
 30
-1e+20
  9
$PLIMMIN
 10
0.0
 20
0.0
  9
$PLIMMAX
 10
420.0
 20
297.0
  9
$UNITMODE
 70
0
  9
$VISRETAIN
 70
1
  9
$PLINEGEN
 70
0
  9
$PSLTSCALE
 70
1
  9
$TREEDEPTH
 70
3020
  9
$CMLSTYLE
  2
Standard
  9
$CMLJUST
 70
0
  9
$CMLSCALE
 40
20.0
  9
$PROXYGRAPHICS
 70
1
  9
$MEASUREMENT
 70
1
  9
$CELWEIGHT
370
-1
  9
$ENDCAPS
280
0
  9
$JOINSTYLE
280
0
  9
$LWDISPLAY
290
0
  9
$INSUNITS
 70
2
  9
$HYPERLINKBASE
  1

  9
$STYLESHEET
  1

  9
$XEDIT
290
1
  9
$CEPSNTYPE
380
0
  9
$PSTYLEMODE
290
1
  9
$FINGERPRINTGUID
  2
{00000000-0000-0000-0000-000000000000}
  9
$VERSIONGUID
  2
{00000000-0000-0000-0000-000000000000}
  9
$EXTNAMES
290
1
  9
$PSVPSCALE
 40
0.0
  9
$OLESTARTUP
290
0
  9
$SORTENTS
280
127
  9
$INDEXCTL
280
0
  9
$HIDETEXT
280
1
  9
$XCLIPFRAME
280
1
  9
$HALOGAP
280
0
  9
$OBSCOLOR
 70
257
  9
$OBSLTYPE
280
0
  9
$INTERSECTIONDISPLAY
280
0
  9
$INTERSECTIONCOLOR
 70
257
  9
$DIMASSOC
280
2
  9
$PROJECTNAME
  1

  9
$CAMERADISPLAY
290
0
  9
$LENSLENGTH
 40
50.0
  9
$CAMERAHEIGHT
 40
0.0
  9
$STEPSPERSEC
 40
24.0
  9
$STEPSIZE
 40
100.0
  9
$3DDWFPREC
 40
2.0
  9
$PSOLWIDTH
 40
0.005
  9
$PSOLHEIGHT
 40
0.08
  9
$LOFTANG1
 40
1.570796326795
  9
$LOFTANG2
 40
1.570796326795
  9
$LOFTMAG1
 40
0.0
  9
$LOFTMAG2
 40
0.0
  9
$LOFTPARAM
 70
7
  9
$LOFTNORMALS
280
1
  9
$LATITUDE
 40
37.795
  9
$LONGITUDE
 40
-122.394
  9
$NORTHDIRECTION
 40
0.0
  9
$TIMEZONE
 70
-8000
  9
$LIGHTGLYPHDISPLAY
280
1
  9
$TILEMODELIGHTSYNCH
280
1
  9
$CMATERIAL
347
20
  9
$SOLIDHIST
280
0
  9
$SHOWHIST
280
1
  9
$DWFFRAME
280
2
  9
$DGNFRAME
280
2
  9
$REALWORLDSCALE
290
1
  9
$INTERFERECOLOR
 62
256
  9
$CSHADOW
280
0
  9
$SHADOWPLANELOCATION
 40
0.0
  0
ENDSEC
  0
SECTION
  2
CLASSES
  0
CLASS
  1
ACDBDICTIONARYWDFLT
  2
AcDbDictionaryWithDefault
  3
ObjectDBX Classes
 90
0
 91
0
280
0
281
0
  0
CLASS
  1
SUN
  2
AcDbSun
  3
SCENEOE
 90
1153
 91
0
280
0
281
0
  0
CLASS
  1
VISUALSTYLE
  2
AcDbVisualStyle
  3
ObjectDBX Classes
 90
4095
 91
0
280
0
281
0
  0
CLASS
  1
MATERIAL
  2
AcDbMaterial
  3
ObjectDBX Classes
 90
1153
 91
0
280
0
281
0
  0
CLASS
  1
SCALE
  2
AcDbScale
  3
ObjectDBX Classes
 90
1153
 91
0
280
0
281
0
  0
CLASS
  1
TABLESTYLE
  2
AcDbTableStyle
  3
ObjectDBX Classes
 90
4095
 91
0
280
0
281
0
  0
CLASS
  1
MLEADERSTYLE
  2
AcDbMLeaderStyle
  3
ACDB_MLEADERSTYLE_CLASS
 90
4095
 91
0
280
0
281
0
  0
CLASS
  1
DICTIONARYVAR
  2
AcDbDictionaryVar
  3
ObjectDBX Classes
 90
0
 91
0
280
0
281
0
  0
CLASS
  1
CELLSTYLEMAP
  2
AcDbCellStyleMap
  3
ObjectDBX Classes
 90
1152
 91
0
280
0
281
0
  0
CLASS
  1
MENTALRAYRENDERSETTINGS
  2
AcDbMentalRayRenderSettings
  3
SCENEOE
 90
1024
 91
0
280
0
281
0
  0
CLASS
  1
ACDBDETAILVIEWSTYLE
  2
AcDbDetailViewStyle
  3
ObjectDBX Classes
 90
1025
 91
0
280
0
281
0
  0
CLASS
  1
ACDBSECTIONVIEWSTYLE
  2
AcDbSectionViewStyle
  3
ObjectDBX Classes
 90
1025
 91
0
280
0
281
0
  0
CLASS
  1
RASTERVARIABLES
  2
AcDbRasterVariables
  3
ISM
 90
0
 91
0
280
0
281
0
  0
CLASS
  1
ACDBPLACEHOLDER
  2
AcDbPlaceHolder
  3
ObjectDBX Classes
 90
0
 91
0
280
0
281
0
  0
CLASS
  1
LAYOUT
  2
AcDbLayout
  3
ObjectDBX Classes
 90
0
 91
0
280
0
281
0
  0
ENDSEC
  0
SECTION
  2
TABLES
  0
TABLE
  2
VPORT
  5
8
330
0
100
AcDbSymbolTable
 70
1
  0
VPORT
  5
23
330
8
100
AcDbSymbolTableRecord
100
AcDbViewportTableRecord
  2
*Active
 70
0
 10
0.0
 20
0.0
 11
1.0
 21
1.0
 12
0.0
 22
0.0
 13
0.0
 23
0.0
 14
0.5
 24
0.5
 15
0.5
 25
0.5
 16
0.0
 26
0.0
 36
1.0
 17
0.0
 27
0.0
 37
0.0
 40
1000.0
 41
1.34
 42
50.0
 43
0.0
 44
0.0
 50
0.0
 51
0.0
 71
0
 72
1000
 73
1
 74
3
 75
0
 76
0
 77
0
 78
0
281
0
 65
0
146
0.0
  0
ENDTAB
  0
TABLE
  2
LTYPE
  5
2
330
0
100
AcDbSymbolTable
 70
3
  0
LTYPE
  5
24
330
2
100
AcDbSymbolTableRecord
100
AcDbLinetypeTableRecord
  2
ByBlock
 70
0
  3

 72
65
 73
0
 40
0.0
  0
LTYPE
  5
25
330
2
100
AcDbSymbolTableRecord
100
AcDbLinetypeTableRecord
  2
ByLayer
 70
0
  3

 72
65
 73
0
 40
0.0
  0
LTYPE
  5
26
330
2
100
AcDbSymbolTableRecord
100
AcDbLinetypeTableRecord
  2
Continuous
 70
0
  3

 72
65
 73
0
 40
0.0
  0
ENDTAB
  0
TABLE
  2
LAYER
  5
1
330
0
100
AcDbSymbolTable
 70
6
  0
LAYER
  5
27
330
1
100
AcDbSymbolTableRecord
100
AcDbLayerTableRecord
  2
0
 70
0
 62
7
  6
Continuous
370
-3
390
13
347
21
  0
LAYER
  5
28
330
1
100
AcDbSymbolTableRecord
100
AcDbLayerTableRecord
  2
Defpoints
 70
0
 62
7
  6
Continuous
290
0
370
-3
390
13
347
21
  0
LAYER
  5
2F
330
1
100
AcDbSymbolTableRecord
100
AcDbLayerTableRecord
  2
PARCEL
 70
0
 62
5
  6
Continuous
370
-3
390
13
347
21
  0
LAYER
  5
30
330
1
100
AcDbSymbolTableRecord
100
AcDbLayerTableRecord
  2
LOTS
 70
0
 62
3
  6
Continuous
370
-3
390
13
347
21
  0
LAYER
  5
31
330
1
100
AcDbSymbolTableRecord
100
AcDbLayerTableRecord
  2
ROADS
 70
0
 62
1
  6
Continuous
370
-3
390
13
347
21
  0
LAYER
  5
32
330
1
100
AcDbSymbolTableRecord
100
AcDbLayerTableRecord
  2
CENTERLINE
 70
0
 62
2
  6
Continuous
370
-3
390
13
347
21
  0
ENDTAB
  0
TABLE
  2
STYLE
  5
5
330
0
100
AcDbSymbolTable
 70
1
  0
STYLE
  5
29
330
5
100
AcDbSymbolTableRecord
100
AcDbTextStyleTableRecord
  2
Standard
 70
0
 40
0.0
 41
1.0
 50
0.0
 71
0
 42
2.5
  3
txt
  4

  0
ENDTAB
  0
TABLE
  2
VIEW
  5
7
330
0
100
AcDbSymbolTable
 70
0
  0
ENDTAB
  0
TABLE
  2
UCS
  5
6
330
0
100
AcDbSymbolTable
 70
0
  0
ENDTAB
  0
TABLE
  2
APPID
  5
3
330
0
100
AcDbSymbolTable
 70
3
  0
APPID
  5
2A
330
3
100
AcDbSymbolTableRecord
100
AcDbRegAppTableRecord
  2
ACAD
 70
0
  0
APPID
  5
7A
330
3
100
AcDbSymbolTableRecord
100
AcDbRegAppTableRecord
  2
HATCHBACKGROUNDCOLOR
 70
0
  0
APPID
  5
7B
330
3
100
AcDbSymbolTableRecord
100
AcDbRegAppTableRecord
  2
EZDXF
 70
0
  0
ENDTAB
  0
TABLE
  2
DIMSTYLE
  5
4
330
0
100
AcDbSymbolTable
 70
1
100
AcDbDimStyleTable
  0
DIMSTYLE
105
2B
330
4
100
AcDbSymbolTableRecord
100
AcDbDimStyleTableRecord
  2
Standard
 70
0
 40
1.0
 41
2.5
 42
0.625
 43
3.75
 44
1.25
 45
0.0
 46
0.0
 47
0.0
 48
0.0
 49
2.5
140
2.5
141
2.5
142
0.0
143
0.03937007874
144
1.0
145
0.0
146
1.0
147
0.625
148
0.0
 69
0
 70
0
 71
0
 72
0
 73
0
 74
0
 75
0
 76
0
 77
1
 78
8
 79
3
170
0
171
3
172
1
173
0
174
0
175
0
176
0
177
0
178
0
179
2
271
2
272
2
273
2
274
3
275
0
276
0
277
2
278
44
279
0
280
0
281
0
282
0
283
0
284
8
285
0
286
0
288
0
289
3
290
0
371
-2
372
-2
  0
ENDTAB
  0
TABLE
  2
BLOCK_RECORD
  5
9
330
0
100
AcDbSymbolTable
 70
2
  0
BLOCK_RECORD
  5
17
330
9
100
AcDbSymbolTableRecord
100
AcDbBlockTableRecord
  2
*Model_Space
340
1A
 70
0
280
1
281
0
  0
BLOCK_RECORD
  5
1B
330
9
100
AcDbSymbolTableRecord
100
AcDbBlockTableRecord
  2
*Paper_Space
340
1E
 70
0
280
1
281
0
  0
ENDTAB
  0
ENDSEC
  0
SECTION
  2
BLOCKS
  0
BLOCK
  5
18
330
17
100
AcDbEntity
  8
0
100
AcDbBlockBegin
  2
*Model_Space
 70
0
 10
0.0
 20
0.0
 30
0.0
  3
*Model_Space
  1

  0
ENDBLK
  5
19
330
17
100
AcDbEntity
  8
0
100
AcDbBlockEnd
  0
BLOCK
  5
1C
330
1B
100
AcDbEntity
  8
0
100
AcDbBlockBegin
  2
*Paper_Space
 70
0
 10
0.0
 20
0.0
 30
0.0
  3
*Paper_Space
  1

  0
ENDBLK
  5
1D
330
1B
100
AcDbEntity
  8
0
100
AcDbBlockEnd
  0
ENDSEC
  0
SECTION
  2
ENTITIES
  0
LWPOLYLINE
  5
33
330
17
100
AcDbEntity
  8
PARCEL
100
AcDbPolyline
 90
44
 70
1
 10
429.86420608583404
 20
2.8122829611878872
 10
414.9553100141908
 20
0.8115002798416165
 10
399.9278182268152
 20
0.13623006603415674
 10
187.47922754503352
 20
0.0
 10
187.47326661914258
 20
9.000494722062694
 10
0.0
 20
8.87974491938051
 10
0.6693447580832864
 20
1164.7990455580384
 10
478.41154032640225
 20
1165.105797707586
 10
539.8867199903952
 20
1164.1676449173858
 10
601.3012675591924
 20
1161.27604893138
 10
662.5927864846179
 20
1156.4334943421602
 10
663.1797599907793
 20
1152.569330083652
 10
663.2230110438056
 20
1148.6613896233698
 10
662.7215390960198
 20
1144.7855189686713
 10
661.1044765198563
 20
1136.7425664836412
 10
660.9222470598738
 20
1136.0935192186168
 10
660.6459013473872
 20
1135.4792850721315
 10
660.280182389922
 20
1134.9135413072843
 10
659.8345764605273
 20
1134.4082245381521
 10
659.3183202725667
 20
1133.9752713829998
 10
656.5138552264727
 20
1131.960453774209
 10
655.8902537153888
 20
1131.4382242530114
 10
655.3500341508861
 20
1130.829954141679
 10
654.9056791523429
 20
1130.148077395422
 10
654.5666746479261
 20
1129.4087581180902
 10
654.3407594330678
 20
1128.6274143507928
 10
647.881658024866
 20
1100.7318098036608
 10
640.3213567374297
 20
1073.1149253964343
 10
634.1543682409103
 20
1074.8856594294364
 10
629.6969332833437
 20
1060.3566575834484
 10
608.7594814642995
 20
971.748190567498
 10
572.8205153443879
 20
872.8091244237022
 10
557.6682592812022
 20
827.8826143776778
 10
544.6102455196208
 20
782.3032713943303
 10
533.6749435291383
 20
736.1685713804586
 10
524.8850815878891
 20
689.5777321581243
 10
518.2596434895515
 20
642.6297240044524
 10
513.8128703905779
 20
595.426005352743
 10
478.7333760267876
 20
100.74257879230923
 10
478.1932861395131
 20
81.60763739229459
 10
479.2819419246244
 20
62.49582285017939
 10
481.99135679493475
 20
43.5456540418465
 10
486.3023096084713
 20
24.8946557584207
 10
429.86420608583404
 20
2.8122829611878872
  0
LWPOLYLINE
  5
34
330
17
100
AcDbEntity
  8
LOTS
100
AcDbPolyline
 90
9
 70
1
 10
187.4780876995833
 20
1.7210703749984306
 10
187.47326661914258
 20
9.000494722062694
 10
63.956196297946065
 20
8.920938515793212
 10
1.4770662513829923e-07
 20
8.880000000094547
 10
0.014430282545758191
 20
33.8
 10
284.45
 20
33.8
 10
284.45
 20
0.06218132439725386
 10
187.47999999944963
 20
4.953269672268439e-07
 10
187.4780876995833
 20
1.7210703749984306
  0
LWPOLYLINE
  5
35
330
17
100
AcDbEntity
  8
LOTS
100
AcDbPolyline
 90
5
 70
1
 10
0.014430282545758191
 20
33.8
 10
0.03400245580276251
 20
67.6
 10
284.45
 20
67.6
 10
284.45
 20
33.8
 10
0.014430282545758191
 20
33.8
  0
LWPOLYLINE
  5
36
330
17
100
AcDbEntity
  8
LOTS
100
AcDbPolyline
 90
5
 70
1
 10
0.03400245580276251
 20
67.6
 10
0.05357462905976684
 20
101.4
 10
284.45
 20
101.4
 10
284.45
 20
67.6
 10
0.03400245580276251
 20
67.6
  0
LWPOLYLINE
  5
37
330
17
100
AcDbEntity
  8
LOTS
100
AcDbPolyline
 90
5
 70
1
 10
0.05357462905976684
 20
101.4
 10
0.07314680231677116
 20
135.2
 10
284.45
 20
135.2
 10
284.45
 20
101.4
 10
0.05357462905976684
 20
101.4
  0
LWPOLYLINE
  5
38
330
17
100
AcDbEntity
  8
LOTS
100
AcDbPolyline
 90
5
 70
1
 10
0.07314680231677116
 20
135.2
 10
0.09271897557377548
 20
169.0
 10
284.45
 20
169.0
 10
284.45
 20
135.2
 10
0.07314680231677116
 20
135.2
  0
LWPOLYLINE
  5
39
330
17
100
AcDbEntity
  8
LOTS
100
AcDbPolyline
 90
5
 70
1
 10
0.09271897557377548
 20
169.0
 10
0.11229114883077981
 20
202.8
 10
284.45
 20
202.8
 10
284.45
 20
169.0
 10
0.09271897557377548
 20
169.0
  0
LWPOLYLINE
  5
3A
330
17
100
AcDbEntity
  8
LOTS
100
AcDbPolyline
 90
5
 70
1
 10
0.11229114883077981
 20
202.8
 10
0.13186332208778412
 20
236.6
 10
284.45
 20
236.6
 10
284.45
 20
202.8
 10
0.11229114883077981
 20
202.8
  0
LWPOLYLINE
  5
3B
330
17
100
AcDbEntity
  8
LOTS
100
AcDbPolyline
 90
5
 70
1
 10
0.13186332208778412
 20
236.6
 10
0.15143549534478845
 20
270.4
 10
284.45
 20
270.4
 10
284.45
 20
236.6
 10
0.13186332208778412
 20
236.6
  0
LWPOLYLINE
  5
3C
330
17
100
AcDbEntity
  8
LOTS
100
AcDbPolyline
 90
5
 70
1
 10
0.15143549534478845
 20
270.4
 10
0.17100766860179278
 20
304.2
 10
284.45
 20
304.2
 10
284.45
 20
270.4
 10
0.15143549534478845
 20
270.4
  0
LWPOLYLINE
  5
3D
330
17
100
AcDbEntity
  8
LOTS
100
AcDbPolyline
 90
5
 70
1
 10
0.17100766860179278
 20
304.2
 10
0.19057984185879712
 20
338.0
 10
284.45
 20
338.0
 10
284.45
 20
304.2
 10
0.17100766860179278
 20
304.2
  0
LWPOLYLINE
  5
3E
330
17
100
AcDbEntity
  8
LOTS
100
AcDbPolyline
 90
5
 70
1
 10
0.19057984185879712
 20
338.0
 10
0.21015201511580142
 20
371.8
 10
284.45
 20
371.8
 10
284.45
 20
338.0
 10
0.19057984185879712
 20
338.0
  0
LWPOLYLINE
  5
3F
330
17
100
AcDbEntity
  8
LOTS
100
AcDbPolyline
 90
6
 70
1
 10
0.21015201511580142
 20
371.8
 10
0.21710638679279448
 20
383.8097936798227
 10
0.23
 20
405.6
 10
284.45
 20
405.6
 10
284.45
 20
371.8
 10
0.21015201511580142
 20
371.8
  0
LWPOLYLINE
  5
40
330
17
100
AcDbEntity
  8
LOTS
100
AcDbPolyline
 90
5
 70
1
 10
0.23
 20
405.6
 10
0.25
 20
439.4
 10
284.45
 20
439.4
 10
284.45
 20
405.6
 10
0.23
 20
405.6
  0
LWPOLYLINE
  5
41
330
17
100
AcDbEntity
  8
LOTS
100
AcDbPolyline
 90
5
 70
1
 10
0.25
 20
439.4
 10
0.27
 20
473.2
 10
284.45
 20
473.2
 10
284.45
 20
439.4
 10
0.25
 20
439.4
  0
LWPOLYLINE
  5
42
330
17
100
AcDbEntity
  8
LOTS
100
AcDbPolyline
 90
5
 70
1
 10
0.27
 20
473.2
 10
0.29
 20
507.0
 10
284.45
 20
507.0
 10
284.45
 20
473.2
 10
0.27
 20
473.2
  0
LWPOLYLINE
  5
43
330
17
100
AcDbEntity
  8
LOTS
100
AcDbPolyline
 90
5
 70
1
 10
0.29
 20
507.0
 10
0.31
 20
540.8
 10
284.45
 20
540.8
 10
284.45
 20
507.0
 10
0.29
 20
507.0
  0
LWPOLYLINE
  5
44
330
17
100
AcDbEntity
  8
LOTS
100
AcDbPolyline
 90
5
 70
1
 10
0.31
 20
540.8
 10
0.33
 20
574.6
 10
284.45
 20
574.6
 10
284.45
 20
540.8
 10
0.31
 20
540.8
  0
LWPOLYLINE
  5
45
330
17
100
AcDbEntity
  8
LOTS
100
AcDbPolyline
 90
5
 70
1
 10
0.33
 20
574.6
 10
0.35
 20
608.4
 10
284.45
 20
608.4
 10
284.45
 20
574.6
 10
0.33
 20
574.6
  0
LWPOLYLINE
  5
46
330
17
100
AcDbEntity
  8
LOTS
100
AcDbPolyline
 90
5
 70
1
 10
0.35
 20
608.4
 10
0.37
 20
642.2
 10
284.45
 20
642.2
 10
284.45
 20
608.4
 10
0.35
 20
608.4
  0
LWPOLYLINE
  5
47
330
17
100
AcDbEntity
  8
LOTS
100
AcDbPolyline
 90
5
 70
1
 10
0.37
 20
642.2
 10
0.39
 20
676.0
 10
284.45
 20
676.0
 10
284.45
 20
642.2
 10
0.37
 20
642.2
  0
LWPOLYLINE
  5
48
330
17
100
AcDbEntity
  8
LOTS
100
AcDbPolyline
 90
5
 70
1
 10
0.39
 20
676.0
 10
0.41
 20
709.8
 10
284.45
 20
709.8
 10
284.45
 20
676.0
 10
0.39
 20
676.0
  0
LWPOLYLINE
  5
49
330
17
100
AcDbEntity
  8
LOTS
100
AcDbPolyline
 90
5
 70
1
 10
0.41
 20
709.8
 10
0.43
 20
743.6
 10
284.45
 20
743.6
 10
284.45
 20
709.8
 10
0.41
 20
709.8
  0
LWPOLYLINE
  5
4A
330
17
100
AcDbEntity
  8
LOTS
100
AcDbPolyline
 90
5
 70
1
 10
0.43
 20
743.6
 10
0.45
 20
777.4
 10
284.45
 20
777.4
 10
284.45
 20
743.6
 10
0.43
 20
743.6
  0
LWPOLYLINE
  5
4B
330
17
100
AcDbEntity
  8
LOTS
100
AcDbPolyline
 90
6
 70
1
 10
0.45
 20
777.4
 10
0.4552045712780024
 20
794.991450919648
 10
0.46459026745685766
 20
811.2
 10
284.45
 20
811.2
 10
284.45
 20
777.4
 10
0.45
 20
777.4
  0
LWPOLYLINE
  5
4C
330
17
100
AcDbEntity
  8
LOTS
100
AcDbPolyline
 90
5
 70
1
 10
0.46459026745685766
 20
811.2
 10
0.48416244071386194
 20
845.0
 10
284.45
 20
845.0
 10
284.45
 20
811.2
 10
0.46459026745685766
 20
811.2
  0
LWPOLYLINE
  5
4D
330
17
100
AcDbEntity
  8
LOTS
100
AcDbPolyline
 90
5
 70
1
 10
0.48416244071386194
 20
845.0
 10
0.5037346139708663
 20
878.8
 10
284.45
 20
878.8
 10
284.45
 20
845.0
 10
0.48416244071386194
 20
845.0
  0
LWPOLYLINE
  5
4E
330
17
100
AcDbEntity
  8
LOTS
100
AcDbPolyline
 90
5
 70
1
 10
0.5037346139708663
 20
878.8
 10
0.5233067872278706
 20
912.6
 10
284.45
 20
912.6
 10
284.45
 20
878.8
 10
0.5037346139708663
 20
878.8
  0
LWPOLYLINE
  5
4F
330
17
100
AcDbEntity
  8
LOTS
100
AcDbPolyline
 90
5
 70
1
 10
0.5233067872278706
 20
912.6
 10
0.5428789604848749
 20
946.4
 10
284.45
 20
946.4
 10
284.45
 20
912.6
 10
0.5233067872278706
 20
912.6
  0
LWPOLYLINE
  5
50
330
17
100
AcDbEntity
  8
LOTS
100
AcDbPolyline
 90
5
 70
1
 10
0.5428789604848749
 20
946.4
 10
0.5624511337418793
 20
980.2
 10
284.45
 20
980.2
 10
284.45
 20
946.4
 10
0.5428789604848749
 20
946.4
  0
LWPOLYLINE
  5
51
330
17
100
AcDbEntity
  8
LOTS
100
AcDbPolyline
 90
10
 70
1
 10
315.4966670347926
 20
0.08208962073716916
 10
312.45
 20
0.08013598268289007
 10
312.45
 20
33.8
 10
484.24
 20
33.8
 10
486.2992044785715
 20
24.893440823266047
 10
429.86420608583404
 20
2.8122829611878872
 10
414.9553100141908
 20
0.8115002798416165
 10
410.1825311102224
 20
0.5970323249400542
 10
399.93
 20
0.14
 10
315.4966670347926
 20
0.08208962073716916
  0
LWPOLYLINE
  5
52
330
17
100
AcDbEntity
  8
LOTS
100
AcDbPolyline
 90
7
 70
1
 10
478.99
 20
67.6
 10
479.28
 20
62.5
 10
481.99
 20
43.55
 10
484.24
 20
33.8
 10
312.45
 20
33.8
 10
312.45
 20
67.6
 10
478.99
 20
67.6
  0
LWPOLYLINE
  5
53
330
17
100
AcDbEntity
  8
LOTS
100
AcDbPolyline
 90
8
 70
1
 10
478.77999574823286
 20
101.4
 10
478.7799335122961
 20
101.39912236230934
 10
478.73
 20
100.74
 10
478.19
 20
81.61
 10
478.99
 20
67.6
 10
312.45
 20
67.6
 10
312.45
 20
101.4
 10
478.77999574823286
 20
101.4
  0
LWPOLYLINE
  5
54
330
17
100
AcDbEntity
  8
LOTS
100
AcDbPolyline
 90
5
 70
1
 10
481.1768557314756
 20
135.2
 10
478.77999574823286
 20
101.4
 10
312.45
 20
101.4
 10
312.45
 20
135.2
 10
481.1768557314756
 20
135.2
  0
LWPOLYLINE
  5
55
330
17
100
AcDbEntity
  8
LOTS
100
AcDbPolyline
 90
6
 70
1
 10
483.57
 20
169.0
 10
482.2754548294636
 20
150.69220637484116
 10
481.1768557314756
 20
135.2
 10
312.45
 20
135.2
 10
312.45
 20
169.0
 10
483.57
 20
169.0
  0
LWPOLYLINE
  5
56
330
17
100
AcDbEntity
  8
LOTS
100
AcDbPolyline
 90
5
 70
1
 10
485.97
 20
202.8
 10
483.57
 20
169.0
 10
312.45
 20
169.0
 10
312.45
 20
202.8
 10
485.97
 20
202.8
  0
LWPOLYLINE
  5
57
330
17
100
AcDbEntity
  8
LOTS
100
AcDbPolyline
 90
6
 70
1
 10
488.36743568120386
 20
236.6
 10
486.41002157104816
 20
208.99697045892785
 10
485.97
 20
202.8
 10
312.45
 20
202.8
 10
312.45
 20
236.6
 10
488.36743568120386
 20
236.6
  0
LWPOLYLINE
  5
58
330
17
100
AcDbEntity
  8
LOTS
100
AcDbPolyline
 90
6
 70
1
 10
490.76
 20
270.4
 10
489.2634018795435
 20
249.2347211416609
 10
488.36743568120386
 20
236.6
 10
312.45
 20
236.6
 10
312.45
 20
270.4
 10
490.76
 20
270.4
  0
LWPOLYLINE
  5
59
330
17
100
AcDbEntity
  8
LOTS
100
AcDbPolyline
 90
5
 70
1
 10
493.16
 20
304.2
 10
490.76
 20
270.4
 10
312.45
 20
270.4
 10
312.45
 20
304.2
 10
493.16
 20
304.2
  0
LWPOLYLINE
  5
5A
330
17
100
AcDbEntity
  8
LOTS
100
AcDbPolyline
 90
6
 70
1
 10
495.5580156309322
 20
338.0
 10
494.04329288311624
 20
316.6397081038867
 10
493.16
 20
304.2
 10
312.45
 20
304.2
 10
312.45
 20
338.0
 10
495.5580156309322
 20
338.0
  0
LWPOLYLINE
  5
5B
330
17
100
AcDbEntity
  8
LOTS
100
AcDbPolyline
 90
6
 70
1
 10
497.95
 20
371.8
 10
496.2513489296228
 20
347.7772359084733
 10
495.5580156309322
 20
338.0
 10
312.45
 20
338.0
 10
312.45
 20
371.8
 10
497.95
 20
371.8
  0
LWPOLYLINE
  5
5C
330
17
100
AcDbEntity
  8
LOTS
100
AcDbPolyline
 90
5
 70
1
 10
500.35
 20
405.6
 10
497.95
 20
371.8
 10
312.45
 20
371.8
 10
312.45
 20
405.6
 10
500.35
 20
405.6
  0
LWPOLYLINE
  5
5D
330
17
100
AcDbEntity
  8
LOTS
100
AcDbPolyline
 90
6
 70
1
 10
502.74859558066044
 20
439.4
 10
501.6765641951854
 20
424.28244574886094
 10
500.35
 20
405.6
 10
312.45
 20
405.6
 10
312.45
 20
439.4
 10
502.74859558066044
 20
439.4
  0
LWPOLYLINE
  5
5E
330
17
100
AcDbEntity
  8
LOTS
100
AcDbPolyline
 90
5
 70
1
 10
505.1454555639032
 20
473.2
 10
502.74859558066044
 20
439.4
 10
312.45
 20
439.4
 10
312.45
 20
473.2
 10
505.1454555639032
 20
473.2
  0
LWPOLYLINE
  5
5F
330
17
100
AcDbEntity
  8
LOTS
100
AcDbPolyline
 90
6
 70
1
 10
507.54
 20
507.0
 10
506.7332695047458
 20
495.59100805874783
 10
505.1454555639032
 20
473.2
 10
312.45
 20
473.2
 10
312.45
 20
507.0
 10
507.54
 20
507.0
  0
LWPOLYLINE
  5
60
330
17
100
AcDbEntity
  8
LOTS
100
AcDbPolyline
 90
6
 70
1
 10
509.93917553038875
 20
540.8
 10
509.3098355072526
 20
531.9251833938077
 10
507.54
 20
507.0
 10
312.45
 20
507.0
 10
312.45
 20
540.8
 10
509.93917553038875
 20
540.8
  0
LWPOLYLINE
  5
61
330
17
100
AcDbEntity
  8
LOTS
100
AcDbPolyline
 90
5
 70
1
 10
512.3360355136315
 20
574.6
 10
509.93917553038875
 20
540.8
 10
312.45
 20
540.8
 10
312.45
 20
574.6
 10
512.3360355136315
 20
574.6
  0
LWPOLYLINE
  5
62
330
17
100
AcDbEntity
  8
LOTS
100
AcDbPolyline
 90
8
 70
1
 10
515.035070929678
 20
608.4
 10
514.2984484509581
 20
600.580549925957
 10
513.81
 20
595.43
 10
513.158723323222
 20
586.2013651855204
 10
512.3360355136315
 20
574.6
 10
312.45
 20
574.6
 10
312.45
 20
608.4
 10
515.035070929678
 20
608.4
  0
LWPOLYLINE
  5
63
330
17
100
AcDbEntity
  8
LOTS
100
AcDbPolyline
 90
5
 70
1
 10
518.2191618241751
 20
642.2
 10
515.035070929678
 20
608.4
 10
312.45
 20
608.4
 10
312.45
 20
642.2
 10
518.2191618241751
 20
642.2
  0
LWPOLYLINE
  5
64
330
17
100
AcDbEntity
  8
LOTS
100
AcDbPolyline
 90
6
 70
1
 10
522.9689529283941
 20
676.0
 10
518.2596434895515
 20
642.6297240044524
 10
518.2191618241751
 20
642.2
 10
312.45
 20
642.2
 10
312.45
 20
676.0
 10
522.9689529283941
 20
676.0
  0
LWPOLYLINE
  5
65
330
17
100
AcDbEntity
  8
LOTS
100
AcDbPolyline
 90
7
 70
1
 10
528.7
 20
709.8
 10
528.514757617752
 20
708.8169026327939
 10
524.8850815878891
 20
689.5777321581243
 10
522.9689529283941
 20
676.0
 10
312.45
 20
676.0
 10
312.45
 20
709.8
 10
528.7
 20
709.8
  0
LWPOLYLINE
  5
66
330
17
100
AcDbEntity
  8
LOTS
100
AcDbPolyline
 90
7
 70
1
 10
535.4364140957827
 20
743.6
 10
534.7242796192355
 20
740.5955918479775
 10
533.67
 20
736.17
 10
528.7
 20
709.8
 10
312.45
 20
709.8
 10
312.45
 20
743.6
 10
535.4364140957827
 20
743.6
  0
LWPOLYLINE
  5
67
330
17
100
AcDbEntity
  8
LOTS
100
AcDbPolyline
 90
5
 70
1
 10
543.4480237338029
 20
777.4
 10
535.4364140957827
 20
743.6
 10
312.45
 20
743.6
 10
312.45
 20
777.4
 10
543.4480237338029
 20
777.4
  0
LWPOLYLINE
  5
68
330
17
100
AcDbEntity
  8
LOTS
100
AcDbPolyline
 90
6
 70
1
 10
552.888861557052
 20
811.2
 10
544.6102455196208
 20
782.3032713943303
 10
543.4480237338029
 20
777.4
 10
312.45
 20
777.4
 10
312.45
 20
811.2
 10
552.888861557052
 20
811.2
  0
LWPOLYLINE
  5
69
330
17
100
AcDbEntity
  8
LOTS
100
AcDbPolyline
 90
7
 70
1
 10
563.44
 20
845.0
 10
561.43291112961
 20
839.0448247034528
 10
557.6682592812022
 20
827.8826143776778
 10
552.888861557052
 20
811.2
 10
312.45
 20
811.2
 10
312.45
 20
845.0
 10
563.44
 20
845.0
  0
LWPOLYLINE
  5
6A
330
17
100
AcDbEntity
  8
LOTS
100
AcDbPolyline
 90
7
 70
1
 10
574.9966615600016
 20
878.8
 10
573.2554907118775
 20
874.0066006257553
 10
572.82
 20
872.81
 10
563.44
 20
845.0
 10
312.45
 20
845.0
 10
312.45
 20
878.8
 10
574.9966615600016
 20
878.8
  0
LWPOLYLINE
  5
6B
330
17
100
AcDbEntity
  8
LOTS
100
AcDbPolyline
 90
6
 70
1
 10
587.27
 20
912.6
 10
580.3699959639537
 20
893.5926539186337
 10
574.9966615600016
 20
878.8
 10
312.45
 20
878.8
 10
312.45
 20
912.6
 10
587.27
 20
912.6
  0
LWPOLYLINE
  5
6C
330
17
100
AcDbEntity
  8
LOTS
100
AcDbPolyline
 90
5
 70
1
 10
599.55
 20
946.4
 10
587.27
 20
912.6
 10
312.45
 20
912.6
 10
312.45
 20
946.4
 10
599.55
 20
946.4
  0
LWPOLYLINE
  5
6D
330
17
100
AcDbEntity
  8
LOTS
100
AcDbPolyline
 90
6
 70
1
 10
610.756574504459
 20
980.2
 10
608.7597397700613
 20
971.7492837319278
 10
599.55
 20
946.4
 10
312.45
 20
946.4
 10
312.45
 20
980.2
 10
610.756574504459
 20
980.2
  0
LWPOLYLINE
  5
6E
330
17
100
AcDbEntity
  8
LOTS
100
AcDbPolyline
 90
46
 70
1
 10
313.75
 20
1000.99
 10
314.52
 20
1001.25
 10
315.29
 20
1001.52
 10
316.06
 20
1001.8
 10
316.83
 20
1002.09
 10
317.58
 20
1002.4
 10
318.34
 20
1002.72
 10
319.09
 20
1003.05
 10
319.83
 20
1003.4
 10
320.56
 20
1003.75
 10
321.3
 20
1004.12
 10
322.02
 20
1004.5
 10
322.74
 20
1004.89
 10
323.45
 20
1005.29
 10
324.16
 20
1005.71
 10
324.85
 20
1006.14
 10
325.54
 20
1006.57
 10
326.23
 20
1007.02
 10
326.91
 20
1007.48
 10
327.57
 20
1007.95
 10
328.24
 20
1008.43
 10
328.89
 20
1008.93
 10
329.53
 20
1009.43
 10
330.17
 20
1009.94
 10
330.8
 20
1010.47
 10
331.42
 20
1011.0
 10
332.03
 20
1011.55
 10
332.63
 20
1012.1
 10
333.22
 20
1012.67
 10
333.81
 20
1013.24
 10
334.38
 20
1013.82
 10
334.94
 20
1014.42
 10
335.5
 20
1015.02
 10
336.04
 20
1015.63
 10
336.58
 20
1016.25
 10
337.1
 20
1016.88
 10
337.61
 20
1017.51
 10
338.12
 20
1018.16
 10
338.61
 20
1018.81
 10
339.09
 20
1019.47
 10
393.89
 20
980.2
 10
317.6
 20
980.2
 10
312.45
 20
998.6
 10
312.45
 20
1000.6
 10
312.96
 20
1000.75
 10
313.75
 20
1000.99
  0
LWPOLYLINE
  5
6F
330
17
100
AcDbEntity
  8
LOTS
100
AcDbPolyline
 90
48
 70
1
 10
339.56
 20
1020.14
 10
340.02
 20
1020.82
 10
340.47
 20
1021.5
 10
340.91
 20
1022.19
 10
341.34
 20
1022.89
 10
341.75
 20
1023.6
 10
342.15
 20
1024.31
 10
342.55
 20
1025.03
 10
342.93
 20
1025.75
 10
343.29
 20
1026.48
 10
343.65
 20
1027.22
 10
343.99
 20
1027.96
 10
344.33
 20
1028.71
 10
344.64
 20
1029.46
 10
344.95
 20
1030.22
 10
345.25
 20
1030.98
 10
345.53
 20
1031.75
 10
345.8
 20
1032.52
 10
346.05
 20
1033.3
 10
346.3
 20
1034.08
 10
346.53
 20
1034.87
 10
346.75
 20
1035.65
 10
346.95
 20
1036.45
 10
347.14
 20
1037.24
 10
347.32
 20
1038.04
 10
347.49
 20
1038.84
 10
347.64
 20
1039.64
 10
347.78
 20
1040.45
 10
347.91
 20
1041.26
 10
348.02
 20
1042.07
 10
348.12
 20
1042.88
 10
348.21
 20
1043.69
 10
348.28
 20
1044.51
 10
348.34
 20
1045.33
 10
348.39
 20
1046.14
 10
348.42
 20
1046.96
 10
348.44
 20
1047.78
 10
348.45
 20
1048.6
 10
348.44
 20
1049.41
 10
348.42
 20
1050.23
 10
348.39
 20
1051.05
 10
348.38
 20
1051.3
 10
631.6368550120699
 20
1066.679829238458
 10
629.6969332833437
 20
1060.3566575834484
 10
610.756574504459
 20
980.2
 10
393.89
 20
980.2
 10
339.09
 20
1019.47
 10
339.56
 20
1020.14
  0
LWPOLYLINE
  5
70
330
17
100
AcDbEntity
  8
LOTS
100
AcDbPolyline
 90
66
 70
1
 10
348.28
 20
1052.68
 10
348.21
 20
1053.5
 10
348.12
 20
1054.31
 10
348.02
 20
1055.12
 10
347.91
 20
1055.93
 10
347.78
 20
1056.74
 10
347.64
 20
1057.55
 10
347.49
 20
1058.35
 10
347.32
 20
1059.15
 10
347.14
 20
1059.95
 10
346.95
 20
1060.74
 10
346.75
 20
1061.54
 10
346.53
 20
1062.32
 10
346.3
 20
1063.11
 10
346.05
 20
1063.89
 10
345.8
 20
1064.67
 10
345.53
 20
1065.44
 10
345.25
 20
1066.21
 10
344.95
 20
1066.97
 10
344.64
 20
1067.73
 10
344.33
 20
1068.48
 10
343.99
 20
1069.23
 10
343.65
 20
1069.97
 10
343.29
 20
1070.71
 10
342.93
 20
1071.44
 10
342.55
 20
1072.17
 10
342.15
 20
1072.88
 10
341.75
 20
1073.6
 10
341.34
 20
1074.3
 10
340.91
 20
1075.0
 10
340.47
 20
1075.69
 10
340.02
 20
1076.37
 10
339.56
 20
1077.05
 10
339.09
 20
1077.72
 10
338.61
 20
1078.38
 10
338.12
 20
1079.03
 10
337.61
 20
1079.68
 10
337.1
 20
1080.31
 10
336.58
 20
1080.94
 10
336.04
 20
1081.56
 10
335.7
 20
1081.95
 10
428.55
 20
1165.07
 10
452.1655857987187
 20
1165.0889455160839
 10
478.41154032640225
 20
1165.105797707586
 10
539.8867199903952
 20
1164.1676449173858
 10
601.3012675591924
 20
1161.27604893138
 10
616.4919642796207
 20
1160.0758538732928
 10
630.57
 20
1158.96
 10
632.01
 20
1154.6
 10
634.18
 20
1147.53
 10
636.19
 20
1140.42
 10
638.05
 20
1133.26
 10
639.77
 20
1126.07
 10
641.33
 20
1118.85
 10
642.74
 20
1111.59
 10
643.99
 20
1104.3
 10
645.09
 20
1096.99
 10
645.65
 20
1092.6
 10
640.3213476772106
 20
1073.1149279979047
 10
636.416627377951
 20
1074.2360945327791
 10
634.15
 20
1074.89
 10
632.5228451861649
 20
1069.567712740404
 10
631.6368550120699
 20
1066.679829238458
 10
348.38
 20
1051.3
 10
348.34
 20
1051.87
 10
348.28
 20
1052.68
  0
LWPOLYLINE
  5
71
330
17
100
AcDbEntity
  8
LOTS
100
AcDbPolyline
 90
46
 70
1
 10
334.94
 20
1082.77
 10
334.38
 20
1083.37
 10
333.81
 20
1083.95
 10
333.22
 20
1084.52
 10
332.63
 20
1085.09
 10
332.03
 20
1085.64
 10
331.42
 20
1086.19
 10
330.8
 20
1086.72
 10
330.17
 20
1087.25
 10
329.53
 20
1087.76
 10
328.89
 20
1088.26
 10
328.24
 20
1088.76
 10
327.57
 20
1089.24
 10
326.91
 20
1089.71
 10
326.23
 20
1090.17
 10
325.54
 20
1090.62
 10
324.85
 20
1091.06
 10
324.16
 20
1091.48
 10
323.45
 20
1091.9
 10
322.74
 20
1092.3
 10
322.02
 20
1092.69
 10
321.3
 20
1093.07
 10
320.56
 20
1093.44
 10
319.83
 20
1093.79
 10
319.09
 20
1094.14
 10
318.34
 20
1094.47
 10
317.58
 20
1094.79
 10
316.83
 20
1095.1
 10
316.06
 20
1095.39
 10
315.29
 20
1095.67
 10
314.52
 20
1095.94
 10
313.75
 20
1096.2
 10
312.96
 20
1096.44
 10
312.18
 20
1096.67
 10
311.39
 20
1096.89
 10
310.6
 20
1097.1
 10
309.8
 20
1097.29
 10
309.01
 20
1097.47
 10
308.2
 20
1097.63
 10
307.4
 20
1097.79
 10
306.64
 20
1097.92
 10
317.78
 20
1165.0
 10
428.55
 20
1165.07
 10
335.7
 20
1081.95
 10
335.5
 20
1082.17
 10
334.94
 20
1082.77
  0
LWPOLYLINE
  5
72
330
17
100
AcDbEntity
  8
LOTS
100
AcDbPolyline
 90
48
 70
1
 10
305.79
 20
1098.05
 10
304.98
 20
1098.17
 10
304.16
 20
1098.27
 10
303.35
 20
1098.35
 10
302.54
 20
1098.43
 10
301.72
 20
1098.49
 10
300.9
 20
1098.53
 10
300.09
 20
1098.57
 10
299.27
 20
1098.59
 10
298.45
 20
1098.6
 10
297.63
 20
1098.59
 10
296.81
 20
1098.57
 10
296.0
 20
1098.53
 10
295.18
 20
1098.49
 10
294.36
 20
1098.43
 10
293.55
 20
1098.35
 10
292.74
 20
1098.27
 10
291.92
 20
1098.17
 10
291.11
 20
1098.05
 10
290.31
 20
1097.93
 10
289.5
 20
1097.79
 10
288.7
 20
1097.63
 10
287.89
 20
1097.47
 10
287.1
 20
1097.29
 10
286.3
 20
1097.1
 10
285.51
 20
1096.89
 10
284.72
 20
1096.67
 10
283.94
 20
1096.44
 10
283.16
 20
1096.2
 10
282.38
 20
1095.94
 10
281.61
 20
1095.67
 10
280.84
 20
1095.39
 10
280.07
 20
1095.1
 10
279.32
 20
1094.79
 10
278.56
 20
1094.47
 10
277.82
 20
1094.14
 10
277.07
 20
1093.79
 10
276.34
 20
1093.44
 10
275.61
 20
1093.07
 10
274.88
 20
1092.69
 10
274.16
 20
1092.3
 10
273.98
 20
1092.2
 10
233.15094342993098
 20
1164.9483190172061
 10
265.942186640539
 20
1164.9693738548035
 10
317.78
 20
1165.0
 10
306.64
 20
1097.92
 10
306.6
 20
1097.93
 10
305.79
 20
1098.05
  0
LWPOLYLINE
  5
73
330
17
100
AcDbEntity
  8
LOTS
100
AcDbPolyline
 90
46
 70
1
 10
272.75
 20
1091.48
 10
272.05
 20
1091.06
 10
271.36
 20
1090.62
 10
270.67
 20
1090.17
 10
270.0
 20
1089.71
 10
269.33
 20
1089.24
 10
268.67
 20
1088.76
 10
268.01
 20
1088.26
 10
267.37
 20
1087.76
 10
266.73
 20
1087.25
 10
266.1
 20
1086.72
 10
265.48
 20
1086.19
 10
264.87
 20
1085.64
 10
264.27
 20
1085.09
 10
263.68
 20
1084.52
 10
263.1
 20
1083.95
 10
262.52
 20
1083.37
 10
261.96
 20
1082.77
 10
261.4
 20
1082.17
 10
260.86
 20
1081.56
 10
260.32
 20
1080.94
 10
259.8
 20
1080.31
 10
259.29
 20
1079.68
 10
258.78
 20
1079.03
 10
258.29
 20
1078.38
 10
257.81
 20
1077.72
 10
257.34
 20
1077.05
 10
256.88
 20
1076.37
 10
256.43
 20
1075.69
 10
255.99
 20
1075.0
 10
255.56
 20
1074.3
 10
255.15
 20
1073.6
 10
254.75
 20
1072.88
 10
254.35
 20
1072.17
 10
253.97
 20
1071.44
 10
253.61
 20
1070.71
 10
253.25
 20
1069.97
 10
252.91
 20
1069.23
 10
252.58
 20
1068.48
 10
252.26
 20
1067.73
 10
252.08
 20
1067.3
 10
10.341761250604923
 20
1164.805256092879
 10
233.15094342993098
 20
1164.9483190172061
 10
273.98
 20
1092.2
 10
273.45
 20
1091.9
 10
272.75
 20
1091.48
  0
LWPOLYLINE
  5
74
330
17
100
AcDbEntity
  8
LOTS
100
AcDbPolyline
 90
49
 70
1
 10
251.66
 20
1066.21
 10
251.37
 20
1065.44
 10
251.1
 20
1064.67
 10
250.85
 20
1063.89
 10
250.6
 20
1063.11
 10
250.37
 20
1062.32
 10
250.15
 20
1061.54
 10
249.95
 20
1060.74
 10
249.76
 20
1059.95
 10
249.58
 20
1059.15
 10
249.41
 20
1058.35
 10
249.26
 20
1057.55
 10
249.12
 20
1056.74
 10
248.99
 20
1055.93
 10
248.88
 20
1055.12
 10
248.78
 20
1054.31
 10
248.69
 20
1053.5
 10
248.62
 20
1052.68
 10
248.56
 20
1051.87
 10
248.51
 20
1051.05
 10
248.48
 20
1050.23
 10
248.46
 20
1049.41
 10
248.45
 20
1048.6
 10
248.46
 20
1047.78
 10
248.48
 20
1046.96
 10
248.51
 20
1046.14
 10
248.56
 20
1045.33
 10
248.62
 20
1044.51
 10
248.69
 20
1043.69
 10
248.78
 20
1042.88
 10
248.88
 20
1042.07
 10
248.99
 20
1041.26
 10
249.12
 20
1040.45
 10
249.26
 20
1039.64
 10
249.41
 20
1038.84
 10
249.58
 20
1038.04
 10
249.76
 20
1037.24
 10
249.95
 20
1036.45
 10
250.15
 20
1035.65
 10
250.37
 20
1034.87
 10
250.58
 20
1034.17
 10
71.43
 20
980.2
 10
0.5624511337418793
 20
980.2
 10
0.6468126461998001
 20
1125.8874044407553
 10
0.6699994315147538
 20
1164.799045978396
 10
10.341761250604923
 20
1164.805256092879
 10
252.08
 20
1067.3
 10
251.95
 20
1066.97
 10
251.66
 20
1066.21
  0
LWPOLYLINE
  5
75
330
17
100
AcDbEntity
  8
LOTS
100
AcDbPolyline
 90
47
 70
1
 10
250.85
 20
1033.3
 10
251.1
 20
1032.52
 10
251.37
 20
1031.75
 10
251.66
 20
1030.98
 10
251.95
 20
1030.22
 10
252.26
 20
1029.46
 10
252.58
 20
1028.71
 10
252.91
 20
1027.96
 10
253.25
 20
1027.22
 10
253.61
 20
1026.48
 10
253.97
 20
1025.75
 10
254.35
 20
1025.03
 10
254.75
 20
1024.31
 10
255.15
 20
1023.6
 10
255.56
 20
1022.89
 10
255.99
 20
1022.19
 10
256.43
 20
1021.5
 10
256.88
 20
1020.82
 10
257.34
 20
1020.14
 10
257.81
 20
1019.47
 10
258.29
 20
1018.81
 10
258.78
 20
1018.16
 10
259.29
 20
1017.51
 10
259.8
 20
1016.88
 10
260.32
 20
1016.25
 10
260.86
 20
1015.63
 10
261.4
 20
1015.02
 10
261.96
 20
1014.42
 10
262.52
 20
1013.82
 10
263.1
 20
1013.24
 10
263.68
 20
1012.67
 10
264.27
 20
1012.1
 10
264.87
 20
1011.55
 10
265.48
 20
1011.0
 10
266.1
 20
1010.47
 10
266.73
 20
1009.94
 10
267.37
 20
1009.43
 10
268.01
 20
1008.93
 10
268.67
 20
1008.43
 10
269.33
 20
1007.95
 10
270.0
 20
1007.48
 10
270.13
 20
1007.39
 10
251.44
 20
980.2
 10
71.43
 20
980.2
 10
250.58
 20
1034.17
 10
250.6
 20
1034.08
 10
250.85
 20
1033.3
  0
LWPOLYLINE
  5
76
330
17
100
AcDbEntity
  8
ROADS
100
AcDbPolyline
 90
5
 70
1
 10
284.45
 20
1048.6
 10
312.45
 20
1048.6
 10
312.45
 20
0.07
 10
284.45
 20
0.07
 10
284.45
 20
1048.6
  0
LWPOLYLINE
  5
77
330
17
100
AcDbEntity
  8
CENTERLINE
100
AcDbPolyline
 90
2
 70
0
 10
298.45
 20
0.07
 10
298.45
 20
1048.6
  0
LWPOLYLINE
  5
78
330
17
100
AcDbEntity
  8
ROADS
100
AcDbPolyline
 90
733
 70
1
 10
362.45
 20
1048.77
 10
362.45
 20
1048.43
 10
362.44
 20
1047.61
 10
362.44
 20
1047.44
 10
362.42
 20
1046.62
 10
362.41
 20
1046.45
 10
362.38
 20
1045.63
 10
362.36
 20
1045.28
 10
362.31
 20
1044.47
 10
362.3
 20
1044.31
 10
362.24
 20
1043.49
 10
362.23
 20
1043.32
 10
362.16
 20
1042.5
 10
362.12
 20
1042.14
 10
362.03
 20
1041.33
 10
362.01
 20
1041.16
 10
361.91
 20
1040.35
 10
361.89
 20
1040.19
 10
361.78
 20
1039.38
 10
361.73
 20
1039.04
 10
361.6
 20
1038.23
 10
361.58
 20
1038.07
 10
361.44
 20
1037.26
 10
361.4
 20
1037.06
 10
361.25
 20
1036.26
 10
361.18
 20
1035.93
 10
361.01
 20
1035.13
 10
360.98
 20
1034.97
 10
360.8
 20
1034.17
 10
360.75
 20
1033.97
 10
360.56
 20
1033.18
 10
360.53
 20
1033.05
 10
360.33
 20
1032.25
 10
360.22
 20
1031.85
 10
360.0
 20
1031.07
 10
359.97
 20
1030.96
 10
359.74
 20
1030.17
 10
359.63
 20
1029.81
 10
359.13
 20
1028.25
 10
359.01
 20
1027.89
 10
358.74
 20
1027.12
 10
358.69
 20
1026.97
 10
358.41
 20
1026.2
 10
358.27
 20
1025.84
 10
357.97
 20
1025.08
 10
357.91
 20
1024.93
 10
357.6
 20
1024.17
 10
357.58
 20
1024.11
 10
357.27
 20
1023.36
 10
357.08
 20
1022.93
 10
356.74
 20
1022.18
 10
356.71
 20
1022.11
 10
356.37
 20
1021.37
 10
356.24
 20
1021.1
 10
355.88
 20
1020.36
 10
355.85
 20
1020.29
 10
355.49
 20
1019.56
 10
355.31
 20
1019.22
 10
354.93
 20
1018.5
 10
354.79
 20
1018.23
 10
354.39
 20
1017.51
 10
354.35
 20
1017.44
 10
353.95
 20
1016.73
 10
353.87
 20
1016.6
 10
353.46
 20
1015.89
 10
353.27
 20
1015.56
 10
352.84
 20
1014.86
 10
352.71
 20
1014.66
 10
352.27
 20
1013.97
 10
352.15
 20
1013.77
 10
351.7
 20
1013.09
 10
351.62
 20
1012.98
 10
351.16
 20
1012.3
 10
351.02
 20
1012.1
 10
350.55
 20
1011.43
 10
350.41
 20
1011.24
 10
349.93
 20
1010.58
 10
349.79
 20
1010.38
 10
349.3
 20
1009.73
 10
349.13
 20
1009.52
 10
348.62
 20
1008.87
 10
348.49
 20
1008.7
 10
347.98
 20
1008.07
 10
347.9
 20
1007.97
 10
347.38
 20
1007.34
 10
347.14
 20
1007.06
 10
346.6
 20
1006.44
 10
346.52
 20
1006.35
 10
345.98
 20
1005.74
 10
345.73
 20
1005.47
 10
345.17
 20
1004.87
 10
344.61
 20
1004.27
 10
344.37
 20
1004.01
 10
343.8
 20
1003.43
 10
343.54
 20
1003.17
 10
342.95
 20
1002.6
 10
342.36
 20
1002.03
 10
342.09
 20
1001.78
 10
341.49
 20
1001.23
 10
341.4
 20
1001.15
 10
340.79
 20
1000.6
 10
340.52
 20
1000.36
 10
339.9
 20
999.83
 10
339.81
 20
999.76
 10
339.18
 20
999.23
 10
338.89
 20
998.99
 10
338.25
 20
998.48
 10
338.15
 20
998.4
 10
337.51
 20
997.9
 10
337.43
 20
997.83
 10
336.78
 20
997.33
 10
336.39
 20
997.05
 10
335.72
 20
996.57
 10
335.69
 20
996.55
 10
335.03
 20
996.08
 10
334.75
 20
995.88
 10
334.07
 20
995.42
 10
333.88
 20
995.29
 10
333.19
 20
994.84
 10
332.94
 20
994.69
 10
332.25
 20
994.26
 10
331.56
 20
993.83
 10
331.29
 20
993.66
 10
330.58
 20
993.24
 10
330.32
 20
993.09
 10
329.61
 20
992.69
 10
329.41
 20
992.58
 10
328.69
 20
992.19
 10
328.55
 20
992.12
 10
327.83
 20
991.74
 10
327.56
 20
991.6
 10
326.82
 20
991.23
 10
326.61
 20
991.13
 10
325.88
 20
990.78
 10
325.82
 20
990.74
 10
325.08
 20
990.39
 10
324.73
 20
990.24
 10
323.98
 20
989.91
 10
323.77
 20
989.82
 10
323.01
 20
989.5
 10
322.93
 20
989.46
 10
322.18
 20
989.15
 10
321.76
 20
988.99
 10
320.99
 20
988.7
 10
320.84
 20
988.64
 10
320.07
 20
988.36
 10
319.92
 20
988.31
 10
319.15
 20
988.04
 10
319.0
 20
987.99
 10
318.23
 20
987.73
 10
317.82
 20
987.59
 10
317.03
 20
987.35
 10
316.92
 20
987.32
 10
316.14
 20
987.09
 10
315.94
 20
987.03
 10
315.15
 20
986.81
 10
314.99
 20
986.77
 10
314.2
 20
986.56
 10
313.84
 20
986.47
 10
313.04
 20
986.28
 10
312.91
 20
986.25
 10
312.12
 20
986.07
 10
311.72
 20
985.99
 10
310.93
 20
985.83
 10
310.15
 20
985.67
 10
309.81
 20
985.61
 10
309.01
 20
985.47
 10
308.65
 20
985.41
 10
307.03
 20
985.17
 10
306.67
 20
985.12
 10
305.85
 20
985.02
 10
305.54
 20
984.99
 10
304.73
 20
984.91
 10
303.92
 20
984.83
 10
303.56
 20
984.8
 10
302.74
 20
984.74
 10
302.4
 20
984.72
 10
301.59
 20
984.68
 10
300.78
 20
984.64
 10
300.43
 20
984.62
 10
299.61
 20
984.6
 10
299.27
 20
984.6
 10
297.63
 20
984.6
 10
297.29
 20
984.6
 10
296.47
 20
984.62
 10
296.12
 20
984.64
 10
295.31
 20
984.68
 10
294.5
 20
984.72
 10
294.16
 20
984.74
 10
293.34
 20
984.8
 10
292.98
 20
984.83
 10
292.17
 20
984.91
 10
291.36
 20
984.99
 10
291.05
 20
985.02
 10
290.23
 20
985.12
 10
289.87
 20
985.17
 10
289.06
 20
985.29
 10
289.03
 20
985.29
 10
288.23
 20
985.41
 10
287.93
 20
985.46
 10
287.12
 20
985.6
 10
286.75
 20
985.67
 10
285.97
 20
985.83
 10
285.18
 20
985.99
 10
284.78
 20
986.07
 10
283.99
 20
986.25
 10
283.86
 20
986.28
 10
283.06
 20
986.47
 10
282.7
 20
986.56
 10
281.91
 20
986.77
 10
281.75
 20
986.81
 10
280.96
 20
987.03
 10
280.76
 20
987.09
 10
279.98
 20
987.32
 10
279.82
 20
987.37
 10
279.04
 20
987.61
 10
278.73
 20
987.71
 10
277.95
 20
987.97
 10
277.75
 20
988.04
 10
276.98
 20
988.31
 10
276.83
 20
988.36
 10
276.06
 20
988.64
 10
275.91
 20
988.7
 10
275.14
 20
988.99
 10
274.72
 20
989.15
 10
273.97
 20
989.46
 10
273.89
 20
989.5
 10
273.13
 20
989.82
 10
272.86
 20
989.93
 10
272.12
 20
990.26
 10
271.9
 20
990.36
 10
271.15
 20
990.71
 10
271.02
 20
990.78
 10
270.29
 20
991.13
 10
270.01
 20
991.26
 10
269.28
 20
991.63
 10
269.15
 20
991.7
 10
268.42
 20
992.08
 10
268.21
 20
992.19
 10
267.49
 20
992.58
 10
267.29
 20
992.69
 10
266.58
 20
993.09
 10
266.25
 20
993.29
 10
265.55
 20
993.71
 10
265.42
 20
993.78
 10
264.72
 20
994.21
 10
264.65
 20
994.26
 10
263.96
 20
994.69
 10
263.71
 20
994.84
 10
263.02
 20
995.29
 10
262.75
 20
995.48
 10
262.08
 20
995.94
 10
261.96
 20
996.02
 10
261.29
 20
996.49
 10
261.1
 20
996.63
 10
260.44
 20
997.11
 10
260.22
 20
997.27
 10
259.56
 20
997.77
 10
259.39
 20
997.9
 10
258.75
 20
998.4
 10
258.65
 20
998.48
 10
258.01
 20
998.99
 10
257.72
 20
999.23
 10
257.09
 20
999.76
 10
257.0
 20
999.83
 10
256.38
 20
1000.36
 10
256.11
 20
1000.6
 10
255.5
 20
1001.15
 10
255.41
 20
1001.23
 10
254.81
 20
1001.78
 10
254.54
 20
1002.03
 10
253.95
 20
1002.6
 10
253.87
 20
1002.68
 10
253.29
 20
1003.25
 10
253.2
 20
1003.34
 10
252.62
 20
1003.92
 10
252.29
 20
1004.27
 10
251.73
 20
1004.87
 10
251.17
 20
1005.47
 10
250.92
 20
1005.74
 10
250.38
 20
1006.35
 10
250.3
 20
1006.44
 10
249.76
 20
1007.06
 10
249.52
 20
1007.34
 10
249.0
 20
1007.97
 10
248.92
 20
1008.07
 10
248.41
 20
1008.7
 10
248.28
 20
1008.87
 10
247.77
 20
1009.52
 10
247.6
 20
1009.73
 10
247.11
 20
1010.38
 10
246.97
 20
1010.58
 10
246.49
 20
1011.24
 10
246.35
 20
1011.43
 10
245.88
 20
1012.1
 10
245.74
 20
1012.3
 10
245.28
 20
1012.98
 10
245.2
 20
1013.09
 10
244.75
 20
1013.77
 10
244.63
 20
1013.97
 10
244.19
 20
1014.66
 10
244.06
 20
1014.86
 10
243.63
 20
1015.56
 10
243.44
 20
1015.89
 10
243.03
 20
1016.6
 10
242.95
 20
1016.73
 10
242.55
 20
1017.44
 10
242.51
 20
1017.51
 10
242.11
 20
1018.23
 10
241.97
 20
1018.5
 10
241.59
 20
1019.22
 10
241.41
 20
1019.56
 10
241.05
 20
1020.29
 10
241.02
 20
1020.36
 10
240.66
 20
1021.1
 10
240.53
 20
1021.37
 10
240.19
 20
1022.11
 10
240.1
 20
1022.32
 10
239.77
 20
1023.07
 10
239.7
 20
1023.22
 10
239.38
 20
1023.97
 10
239.3
 20
1024.17
 10
238.99
 20
1024.93
 10
238.87
 20
1025.23
 10
238.58
 20
1025.99
 10
238.56
 20
1026.05
 10
238.27
 20
1026.82
 10
238.16
 20
1027.12
 10
237.89
 20
1027.89
 10
237.77
 20
1028.25
 10
237.27
 20
1029.81
 10
237.16
 20
1030.17
 10
236.93
 20
1030.96
 10
236.9
 20
1031.07
 10
236.68
 20
1031.85
 10
236.57
 20
1032.25
 10
236.37
 20
1033.05
 10
236.34
 20
1033.18
 10
236.15
 20
1033.97
 10
236.1
 20
1034.17
 10
235.92
 20
1034.97
 10
235.89
 20
1035.13
 10
235.72
 20
1035.93
 10
235.65
 20
1036.26
 10
235.5
 20
1037.06
 10
235.46
 20
1037.26
 10
235.32
 20
1038.07
 10
235.3
 20
1038.23
 10
235.17
 20
1039.04
 10
235.12
 20
1039.38
 10
235.01
 20
1040.19
 10
234.99
 20
1040.35
 10
234.89
 20
1041.16
 10
234.87
 20
1041.33
 10
234.78
 20
1042.14
 10
234.74
 20
1042.5
 10
234.67
 20
1043.32
 10
234.66
 20
1043.49
 10
234.6
 20
1044.31
 10
234.59
 20
1044.47
 10
234.54
 20
1045.28
 10
234.52
 20
1045.63
 10
234.49
 20
1046.45
 10
234.48
 20
1046.62
 10
234.46
 20
1047.44
 10
234.46
 20
1047.61
 10
234.45
 20
1048.43
 10
234.45
 20
1048.77
 10
234.46
 20
1049.58
 10
234.46
 20
1049.75
 10
234.48
 20
1050.57
 10
234.49
 20
1050.74
 10
234.52
 20
1051.56
 10
234.54
 20
1051.9
 10
234.59
 20
1052.72
 10
234.6
 20
1052.9
 10
234.66
 20
1053.71
 10
234.67
 20
1053.87
 10
234.74
 20
1054.69
 10
234.78
 20
1055.05
 10
234.87
 20
1055.86
 10
234.89
 20
1056.03
 10
234.99
 20
1056.84
 10
235.01
 20
1057.0
 10
235.12
 20
1057.81
 10
235.17
 20
1058.15
 10
235.3
 20
1058.96
 10
235.32
 20
1059.12
 10
235.46
 20
1059.93
 10
235.5
 20
1060.13
 10
235.65
 20
1060.93
 10
235.72
 20
1061.26
 10
235.89
 20
1062.06
 10
235.92
 20
1062.22
 10
236.1
 20
1063.02
 10
236.15
 20
1063.22
 10
236.34
 20
1064.01
 10
236.37
 20
1064.14
 10
236.57
 20
1064.94
 10
236.68
 20
1065.34
 10
236.9
 20
1066.12
 10
236.93
 20
1066.23
 10
237.16
 20
1067.02
 10
237.27
 20
1067.38
 10
237.52
 20
1068.16
 10
237.77
 20
1068.94
 10
237.89
 20
1069.3
 10
238.16
 20
1070.07
 10
238.27
 20
1070.37
 10
238.56
 20
1071.14
 10
238.58
 20
1071.2
 10
238.87
 20
1071.96
 10
238.99
 20
1072.26
 10
239.3
 20
1073.02
 10
239.38
 20
1073.22
 10
239.7
 20
1073.97
 10
239.77
 20
1074.12
 10
240.1
 20
1074.87
 10
240.19
 20
1075.08
 10
240.53
 20
1075.82
 10
240.66
 20
1076.09
 10
241.02
 20
1076.83
 10
241.05
 20
1076.9
 10
241.41
 20
1077.63
 10
241.55
 20
1077.9
 10
241.93
 20
1078.63
 10
242.15
 20
1079.04
 10
242.53
 20
1079.72
 10
242.91
 20
1080.4
 10
243.07
 20
1080.68
 10
243.48
 20
1081.38
 10
243.63
 20
1081.63
 10
244.06
 20
1082.33
 10
244.19
 20
1082.53
 10
244.63
 20
1083.22
 10
244.75
 20
1083.42
 10
245.2
 20
1084.1
 10
245.28
 20
1084.21
 10
245.74
 20
1084.89
 10
245.88
 20
1085.09
 10
246.35
 20
1085.76
 10
246.49
 20
1085.95
 10
246.97
 20
1086.61
 10
247.11
 20
1086.81
 10
247.6
 20
1087.46
 10
247.77
 20
1087.67
 10
248.28
 20
1088.32
 10
248.41
 20
1088.49
 10
248.92
 20
1089.12
 10
249.0
 20
1089.22
 10
249.52
 20
1089.85
 10
249.76
 20
1090.13
 10
250.3
 20
1090.75
 10
250.38
 20
1090.84
 10
250.92
 20
1091.45
 10
251.17
 20
1091.72
 10
252.29
 20
1092.92
 10
252.62
 20
1093.27
 10
253.2
 20
1093.85
 10
253.29
 20
1093.94
 10
253.87
 20
1094.51
 10
253.95
 20
1094.59
 10
254.54
 20
1095.16
 10
254.81
 20
1095.41
 10
255.41
 20
1095.96
 10
255.5
 20
1096.04
 10
256.11
 20
1096.59
 10
256.38
 20
1096.83
 10
257.0
 20
1097.36
 10
257.09
 20
1097.43
 10
257.72
 20
1097.96
 10
258.01
 20
1098.2
 10
258.65
 20
1098.71
 10
258.75
 20
1098.79
 10
259.39
 20
1099.29
 10
259.56
 20
1099.42
 10
260.22
 20
1099.92
 10
260.44
 20
1100.08
 10
261.1
 20
1100.56
 10
261.29
 20
1100.7
 10
261.96
 20
1101.17
 10
262.08
 20
1101.25
 10
262.75
 20
1101.71
 10
263.02
 20
1101.9
 10
263.71
 20
1102.35
 10
263.83
 20
1102.42
 10
264.52
 20
1102.86
 10
264.85
 20
1103.06
 10
266.25
 20
1103.9
 10
266.58
 20
1104.1
 10
267.29
 20
1104.5
 10
267.49
 20
1104.61
 10
268.21
 20
1105.0
 10
268.42
 20
1105.11
 10
269.15
 20
1105.49
 10
269.28
 20
1105.56
 10
270.01
 20
1105.93
 10
270.29
 20
1106.06
 10
271.02
 20
1106.41
 10
271.15
 20
1106.48
 10
271.9
 20
1106.83
 10
272.12
 20
1106.93
 10
272.86
 20
1107.26
 10
273.13
 20
1107.37
 10
273.89
 20
1107.69
 10
273.97
 20
1107.73
 10
274.72
 20
1108.04
 10
275.14
 20
1108.2
 10
275.91
 20
1108.49
 10
276.06
 20
1108.55
 10
276.83
 20
1108.83
 10
276.98
 20
1108.88
 10
277.75
 20
1109.15
 10
277.95
 20
1109.22
 10
278.73
 20
1109.48
 10
279.04
 20
1109.58
 10
279.82
 20
1109.82
 10
279.98
 20
1109.87
 10
280.76
 20
1110.1
 10
280.96
 20
1110.16
 10
281.75
 20
1110.38
 10
281.91
 20
1110.42
 10
282.7
 20
1110.63
 10
283.06
 20
1110.72
 10
283.86
 20
1110.91
 10
283.99
 20
1110.94
 10
284.78
 20
1111.12
 10
285.18
 20
1111.2
 10
285.97
 20
1111.36
 10
286.75
 20
1111.52
 10
287.12
 20
1111.59
 10
287.93
 20
1111.73
 10
288.23
 20
1111.78
 10
289.03
 20
1111.9
 10
289.06
 20
1111.9
 10
289.87
 20
1112.02
 10
290.23
 20
1112.07
 10
291.05
 20
1112.17
 10
291.36
 20
1112.2
 10
292.17
 20
1112.28
 10
292.98
 20
1112.36
 10
293.34
 20
1112.39
 10
294.16
 20
1112.45
 10
294.5
 20
1112.47
 10
295.31
 20
1112.51
 10
296.12
 20
1112.55
 10
296.47
 20
1112.57
 10
297.29
 20
1112.59
 10
297.46
 20
1112.59
 10
298.28
 20
1112.6
 10
298.62
 20
1112.6
 10
299.44
 20
1112.59
 10
299.61
 20
1112.59
 10
300.43
 20
1112.57
 10
300.78
 20
1112.55
 10
301.59
 20
1112.51
 10
302.4
 20
1112.47
 10
302.74
 20
1112.45
 10
303.56
 20
1112.39
 10
303.92
 20
1112.36
 10
304.73
 20
1112.28
 10
305.54
 20
1112.2
 10
305.85
 20
1112.17
 10
306.67
 20
1112.07
 10
307.03
 20
1112.02
 10
307.84
 20
1111.9
 10
308.65
 20
1111.78
 10
309.01
 20
1111.72
 10
309.81
 20
1111.58
 10
310.15
 20
1111.52
 10
310.93
 20
1111.36
 10
311.72
 20
1111.2
 10
312.12
 20
1111.12
 10
312.91
 20
1110.94
 10
313.04
 20
1110.91
 10
313.84
 20
1110.72
 10
314.2
 20
1110.63
 10
314.99
 20
1110.42
 10
315.15
 20
1110.38
 10
315.94
 20
1110.16
 10
316.14
 20
1110.1
 10
316.92
 20
1109.87
 10
317.03
 20
1109.84
 10
317.82
 20
1109.6
 10
318.23
 20
1109.46
 10
319.0
 20
1109.2
 10
319.15
 20
1109.15
 10
319.92
 20
1108.88
 10
320.07
 20
1108.83
 10
320.84
 20
1108.55
 10
320.99
 20
1108.49
 10
321.76
 20
1108.2
 10
322.18
 20
1108.04
 10
322.93
 20
1107.73
 10
323.01
 20
1107.69
 10
323.77
 20
1107.37
 10
323.98
 20
1107.28
 10
324.73
 20
1106.95
 10
325.08
 20
1106.8
 10
325.82
 20
1106.45
 10
325.88
 20
1106.41
 10
326.61
 20
1106.06
 10
326.82
 20
1105.96
 10
327.56
 20
1105.59
 10
327.83
 20
1105.45
 10
328.55
 20
1105.07
 10
328.69
 20
1105.0
 10
329.41
 20
1104.61
 10
329.61
 20
1104.5
 10
330.32
 20
1104.1
 10
330.58
 20
1103.95
 10
331.29
 20
1103.53
 10
331.44
 20
1103.44
 10
332.13
 20
1103.02
 10
332.38
 20
1102.86
 10
333.07
 20
1102.42
 10
333.19
 20
1102.35
 10
333.88
 20
1101.9
 10
334.07
 20
1101.77
 10
334.75
 20
1101.31
 10
335.03
 20
1101.11
 10
335.69
 20
1100.64
 10
335.72
 20
1100.62
 10
336.39
 20
1100.14
 10
336.78
 20
1099.86
 10
337.43
 20
1099.36
 10
337.51
 20
1099.29
 10
338.15
 20
1098.79
 10
338.25
 20
1098.71
 10
338.89
 20
1098.2
 10
339.18
 20
1097.96
 10
339.81
 20
1097.43
 10
339.9
 20
1097.36
 10
340.52
 20
1096.83
 10
340.79
 20
1096.59
 10
341.4
 20
1096.04
 10
341.49
 20
1095.96
 10
342.09
 20
1095.41
 10
342.36
 20
1095.16
 10
342.95
 20
1094.59
 10
343.54
 20
1094.02
 10
343.8
 20
1093.76
 10
344.37
 20
1093.18
 10
344.61
 20
1092.92
 10
345.73
 20
1091.72
 10
345.98
 20
1091.45
 10
346.52
 20
1090.84
 10
346.6
 20
1090.75
 10
347.14
 20
1090.13
 10
347.38
 20
1089.85
 10
347.9
 20
1089.22
 10
347.98
 20
1089.12
 10
348.49
 20
1088.49
 10
348.62
 20
1088.32
 10
349.13
 20
1087.67
 10
349.3
 20
1087.46
 10
349.79
 20
1086.81
 10
349.93
 20
1086.61
 10
350.41
 20
1085.95
 10
350.55
 20
1085.76
 10
351.02
 20
1085.09
 10
351.16
 20
1084.89
 10
351.62
 20
1084.21
 10
351.7
 20
1084.1
 10
352.15
 20
1083.42
 10
352.27
 20
1083.22
 10
352.71
 20
1082.53
 10
352.84
 20
1082.33
 10
353.27
 20
1081.63
 10
353.42
 20
1081.38
 10
353.83
 20
1080.68
 10
353.99
 20
1080.4
 10
354.37
 20
1079.72
 10
354.75
 20
1079.04
 10
354.97
 20
1078.63
 10
355.35
 20
1077.9
 10
355.49
 20
1077.63
 10
355.85
 20
1076.9
 10
355.88
 20
1076.83
 10
356.24
 20
1076.09
 10
356.37
 20
1075.82
 10
356.71
 20
1075.08
 10
356.74
 20
1075.01
 10
357.08
 20
1074.26
 10
357.27
 20
1073.83
 10
357.58
 20
1073.08
 10
357.6
 20
1073.02
 10
357.91
 20
1072.26
 10
357.97
 20
1072.11
 10
358.27
 20
1071.35
 10
358.41
 20
1070.99
 10
358.69
 20
1070.22
 10
358.74
 20
1070.07
 10
359.01
 20
1069.3
 10
359.13
 20
1068.94
 10
359.38
 20
1068.16
 10
359.63
 20
1067.38
 10
359.74
 20
1067.02
 10
359.97
 20
1066.23
 10
360.0
 20
1066.12
 10
360.22
 20
1065.34
 10
360.33
 20
1064.94
 10
360.53
 20
1064.14
 10
360.56
 20
1064.01
 10
360.75
 20
1063.22
 10
360.8
 20
1063.02
 10
360.98
 20
1062.22
 10
361.01
 20
1062.06
 10
361.18
 20
1061.26
 10
361.25
 20
1060.93
 10
361.4
 20
1060.13
 10
361.44
 20
1059.93
 10
361.58
 20
1059.12
 10
361.6
 20
1058.96
 10
361.73
 20
1058.15
 10
361.78
 20
1057.81
 10
361.89
 20
1057.0
 10
361.91
 20
1056.84
 10
362.01
 20
1056.03
 10
362.03
 20
1055.86
 10
362.12
 20
1055.05
 10
362.16
 20
1054.69
 10
362.23
 20
1053.87
 10
362.24
 20
1053.71
 10
362.3
 20
1052.9
 10
362.31
 20
1052.72
 10
362.36
 20
1051.9
 10
362.38
 20
1051.56
 10
362.41
 20
1050.74
 10
362.42
 20
1050.57
 10
362.44
 20
1049.75
 10
362.44
 20
1049.58
 10
362.45
 20
1048.77
  0
LWPOLYLINE
  5
79
330
17
100
AcDbEntity
  8
CENTERLINE
100
AcDbPolyline
 90
385
 70
0
 10
348.45
 20
1048.6
 10
348.44
 20
1047.78
 10
348.42
 20
1046.96
 10
348.39
 20
1046.14
 10
348.34
 20
1045.33
 10
348.28
 20
1044.51
 10
348.21
 20
1043.69
 10
348.12
 20
1042.88
 10
348.02
 20
1042.07
 10
347.91
 20
1041.26
 10
347.78
 20
1040.45
 10
347.64
 20
1039.64
 10
347.49
 20
1038.84
 10
347.32
 20
1038.04
 10
347.14
 20
1037.24
 10
346.95
 20
1036.45
 10
346.75
 20
1035.65
 10
346.53
 20
1034.87
 10
346.3
 20
1034.08
 10
346.05
 20
1033.3
 10
345.8
 20
1032.52
 10
345.53
 20
1031.75
 10
345.25
 20
1030.98
 10
344.95
 20
1030.22
 10
344.64
 20
1029.46
 10
344.33
 20
1028.71
 10
343.99
 20
1027.96
 10
343.65
 20
1027.22
 10
343.29
 20
1026.48
 10
342.93
 20
1025.75
 10
342.55
 20
1025.03
 10
342.15
 20
1024.31
 10
341.75
 20
1023.6
 10
341.34
 20
1022.89
 10
340.91
 20
1022.19
 10
340.47
 20
1021.5
 10
340.02
 20
1020.82
 10
339.56
 20
1020.14
 10
339.09
 20
1019.47
 10
338.61
 20
1018.81
 10
338.12
 20
1018.16
 10
337.61
 20
1017.51
 10
337.1
 20
1016.88
 10
336.58
 20
1016.25
 10
336.04
 20
1015.63
 10
335.5
 20
1015.02
 10
334.94
 20
1014.42
 10
334.38
 20
1013.82
 10
333.81
 20
1013.24
 10
333.22
 20
1012.67
 10
332.63
 20
1012.1
 10
332.03
 20
1011.55
 10
331.42
 20
1011.0
 10
330.8
 20
1010.47
 10
330.17
 20
1009.94
 10
329.53
 20
1009.43
 10
328.89
 20
1008.93
 10
328.24
 20
1008.43
 10
327.57
 20
1007.95
 10
326.91
 20
1007.48
 10
326.23
 20
1007.02
 10
325.54
 20
1006.57
 10
324.85
 20
1006.14
 10
324.16
 20
1005.71
 10
323.45
 20
1005.29
 10
322.74
 20
1004.89
 10
322.02
 20
1004.5
 10
321.3
 20
1004.12
 10
320.56
 20
1003.75
 10
319.83
 20
1003.4
 10
319.09
 20
1003.05
 10
318.34
 20
1002.72
 10
317.58
 20
1002.4
 10
316.83
 20
1002.09
 10
316.06
 20
1001.8
 10
315.29
 20
1001.52
 10
314.52
 20
1001.25
 10
313.75
 20
1000.99
 10
312.96
 20
1000.75
 10
312.18
 20
1000.52
 10
311.39
 20
1000.3
 10
310.6
 20
1000.09
 10
309.8
 20
999.9
 10
309.01
 20
999.72
 10
308.2
 20
999.56
 10
307.4
 20
999.4
 10
306.6
 20
999.26
 10
305.79
 20
999.14
 10
304.98
 20
999.02
 10
304.16
 20
998.92
 10
303.35
 20
998.84
 10
302.54
 20
998.76
 10
301.72
 20
998.7
 10
300.9
 20
998.66
 10
300.09
 20
998.62
 10
299.27
 20
998.6
 10
298.45
 20
998.6
 10
297.63
 20
998.6
 10
296.81
 20
998.62
 10
296.0
 20
998.66
 10
295.18
 20
998.7
 10
294.36
 20
998.76
 10
293.55
 20
998.84
 10
292.74
 20
998.92
 10
291.92
 20
999.02
 10
291.11
 20
999.14
 10
290.31
 20
999.26
 10
289.5
 20
999.4
 10
288.7
 20
999.56
 10
287.89
 20
999.72
 10
287.1
 20
999.9
 10
286.3
 20
1000.09
 10
285.51
 20
1000.3
 10
284.72
 20
1000.52
 10
283.94
 20
1000.75
 10
283.16
 20
1000.99
 10
282.38
 20
1001.25
 10
281.61
 20
1001.52
 10
280.84
 20
1001.8
 10
280.07
 20
1002.09
 10
279.32
 20
1002.4
 10
278.56
 20
1002.72
 10
277.82
 20
1003.05
 10
277.07
 20
1003.4
 10
276.34
 20
1003.75
 10
275.61
 20
1004.12
 10
274.88
 20
1004.5
 10
274.16
 20
1004.89
 10
273.45
 20
1005.29
 10
272.75
 20
1005.71
 10
272.05
 20
1006.14
 10
271.36
 20
1006.57
 10
270.67
 20
1007.02
 10
270.0
 20
1007.48
 10
269.33
 20
1007.95
 10
268.67
 20
1008.43
 10
268.01
 20
1008.93
 10
267.37
 20
1009.43
 10
266.73
 20
1009.94
 10
266.1
 20
1010.47
 10
265.48
 20
1011.0
 10
264.87
 20
1011.55
 10
264.27
 20
1012.1
 10
263.68
 20
1012.67
 10
263.1
 20
1013.24
 10
262.52
 20
1013.82
 10
261.96
 20
1014.42
 10
261.4
 20
1015.02
 10
260.86
 20
1015.63
 10
260.32
 20
1016.25
 10
259.8
 20
1016.88
 10
259.29
 20
1017.51
 10
258.78
 20
1018.16
 10
258.29
 20
1018.81
 10
257.81
 20
1019.47
 10
257.34
 20
1020.14
 10
256.88
 20
1020.82
 10
256.43
 20
1021.5
 10
255.99
 20
1022.19
 10
255.56
 20
1022.89
 10
255.15
 20
1023.6
 10
254.75
 20
1024.31
 10
254.35
 20
1025.03
 10
253.97
 20
1025.75
 10
253.61
 20
1026.48
 10
253.25
 20
1027.22
 10
252.91
 20
1027.96
 10
252.58
 20
1028.71
 10
252.26
 20
1029.46
 10
251.95
 20
1030.22
 10
251.66
 20
1030.98
 10
251.37
 20
1031.75
 10
251.1
 20
1032.52
 10
250.85
 20
1033.3
 10
250.6
 20
1034.08
 10
250.37
 20
1034.87
 10
250.15
 20
1035.65
 10
249.95
 20
1036.45
 10
249.76
 20
1037.24
 10
249.58
 20
1038.04
 10
249.41
 20
1038.84
 10
249.26
 20
1039.64
 10
249.12
 20
1040.45
 10
248.99
 20
1041.26
 10
248.88
 20
1042.07
 10
248.78
 20
1042.88
 10
248.69
 20
1043.69
 10
248.62
 20
1044.51
 10
248.56
 20
1045.33
 10
248.51
 20
1046.14
 10
248.48
 20
1046.96
 10
248.46
 20
1047.78
 10
248.45
 20
1048.6
 10
248.46
 20
1049.41
 10
248.48
 20
1050.23
 10
248.51
 20
1051.05
 10
248.56
 20
1051.87
 10
248.62
 20
1052.68
 10
248.69
 20
1053.5
 10
248.78
 20
1054.31
 10
248.88
 20
1055.12
 10
248.99
 20
1055.93
 10
249.12
 20
1056.74
 10
249.26
 20
1057.55
 10
249.41
 20
1058.35
 10
249.58
 20
1059.15
 10
249.76
 20
1059.95
 10
249.95
 20
1060.74
 10
250.15
 20
1061.54
 10
250.37
 20
1062.32
 10
250.6
 20
1063.11
 10
250.85
 20
1063.89
 10
251.1
 20
1064.67
 10
251.37
 20
1065.44
 10
251.66
 20
1066.21
 10
251.95
 20
1066.97
 10
252.26
 20
1067.73
 10
252.58
 20
1068.48
 10
252.91
 20
1069.23
 10
253.25
 20
1069.97
 10
253.61
 20
1070.71
 10
253.97
 20
1071.44
 10
254.35
 20
1072.17
 10
254.75
 20
1072.88
 10
255.15
 20
1073.6
 10
255.56
 20
1074.3
 10
255.99
 20
1075.0
 10
256.43
 20
1075.69
 10
256.88
 20
1076.37
 10
257.34
 20
1077.05
 10
257.81
 20
1077.72
 10
258.29
 20
1078.38
 10
258.78
 20
1079.03
 10
259.29
 20
1079.68
 10
259.8
 20
1080.31
 10
260.32
 20
1080.94
 10
260.86
 20
1081.56
 10
261.4
 20
1082.17
 10
261.96
 20
1082.77
 10
262.52
 20
1083.37
 10
263.1
 20
1083.95
 10
263.68
 20
1084.52
 10
264.27
 20
1085.09
 10
264.87
 20
1085.64
 10
265.48
 20
1086.19
 10
266.1
 20
1086.72
 10
266.73
 20
1087.25
 10
267.37
 20
1087.76
 10
268.01
 20
1088.26
 10
268.67
 20
1088.76
 10
269.33
 20
1089.24
 10
270.0
 20
1089.71
 10
270.67
 20
1090.17
 10
271.36
 20
1090.62
 10
272.05
 20
1091.06
 10
272.75
 20
1091.48
 10
273.45
 20
1091.9
 10
274.16
 20
1092.3
 10
274.88
 20
1092.69
 10
275.61
 20
1093.07
 10
276.34
 20
1093.44
 10
277.07
 20
1093.79
 10
277.82
 20
1094.14
 10
278.56
 20
1094.47
 10
279.32
 20
1094.79
 10
280.07
 20
1095.1
 10
280.84
 20
1095.39
 10
281.61
 20
1095.67
 10
282.38
 20
1095.94
 10
283.16
 20
1096.2
 10
283.94
 20
1096.44
 10
284.72
 20
1096.67
 10
285.51
 20
1096.89
 10
286.3
 20
1097.1
 10
287.1
 20
1097.29
 10
287.89
 20
1097.47
 10
288.7
 20
1097.63
 10
289.5
 20
1097.79
 10
290.31
 20
1097.93
 10
291.11
 20
1098.05
 10
291.92
 20
1098.17
 10
292.74
 20
1098.27
 10
293.55
 20
1098.35
 10
294.36
 20
1098.43
 10
295.18
 20
1098.49
 10
296.0
 20
1098.53
 10
296.81
 20
1098.57
 10
297.63
 20
1098.59
 10
298.45
 20
1098.6
 10
299.27
 20
1098.59
 10
300.09
 20
1098.57
 10
300.9
 20
1098.53
 10
301.72
 20
1098.49
 10
302.54
 20
1098.43
 10
303.35
 20
1098.35
 10
304.16
 20
1098.27
 10
304.98
 20
1098.17
 10
305.79
 20
1098.05
 10
306.6
 20
1097.93
 10
307.4
 20
1097.79
 10
308.2
 20
1097.63
 10
309.01
 20
1097.47
 10
309.8
 20
1097.29
 10
310.6
 20
1097.1
 10
311.39
 20
1096.89
 10
312.18
 20
1096.67
 10
312.96
 20
1096.44
 10
313.75
 20
1096.2
 10
314.52
 20
1095.94
 10
315.29
 20
1095.67
 10
316.06
 20
1095.39
 10
316.83
 20
1095.1
 10
317.58
 20
1094.79
 10
318.34
 20
1094.47
 10
319.09
 20
1094.14
 10
319.83
 20
1093.79
 10
320.56
 20
1093.44
 10
321.3
 20
1093.07
 10
322.02
 20
1092.69
 10
322.74
 20
1092.3
 10
323.45
 20
1091.9
 10
324.16
 20
1091.48
 10
324.85
 20
1091.06
 10
325.54
 20
1090.62
 10
326.23
 20
1090.17
 10
326.91
 20
1089.71
 10
327.57
 20
1089.24
 10
328.24
 20
1088.76
 10
328.89
 20
1088.26
 10
329.53
 20
1087.76
 10
330.17
 20
1087.25
 10
330.8
 20
1086.72
 10
331.42
 20
1086.19
 10
332.03
 20
1085.64
 10
332.63
 20
1085.09
 10
333.22
 20
1084.52
 10
333.81
 20
1083.95
 10
334.38
 20
1083.37
 10
334.94
 20
1082.77
 10
335.5
 20
1082.17
 10
336.04
 20
1081.56
 10
336.58
 20
1080.94
 10
337.1
 20
1080.31
 10
337.61
 20
1079.68
 10
338.12
 20
1079.03
 10
338.61
 20
1078.38
 10
339.09
 20
1077.72
 10
339.56
 20
1077.05
 10
340.02
 20
1076.37
 10
340.47
 20
1075.69
 10
340.91
 20
1075.0
 10
341.34
 20
1074.3
 10
341.75
 20
1073.6
 10
342.15
 20
1072.88
 10
342.55
 20
1072.17
 10
342.93
 20
1071.44
 10
343.29
 20
1070.71
 10
343.65
 20
1069.97
 10
343.99
 20
1069.23
 10
344.33
 20
1068.48
 10
344.64
 20
1067.73
 10
344.95
 20
1066.97
 10
345.25
 20
1066.21
 10
345.53
 20
1065.44
 10
345.8
 20
1064.67
 10
346.05
 20
1063.89
 10
346.3
 20
1063.11
 10
346.53
 20
1062.32
 10
346.75
 20
1061.54
 10
346.95
 20
1060.74
 10
347.14
 20
1059.95
 10
347.32
 20
1059.15
 10
347.49
 20
1058.35
 10
347.64
 20
1057.55
 10
347.78
 20
1056.74
 10
347.91
 20
1055.93
 10
348.02
 20
1055.12
 10
348.12
 20
1054.31
 10
348.21
 20
1053.5
 10
348.28
 20
1052.68
 10
348.34
 20
1051.87
 10
348.39
 20
1051.05
 10
348.42
 20
1050.23
 10
348.44
 20
1049.41
 10
348.45
 20
1048.6
  0
ENDSEC
  0
SECTION
  2
OBJECTS
  0
DICTIONARY
  5
A
330
0
100
AcDbDictionary
281
1
  3
ACAD_COLOR
350
B
  3
ACAD_GROUP
350
C
  3
ACAD_LAYOUT
350
D
  3
ACAD_MATERIAL
350
E
  3
ACAD_MLEADERSTYLE
350
F
  3
ACAD_MLINESTYLE
350
10
  3
ACAD_PLOTSETTINGS
350
11
  3
ACAD_PLOTSTYLENAME
350
12
  3
ACAD_SCALELIST
350
14
  3
ACAD_TABLESTYLE
350
15
  3
ACAD_VISUALSTYLE
350
16
  3
EZDXF_META
350
2D
  0
DICTIONARY
  5
B
330
A
100
AcDbDictionary
281
1
  0
DICTIONARY
  5
C
330
A
100
AcDbDictionary
281
1
  0
DICTIONARY
  5
D
330
A
100
AcDbDictionary
281
1
  3
Model
350
1A
  3
Layout1
350
1E
  0
DICTIONARY
  5
E
330
A
100
AcDbDictionary
281
1
  3
ByBlock
350
1F
  3
ByLayer
350
20
  3
Global
350
21
  0
DICTIONARY
  5
F
330
A
100
AcDbDictionary
281
1
  3
Standard
350
2C
  0
DICTIONARY
  5
10
330
A
100
AcDbDictionary
281
1
  3
Standard
350
22
  0
DICTIONARY
  5
11
330
A
100
AcDbDictionary
281
1
  0
ACDBDICTIONARYWDFLT
  5
12
330
A
100
AcDbDictionary
281
1
  3
Normal
350
13
100
AcDbDictionaryWithDefault
340
13
  0
ACDBPLACEHOLDER
  5
13
330
12
  0
DICTIONARY
  5
14
330
A
100
AcDbDictionary
281
1
  0
DICTIONARY
  5
15
330
A
100
AcDbDictionary
281
1
  0
DICTIONARY
  5
16
330
A
100
AcDbDictionary
281
1
  0
LAYOUT
  5
1A
330
D
100
AcDbPlotSettings
  1

  4
A3
  6

 40
7.5
 41
20.0
 42
7.5
 43
20.0
 44
420.0
 45
297.0
 46
0.0
 47
0.0
 48
0.0
 49
0.0
140
0.0
141
0.0
142
1.0
143
1.0
 70
1024
 72
1
 73
0
 74
5
  7

 75
16
 76
0
 77
2
 78
300
147
1.0
148
0.0
149
0.0
100
AcDbLayout
  1
Model
 70
1
 71
0
 10
0.0
 20
0.0
 11
420.0
 21
297.0
 12
0.0
 22
0.0
 32
0.0
 14
1e+20
 24
1e+20
 34
1e+20
 15
-1e+20
 25
-1e+20
 35
-1e+20
146
0.0
 13
0.0
 23
0.0
 33
0.0
 16
1.0
 26
0.0
 36
0.0
 17
0.0
 27
1.0
 37
0.0
 76
1
330
17
  0
LAYOUT
  5
1E
330
D
100
AcDbPlotSettings
  1

  4
A3
  6

 40
7.5
 41
20.0
 42
7.5
 43
20.0
 44
420.0
 45
297.0
 46
0.0
 47
0.0
 48
0.0
 49
0.0
140
0.0
141
0.0
142
1.0
143
1.0
 70
0
 72
1
 73
0
 74
5
  7

 75
16
 76
0
 77
2
 78
300
147
1.0
148
0.0
149
0.0
100
AcDbLayout
  1
Layout1
 70
1
 71
1
 10
0.0
 20
0.0
 11
420.0
 21
297.0
 12
0.0
 22
0.0
 32
0.0
 14
1e+20
 24
1e+20
 34
1e+20
 15
-1e+20
 25
-1e+20
 35
-1e+20
146
0.0
 13
0.0
 23
0.0
 33
0.0
 16
1.0
 26
0.0
 36
0.0
 17
0.0
 27
1.0
 37
0.0
 76
1
330
1B
  0
MATERIAL
  5
1F
102
{ACAD_REACTORS
330
E
102
}
330
E
100
AcDbMaterial
  1
ByBlock
  2

 70
0
 40
1.0
 71
1
 41
1.0
 91
-1023410177
 42
1.0
 72
1
  3

 73
1
 74
1
 75
1
 44
0.5
 73
0
 45
1.0
 46
1.0
 77
1
  4

 78
1
 79
1
170
1
 48
1.0
171
1
  6

172
1
173
1
174
1
140
1.0
141
1.0
175
1
  7

176
1
177
1
178
1
143
1.0
179
1
  8

270
1
271
1
272
1
145
1.0
146
1.0
273
1
  9

274
1
275
1
276
1
 42
1.0
 72
1
  3

 73
1
 74
1
 75
1
 94
63
  0
MATERIAL
  5
20
102
{ACAD_REACTORS
330
E
102
}
330
E
100
AcDbMaterial
  1
ByLayer
  2

 70
0
 40
1.0
 71
1
 41
1.0
 91
-1023410177
 42
1.0
 72
1
  3

 73
1
 74
1
 75
1
 44
0.5
 73
0
 45
1.0
 46
1.0
 77
1
  4

 78
1
 79
1
170
1
 48
1.0
171
1
  6

172
1
173
1
174
1
140
1.0
141
1.0
175
1
  7

176
1
177
1
178
1
143
1.0
179
1
  8

270
1
271
1
272
1
145
1.0
146
1.0
273
1
  9

274
1
275
1
276
1
 42
1.0
 72
1
  3

 73
1
 74
1
 75
1
 94
63
  0
MATERIAL
  5
21
102
{ACAD_REACTORS
330
E
102
}
330
E
100
AcDbMaterial
  1
Global
  2

 70
0
 40
1.0
 71
1
 41
1.0
 91
-1023410177
 42
1.0
 72
1
  3

 73
1
 74
1
 75
1
 44
0.5
 73
0
 45
1.0
 46
1.0
 77
1
  4

 78
1
 79
1
170
1
 48
1.0
171
1
  6

172
1
173
1
174
1
140
1.0
141
1.0
175
1
  7

176
1
177
1
178
1
143
1.0
179
1
  8

270
1
271
1
272
1
145
1.0
146
1.0
273
1
  9

274
1
275
1
276
1
 42
1.0
 72
1
  3

 73
1
 74
1
 75
1
 94
63
  0
MLINESTYLE
  5
22
102
{ACAD_REACTORS
330
10
102
}
330
10
100
AcDbMlineStyle
  2
Standard
 70
0
  3

 62
256
 51
90.0
 52
90.0
 71
2
 49
0.5
 62
256
  6
BYLAYER
 49
-0.5
 62
256
  6
BYLAYER
  0
MLEADERSTYLE
  5
2C
102
{ACAD_REACTORS
330
F
102
}
330
F
100
AcDbMLeaderStyle
179
2
170
2
171
1
172
0
 90
2
 40
0.0
 41
0.0
173
1
 91
-1056964608
 92
-2
290
1
 42
2.0
291
1
 43
8.0
  3
Standard
 44
4.0
300

342
29
174
1
175
1
176
0
178
1
 93
-1056964608
 45
4.0
292
0
297
0
 46
4.0
 94
-1056964608
 47
1.0
 49
1.0
140
1.0
294
1
141
0.0
177
0
142
1.0
295
0
296
0
143
3.75
271
0
272
9
273
9
  0
DICTIONARY
  5
2D
330
A
100
AcDbDictionary
280
1
281
1
  3
CREATED_BY_EZDXF
350
2E
  3
WRITTEN_BY_EZDXF
350
7C
  0
DICTIONARYVAR
  5
2E
330
2D
100
DictionaryVariables
280
0
  1
0.0 @ 2000-01-01T00:00:00.000000+00:00
  0
DICTIONARYVAR
  5
7C
330
2D
100
DictionaryVariables
280
0
  1
0.0 @ 2000-01-01T00:00:00.000000+00:00
  0
ENDSEC
  0
EOF
