  0
SECTION
  2
HEADER
  9
$ACADVER
  1
AC1024
  9
$ACADMAINTVER
 70
6
  9
$DWGCODEPAGE
  3
ANSI_1252
  9
$LASTSAVEDBY
  1
ezdxf
  9
$INSBASE
 10
0.0
 20
0.0
 30
0.0
  9
$EXTMIN
 10
1e+20
 20
1e+20
 30
1e+20
  9
$EXTMAX
 10
-1e+20
 20
-1e+20
 30
-1e+20
  9
$LIMMIN
 10
0.0
 20
0.0
  9
$LIMMAX
 10
420.0
 20
297.0
  9
$ORTHOMODE
 70
0
  9
$REGENMODE
 70
1
  9
$FILLMODE
 70
1
  9
$QTEXTMODE
 70
0
  9
$MIRRTEXT
 70
1
  9
$LTSCALE
 40
1.0
  9
$ATTMODE
 70
1
  9
$TEXTSIZE
 40
2.5
  9
$TRACEWID
 40
1.0
  9
$TEXTSTYLE
  7
Standard
  9
$CLAYER
  8
0
  9
$CELTYPE
  6
ByLayer
  9
$CECOLOR
 62
256
  9
$CELTSCALE
 40
1.0
  9
$DISPSILH
 70
0
  9
$DIMSCALE
 40
1.0
  9
$DIMASZ
 40
2.5
  9
$DIMEXO
 40
0.625
  9
$DIMDLI
 40
3.75
  9
$DIMRND
 40
0.0
  9
$DIMDLE
 40
0.0
  9
$DIMEXE
 40
1.25
  9
$DIMTP
 40
0.0
  9
$DIMTM
 40
0.0
  9
$DIMTXT
 40
2.5
  9
$DIMCEN
 40
2.5
  9
$DIMTSZ
 40
0.0
  9
$DIMTOL
 70
0
  9
$DIMLIM
 70
0
  9
$DIMTIH
 70
0
  9
$DIMTOH
 70
0
  9
$DIMSE1
 70
0
  9
$DIMSE2
 70
0
  9
$DIMTAD
 70
1
  9
$DIMZIN
 70
8
  9
$DIMBLK
  1

  9
$DIMASO
 70
1
  9
$DIMSHO
 70
1
  9
$DIMPOST
  1

  9
$DIMAPOST
  1

  9
$DIMALT
 70
0
  9
$DIMALTD
 70
3
  9
$DIMALTF
 40
0.03937007874
  9
$DIMLFAC
 40
1.0
  9
$DIMTOFL
 70
1
  9
$DIMTVP
 40
0.0
  9
$DIMTIX
 70
0
  9
$DIMSOXD
 70
0
  9
$DIMSAH
 70
0
  9
$DIMBLK1
  1

  9
$DIMBLK2
  1

  9
$DIMSTYLE
  2
ISO-25
  9
$DIMCLRD
 70
0
  9
$DIMCLRE
 70
0
  9
$DIMCLRT
 70
0
  9
$DIMTFAC
 40
1.0
  9
$DIMGAP
 40
0.625
  9
$DIMJUST
 70
0
  9
$DIMSD1
 70
0
  9
$DIMSD2
 70
0
  9
$DIMTOLJ
 70
0
  9
$DIMTZIN
 70
8
  9
$DIMALTZ
 70
0
  9
$DIMALTTZ
 70
0
  9
$DIMUPT
 70
0
  9
$DIMDEC
 70
2
  9
$DIMTDEC
 70
2
  9
$DIMALTU
 70
2
  9
$DIMALTTD
 70
3
  9
$DIMTXSTY
  7
Standard
  9
$DIMAUNIT
 70
0
  9
$DIMADEC
 70
0
  9
$DIMALTRND
 40
0.0
  9
$DIMAZIN
 70
0
  9
$DIMDSEP
 70
44
  9
$DIMATFIT
 70
3
  9
$DIMFRAC
 70
0
  9
$DIMLDRBLK
  1

  9
$DIMLUNIT
 70
2
  9
$DIMLWD
 70
-2
  9
$DIMLWE
 70
-2
  9
$DIMTMOVE
 70
0
  9
$DIMFXL
 40
1.0
  9
$DIMFXLON
 70
0
  9
$DIMJOGANG
 40
0.785398163397
  9
$DIMTFILL
 70
0
  9
$DIMTFILLCLR
 70
0
  9
$DIMARCSYM
 70
0
  9
$DIMLTYPE
  6

  9
$DIMLTEX1
  6

  9
$DIMLTEX2
  6

  9
$DIMTXTDIRECTION
 70
0
  9
$LUNITS
 70
2
  9
$LUPREC
 70
4
  9
$SKETCHINC
 40
1.0
  9
$FILLETRAD
 40
10.0
  9
$AUNITS
 70
0
  9
$AUPREC
 70
2
  9
$MENU
  1
.
  9
$ELEVATION
 40
0.0
  9
$PELEVATION
 40
0.0
  9
$THICKNESS
 40
0.0
  9
$LIMCHECK
 70
0
  9
$CHAMFERA
 40
0.0
  9
$CHAMFERB
 40
0.0
  9
$CHAMFERC
 40
0.0
  9
$CHAMFERD
 40
0.0
  9
$SKPOLY
 70
0
  9
$TDCREATE
 40
2451545.0
  9
$TDUCREATE
 40
2451545.0
  9
$TDUPDATE
 40
2451545.0
  9
$TDUUPDATE
 40
2451545.0
  9
$TDINDWG
 40
0.0
  9
$TDUSRTIMER
 40
0.0
  9
$USRTIMER
 70
1
  9
$ANGBASE
 50
0.0
  9
$ANGDIR
 70
0
  9
$PDMODE
 70
0
  9
$PDSIZE
 40
0.0
  9
$PLINEWID
 40
0.0
  9
$SPLFRAME
 70
0
  9
$SPLINETYPE
 70
6
  9
$SPLINESEGS
 70
8
  9
$HANDSEED
  5
45
  9
$SURFTAB1
 70
6
  9
$SURFTAB2
 70
6
  9
$SURFTYPE
 70
6
  9
$SURFU
 70
6
  9
$SURFV
 70
6
  9
$UCSBASE
  2

  9
$UCSNAME
  2

  9
$UCSORG
 10
0.0
 20
0.0
 30
0.0
  9
$UCSXDIR
 10
1.0
 20
0.0
 30
0.0
  9
$UCSYDIR
 10
0.0
 20
1.0
 30
0.0
  9
$UCSORTHOREF
  2

  9
$UCSORTHOVIEW
 70
0
  9
$UCSORGTOP
 10
0.0
 20
0.0
 30
0.0
  9
$UCSORGBOTTOM
 10
0.0
 20
0.0
 30
0.0
  9
$UCSORGLEFT
 10
0.0
 20
0.0
 30
0.0
  9
$UCSORGRIGHT
 10
0.0
 20
0.0
 30
0.0
  9
$UCSORGFRONT
 10
0.0
 20
0.0
 30
0.0
  9
$UCSORGBACK
 10
0.0
 20
0.0
 30
0.0
  9
$PUCSBASE
  2

  9
$PUCSNAME
  2

  9
$PUCSORG
 10
0.0
 20
0.0
 30
0.0
  9
$PUCSXDIR
 10
1.0
 20
0.0
 30
0.0
  9
$PUCSYDIR
 10
0.0
 20
1.0
 30
0.0
  9
$PUCSORTHOREF
  2

  9
$PUCSORTHOVIEW
 70
0
  9
$PUCSORGTOP
 10
0.0
 20
0.0
 30
0.0
  9
$PUCSORGBOTTOM
 10
0.0
 20
0.0
 30
0.0
  9
$PUCSORGLEFT
 10
0.0
 20
0.0
 30
0.0
  9
$PUCSORGRIGHT
 10
0.0
 20
0.0
 30
0.0
  9
$PUCSORGFRONT
 10
0.0
 20
0.0
 30
0.0
  9
$PUCSORGBACK
 10
0.0
 20
0.0
 30
0.0
  9
$USERI1
 70
0
  9
$USERI2
 70
0
  9
$USERI3
 70
0
  9
$USERI4
 70
0
  9
$USERI5
 70
0
  9
$USERR1
 40
0.0
  9
$USERR2
 40
0.0
  9
$USERR3
 40
0.0
  9
$USERR4
 40
0.0
  9
$USERR5
 40
0.0
  9
$WORLDVIEW
 70
1
  9
$SHADEDGE
 70
3
  9
$SHADEDIF
 70
70
  9
$TILEMODE
 70
1
  9
$MAXACTVP
 70
64
  9
$PINSBASE
 10
0.0
 20
0.0
 30
0.0
  9
$PLIMCHECK
 70
0
  9
$PEXTMIN
 10
1e+20
 20
1e+20
 30
1e+20
  9
$PEXTMAX
 10
-1e+20
 20
-1e+20
 30
-1e+20
  9
$PLIMMIN
 10
0.0
 20
0.0
  9
$PLIMMAX
 10
420.0
 20
297.0
  9
$UNITMODE
 70
0
  9
$VISRETAIN
 70
1
  9
$PLINEGEN
 70
0
  9
$PSLTSCALE
 70
1
  9
$TREEDEPTH
 70
3020
  9
$CMLSTYLE
  2
Standard
  9
$CMLJUST
 70
0
  9
$CMLSCALE
 40
20.0
  9
$PROXYGRAPHICS
 70
1
  9
$MEASUREMENT
 70
1
  9
$CELWEIGHT
370
-1
  9
$ENDCAPS
280
0
  9
$JOINSTYLE
280
0
  9
$LWDISPLAY
290
0
  9
$INSUNITS
 70
2
  9
$HYPERLINKBASE
  1

  9
$STYLESHEET
  1

  9
$XEDIT
290
1
  9
$CEPSNTYPE
380
0
  9
$PSTYLEMODE
290
1
  9
$FINGERPRINTGUID
  2
{00000000-0000-0000-0000-000000000000}
  9
$VERSIONGUID
  2
{00000000-0000-0000-0000-000000000000}
  9
$EXTNAMES
290
1
  9
$PSVPSCALE
 40
0.0
  9
$OLESTARTUP
290
0
  9
$SORTENTS
280
127
  9
$INDEXCTL
280
0
  9
$HIDETEXT
280
1
  9
$XCLIPFRAME
280
1
  9
$HALOGAP
280
0
  9
$OBSCOLOR
 70
257
  9
$OBSLTYPE
280
0
  9
$INTERSECTIONDISPLAY
280
0
  9
$INTERSECTIONCOLOR
 70
257
  9
$DIMASSOC
280
2
  9
$PROJECTNAME
  1

  9
$CAMERADISPLAY
290
0
  9
$LENSLENGTH
 40
50.0
  9
$CAMERAHEIGHT
 40
0.0
  9
$STEPSPERSEC
 40
24.0
  9
$STEPSIZE
 40
100.0
  9
$3DDWFPREC
 40
2.0
  9
$PSOLWIDTH
 40
0.005
  9
$PSOLHEIGHT
 40
0.08
  9
$LOFTANG1
 40
1.570796326795
  9
$LOFTANG2
 40
1.570796326795
  9
$LOFTMAG1
 40
0.0
  9
$LOFTMAG2
 40
0.0
  9
$LOFTPARAM
 70
7
  9
$LOFTNORMALS
280
1
  9
$LATITUDE
 40
37.795
  9
$LONGITUDE
 40
-122.394
  9
$NORTHDIRECTION
 40
0.0
  9
$TIMEZONE
 70
-8000
  9
$LIGHTGLYPHDISPLAY
280
1
  9
$TILEMODELIGHTSYNCH
280
1
  9
$CMATERIAL
347
20
  9
$SOLIDHIST
280
0
  9
$SHOWHIST
280
1
  9
$DWFFRAME
280
2
  9
$DGNFRAME
280
2
  9
$REALWORLDSCALE
290
1
  9
$INTERFERECOLOR
 62
256
  9
$CSHADOW
280
0
  9
$SHADOWPLANELOCATION
 40
0.0
  0
ENDSEC
  0
SECTION
  2
CLASSES
  0
CLASS
  1
ACDBDICTIONARYWDFLT
  2
AcDbDictionaryWithDefault
  3
ObjectDBX Classes
 90
0
 91
0
280
0
281
0
  0
CLASS
  1
SUN
  2
AcDbSun
  3
SCENEOE
 90
1153
 91
0
280
0
281
0
  0
CLASS
  1
VISUALSTYLE
  2
AcDbVisualStyle
  3
ObjectDBX Classes
 90
4095
 91
0
280
0
281
0
  0
CLASS
  1
MATERIAL
  2
AcDbMaterial
  3
ObjectDBX Classes
 90
1153
 91
0
280
0
281
0
  0
CLASS
  1
SCALE
  2
AcDbScale
  3
ObjectDBX Classes
 90
1153
 91
0
280
0
281
0
  0
CLASS
  1
TABLESTYLE
  2
AcDbTableStyle
  3
ObjectDBX Classes
 90
4095
 91
0
280
0
281
0
  0
CLASS
  1
MLEADERSTYLE
  2
AcDbMLeaderStyle
  3
ACDB_MLEADERSTYLE_CLASS
 90
4095
 91
0
280
0
281
0
  0
CLASS
  1
DICTIONARYVAR
  2
AcDbDictionaryVar
  3
ObjectDBX Classes
 90
0
 91
0
280
0
281
0
  0
CLASS
  1
CELLSTYLEMAP
  2
AcDbCellStyleMap
  3
ObjectDBX Classes
 90
1152
 91
0
280
0
281
0
  0
CLASS
  1
MENTALRAYRENDERSETTINGS
  2
AcDbMentalRayRenderSettings
  3
SCENEOE
 90
1024
 91
0
280
0
281
0
  0
CLASS
  1
ACDBDETAILVIEWSTYLE
  2
AcDbDetailViewStyle
  3
ObjectDBX Classes
 90
1025
 91
0
280
0
281
0
  0
CLASS
  1
ACDBSECTIONVIEWSTYLE
  2
AcDbSectionViewStyle
  3
ObjectDBX Classes
 90
1025
 91
0
280
0
281
0
  0
CLASS
  1
RASTERVARIABLES
  2
AcDbRasterVariables
  3
ISM
 90
0
 91
0
280
0
281
0
  0
CLASS
  1
ACDBPLACEHOLDER
  2
AcDbPlaceHolder
  3
ObjectDBX Classes
 90
0
 91
0
280
0
281
0
  0
CLASS
  1
LAYOUT
  2
AcDbLayout
  3
ObjectDBX Classes
 90
0
 91
0
280
0
281
0
  0
ENDSEC
  0
SECTION
  2
TABLES
  0
TABLE
  2
VPORT
  5
8
330
0
100
AcDbSymbolTable
 70
1
  0
VPORT
  5
23
330
8
100
AcDbSymbolTableRecord
100
AcDbViewportTableRecord
  2
*Active
 70
0
 10
0.0
 20
0.0
 11
1.0
 21
1.0
 12
0.0
 22
0.0
 13
0.0
 23
0.0
 14
0.5
 24
0.5
 15
0.5
 25
0.5
 16
0.0
 26
0.0
 36
1.0
 17
0.0
 27
0.0
 37
0.0
 40
1000.0
 41
1.34
 42
50.0
 43
0.0
 44
0.0
 50
0.0
 51
0.0
 71
0
 72
1000
 73
1
 74
3
 75
0
 76
0
 77
0
 78
0
281
0
 65
0
146
0.0
  0
ENDTAB
  0
TABLE
  2
LTYPE
  5
2
330
0
100
AcDbSymbolTable
 70
3
  0
LTYPE
  5
24
330
2
100
AcDbSymbolTableRecord
100
AcDbLinetypeTableRecord
  2
ByBlock
 70
0
  3

 72
65
 73
0
 40
0.0
  0
LTYPE
  5
25
330
2
100
AcDbSymbolTableRecord
100
AcDbLinetypeTableRecord
  2
ByLayer
 70
0
  3

 72
65
 73
0
 40
0.0
  0
LTYPE
  5
26
330
2
100
AcDbSymbolTableRecord
100
AcDbLinetypeTableRecord
  2
Continuous
 70
0
  3

 72
65
 73
0
 40
0.0
  0
ENDTAB
  0
TABLE
  2
LAYER
  5
1
330
0
100
AcDbSymbolTable
 70
6
  0
LAYER
  5
27
330
1
100
AcDbSymbolTableRecord
100
AcDbLayerTableRecord
  2
0
 70
0
 62
7
  6
Continuous
370
-3
390
13
347
21
  0
LAYER
  5
28
330
1
100
AcDbSymbolTableRecord
100
AcDbLayerTableRecord
  2
Defpoints
 70
0
 62
7
  6
Continuous
290
0
370
-3
390
13
347
21
  0
LAYER
  5
2F
330
1
100
AcDbSymbolTableRecord
100
AcDbLayerTableRecord
  2
PARCEL
 70
0
 62
5
  6
Continuous
370
-3
390
13
347
21
  0
LAYER
  5
30
330
1
100
AcDbSymbolTableRecord
100
AcDbLayerTableRecord
  2
LOTS
 70
0
 62
3
  6
Continuous
370
-3
390
13
347
21
  0
LAYER
  5
31
330
1
100
AcDbSymbolTableRecord
100
AcDbLayerTableRecord
  2
ROADS
 70
0
 62
1
  6
Continuous
370
-3
390
13
347
21
  0
LAYER
  5
32
330
1
100
AcDbSymbolTableRecord
100
AcDbLayerTableRecord
  2
CENTERLINE
 70
0
 62
2
  6
Continuous
370
-3
390
13
347
21
  0
ENDTAB
  0
TABLE
  2
STYLE
  5
5
330
0
100
AcDbSymbolTable
 70
1
  0
STYLE
  5
29
330
5
100
AcDbSymbolTableRecord
100
AcDbTextStyleTableRecord
  2
Standard
 70
0
 40
0.0
 41
1.0
 50
0.0
 71
0
 42
2.5
  3
txt
  4

  0
ENDTAB
  0
TABLE
  2
VIEW
  5
7
330
0
100
AcDbSymbolTable
 70
0
  0
ENDTAB
  0
TABLE
  2
UCS
  5
6
330
0
100
AcDbSymbolTable
 70
0
  0
ENDTAB
  0
TABLE
  2
APPID
  5
3
330
0
100
AcDbSymbolTable
 70
3
  0
APPID
  5
2A
330
3
100
AcDbSymbolTableRecord
100
AcDbRegAppTableRecord
  2
ACAD
 70
0
  0
APPID
  5
42
330
3
100
AcDbSymbolTableRecord
100
AcDbRegAppTableRecord
  2
HATCHBACKGROUNDCOLOR
 70
0
  0
APPID
  5
43
330
3
100
AcDbSymbolTableRecord
100
AcDbRegAppTableRecord
  2
EZDXF
 70
0
  0
ENDTAB
  0
TABLE
  2
DIMSTYLE
  5
4
330
0
100
AcDbSymbolTable
 70
1
100
AcDbDimStyleTable
  0
DIMSTYLE
105
2B
330
4
100
AcDbSymbolTableRecord
100
AcDbDimStyleTableRecord
  2
Standard
 70
0
 40
1.0
 41
2.5
 42
0.625
 43
3.75
 44
1.25
 45
0.0
 46
0.0
 47
0.0
 48
0.0
 49
2.5
140
2.5
141
2.5
142
0.0
143
0.03937007874
144
1.0
145
0.0
146
1.0
147
0.625
148
0.0
 69
0
 70
0
 71
0
 72
0
 73
0
 74
0
 75
0
 76
0
 77
1
 78
8
 79
3
170
0
171
3
172
1
173
0
174
0
175
0
176
0
177
0
178
0
179
2
271
2
272
2
273
2
274
3
275
0
276
0
277
2
278
44
279
0
280
0
281
0
282
0
283
0
284
8
285
0
286
0
288
0
289
3
290
0
371
-2
372
-2
  0
ENDTAB
  0
TABLE
  2
BLOCK_RECORD
  5
9
330
0
100
AcDbSymbolTable
 70
2
  0
BLOCK_RECORD
  5
17
330
9
100
AcDbSymbolTableRecord
100
AcDbBlockTableRecord
  2
*Model_Space
340
1A
 70
0
280
1
281
0
  0
BLOCK_RECORD
  5
1B
330
9
100
AcDbSymbolTableRecord
100
AcDbBlockTableRecord
  2
*Paper_Space
340
1E
 70
0
280
1
281
0
  0
ENDTAB
  0
ENDSEC
  0
SECTION
  2
BLOCKS
  0
BLOCK
  5
18
330
17
100
AcDbEntity
  8
0
100
AcDbBlockBegin
  2
*Model_Space
 70
0
 10
0.0
 20
0.0
 30
0.0
  3
*Model_Space
  1

  0
ENDBLK
  5
19
330
17
100
AcDbEntity
  8
0
100
AcDbBlockEnd
  0
BLOCK
  5
1C
330
1B
100
AcDbEntity
  8
0
100
AcDbBlockBegin
  2
*Paper_Space
 70
0
 10
0.0
 20
0.0
 30
0.0
  3
*Paper_Space
  1

  0
ENDBLK
  5
1D
330
1B
100
AcDbEntity
  8
0
100
AcDbBlockEnd
  0
ENDSEC
  0
SECTION
  2
ENTITIES
  0
LWPOLYLINE
  5
33
330
17
100
AcDbEntity
  8
PARCEL
100
AcDbPolyline
 90
14
 70
1
 10
51.41081500626271
 20
454.73494108743114
 10
56.38005058962764
 20
498.6722420247811
 10
203.86949263911077
 20
499.4098854421052
 10
330.22332593913126
 20
462.74684705270215
 10
286.89285513138844
 20
360.5967143342449
 10
256.1476070354408
 20
162.64284288150822
 10
259.31549843189146
 20
16.796767879099377
 10
224.81363758345108
 20
11.1771956244487
 10
82.14628496807859
 20
1.5278482292578701
 10
0.0
 20
0.0
 10
13.748197353912701
 20
121.6065523197787
 10
27.644093640255605
 20
244.5179655291791
 10
43.9929514956784
 20
389.1242275356965
 10
51.41081500626271
 20
454.73494108743114
  0
LWPOLYLINE
  5
34
330
17
100
AcDbEntity
  8
LOTS
100
AcDbPolyline
 90
6
 70
1
 10
82.15
 20
1.53
 10
0.0
 20
0.0
 10
8.48
 20
75.0
 10
124.1
 20
75.0
 10
124.1
 20
4.37
 10
82.15
 20
1.53
  0
LWPOLYLINE
  5
35
330
17
100
AcDbEntity
  8
LOTS
100
AcDbPolyline
 90
6
 70
1
 10
8.48
 20
75.0
 10
13.75
 20
121.61
 10
16.96
 20
150.0
 10
124.1
 20
150.0
 10
124.1
 20
75.0
 10
8.48
 20
75.0
  0
LWPOLYLINE
  5
36
330
17
100
AcDbEntity
  8
LOTS
100
AcDbPolyline
 90
5
 70
1
 10
16.96
 20
150.0
 10
25.44
 20
225.0
 10
124.1
 20
225.0
 10
124.1
 20
150.0
 10
16.96
 20
150.0
  0
LWPOLYLINE
  5
37
330
17
100
AcDbEntity
  8
LOTS
100
AcDbPolyline
 90
8
 70
1
 10
25.44
 20
225.0
 10
26.252771964137782
 20
232.21150397271342
 10
27.644093640255605
 20
244.5179655291791
 10
31.233353736095125
 20
276.26510593607605
 10
33.92
 20
300.0
 10
124.1
 20
300.0
 10
124.1
 20
225.0
 10
25.44
 20
225.0
  0
LWPOLYLINE
  5
38
330
17
100
AcDbEntity
  8
LOTS
100
AcDbPolyline
 90
5
 70
1
 10
173.1
 20
75.0
 10
173.1
 20
150.0
 10
256.42
 20
150.0
 10
258.05
 20
75.0
 10
173.1
 20
75.0
  0
LWPOLYLINE
  5
39
330
17
100
AcDbEntity
  8
LOTS
100
AcDbPolyline
 90
8
 70
1
 10
256.42
 20
150.0
 10
173.1
 20
150.0
 10
173.1
 20
225.0
 10
265.83
 20
225.0
 10
261.17822304906855
 20
195.03256088222278
 10
256.1476070354408
 20
162.64284288150822
 10
256.2883134547088
 20
156.1648812314086
 10
256.42
 20
150.0
  0
LWPOLYLINE
  5
3A
330
17
100
AcDbEntity
  8
LOTS
100
AcDbPolyline
 90
5
 70
1
 10
173.1
 20
225.0
 10
173.1
 20
300.0
 10
277.48
 20
300.0
 10
265.83
 20
225.0
 10
173.1
 20
225.0
  0
LWPOLYLINE
  5
3B
330
17
100
AcDbEntity
  8
LOTS
100
AcDbPolyline
 90
95
 70
1
 10
173.1
 20
300.0
 10
173.1
 20
306.0
 10
173.6
 20
306.29
 10
174.31
 20
306.7
 10
175.0
 20
307.13
 10
175.7
 20
307.56
 10
176.38
 20
308.01
 10
177.06
 20
308.47
 10
177.72
 20
308.94
 10
178.39
 20
309.43
 10
179.04
 20
309.92
 10
179.68
 20
310.42
 10
180.32
 20
310.94
 10
180.95
 20
311.46
 10
181.57
 20
311.99
 10
182.18
 20
312.54
 10
182.78
 20
313.09
 10
183.37
 20
313.66
 10
183.96
 20
314.23
 10
184.53
 20
314.81
 10
185.09
 20
315.41
 10
185.65
 20
316.01
 10
186.19
 20
316.62
 10
186.73
 20
317.24
 10
187.25
 20
317.87
 10
187.76
 20
318.5
 10
188.27
 20
319.15
 10
188.76
 20
319.8
 10
189.24
 20
320.46
 10
189.71
 20
321.13
 10
190.17
 20
321.81
 10
190.62
 20
322.49
 10
191.06
 20
323.18
 10
191.49
 20
323.88
 10
191.9
 20
324.59
 10
192.31
 20
325.3
 10
192.7
 20
326.02
 10
193.08
 20
326.74
 10
193.44
 20
327.47
 10
193.8
 20
328.21
 10
194.14
 20
328.95
 10
194.48
 20
329.7
 10
194.79
 20
330.45
 10
195.1
 20
331.21
 10
195.4
 20
331.97
 10
195.68
 20
332.74
 10
195.95
 20
333.51
 10
196.2
 20
334.29
 10
196.45
 20
335.07
 10
196.68
 20
335.86
 10
196.9
 20
336.65
 10
197.1
 20
337.44
 10
197.29
 20
338.23
 10
197.47
 20
339.03
 10
197.64
 20
339.83
 10
197.79
 20
340.64
 10
197.93
 20
341.44
 10
198.06
 20
342.25
 10
198.17
 20
343.06
 10
198.27
 20
343.87
 10
198.36
 20
344.69
 10
198.43
 20
345.5
 10
198.49
 20
346.32
 10
198.54
 20
347.13
 10
198.57
 20
347.95
 10
198.59
 20
348.77
 10
198.6
 20
349.59
 10
198.59
 20
350.41
 10
198.57
 20
351.22
 10
198.54
 20
352.04
 10
198.49
 20
352.86
 10
198.43
 20
353.67
 10
198.36
 20
354.49
 10
198.27
 20
355.3
 10
198.17
 20
356.11
 10
198.06
 20
356.92
 10
197.93
 20
357.73
 10
197.79
 20
358.54
 10
197.64
 20
359.34
 10
197.47
 20
360.14
 10
197.29
 20
360.94
 10
197.1
 20
361.74
 10
196.9
 20
362.53
 10
196.68
 20
363.32
 10
196.45
 20
364.1
 10
196.2
 20
364.88
 10
195.95
 20
365.66
 10
195.68
 20
366.43
 10
195.4
 20
367.2
 10
195.1
 20
367.96
 10
194.94
 20
368.36
 10
309.94
 20
414.93
 10
286.89
 20
360.6
 10
277.48
 20
300.0
 10
173.1
 20
300.0
  0
LWPOLYLINE
  5
3C
330
17
100
AcDbEntity
  8
LOTS
100
AcDbPolyline
 90
100
 70
1
 10
309.94
 20
414.93
 10
194.94
 20
368.36
 10
194.79
 20
368.72
 10
194.48
 20
369.47
 10
194.14
 20
370.22
 10
193.8
 20
370.96
 10
193.44
 20
371.7
 10
193.08
 20
372.43
 10
192.7
 20
373.16
 10
192.31
 20
373.88
 10
191.9
 20
374.59
 10
191.49
 20
375.29
 10
191.06
 20
375.99
 10
190.62
 20
376.68
 10
190.17
 20
377.37
 10
189.71
 20
378.04
 10
189.24
 20
378.71
 10
188.76
 20
379.37
 10
188.27
 20
380.02
 10
187.76
 20
380.67
 10
187.25
 20
381.31
 10
186.73
 20
381.93
 10
186.19
 20
382.55
 10
185.65
 20
383.16
 10
185.09
 20
383.77
 10
184.53
 20
384.36
 10
183.96
 20
384.94
 10
183.37
 20
385.52
 10
182.78
 20
386.08
 10
182.18
 20
386.63
 10
181.57
 20
387.18
 10
180.95
 20
387.71
 10
180.32
 20
388.24
 10
179.68
 20
388.75
 10
179.04
 20
389.25
 10
178.39
 20
389.75
 10
177.72
 20
390.23
 10
177.06
 20
390.7
 10
176.38
 20
391.16
 10
175.7
 20
391.61
 10
175.0
 20
392.05
 10
174.31
 20
392.47
 10
173.6
 20
392.89
 10
172.89
 20
393.29
 10
172.17
 20
393.68
 10
171.45
 20
394.06
 10
170.71
 20
394.43
 10
169.98
 20
394.79
 10
169.24
 20
395.13
 10
168.49
 20
395.46
 10
167.73
 20
395.78
 10
166.98
 20
396.09
 10
166.21
 20
396.38
 10
165.44
 20
396.66
 10
164.67
 20
396.93
 10
163.9
 20
397.19
 10
163.11
 20
397.43
 10
162.33
 20
397.67
 10
161.54
 20
397.88
 10
160.75
 20
398.09
 10
159.95
 20
398.28
 10
159.16
 20
398.46
 10
158.36
 20
398.63
 10
157.55
 20
398.78
 10
156.75
 20
398.92
 10
155.94
 20
399.05
 10
155.13
 20
399.16
 10
154.31
 20
399.26
 10
153.5
 20
399.35
 10
152.69
 20
399.42
 10
151.87
 20
399.48
 10
151.05
 20
399.53
 10
150.24
 20
399.56
 10
149.42
 20
399.58
 10
148.6
 20
399.59
 10
147.78
 20
399.58
 10
146.96
 20
399.56
 10
146.15
 20
399.53
 10
145.33
 20
399.48
 10
144.51
 20
399.42
 10
143.7
 20
399.35
 10
142.89
 20
399.26
 10
142.07
 20
399.16
 10
141.26
 20
399.05
 10
140.46
 20
398.92
 10
139.65
 20
398.78
 10
138.85
 20
398.63
 10
138.04
 20
398.46
 10
137.25
 20
398.28
 10
136.45
 20
398.09
 10
135.66
 20
397.88
 10
134.87
 20
397.67
 10
134.09
 20
397.43
 10
133.31
 20
397.19
 10
133.16
 20
397.14
 10
100.11
 20
498.89
 10
192.92498853796047
 20
499.3551483619867
 10
203.86949263911077
 20
499.4098854421052
 10
330.21917380533193
 20
462.7480518427501
 10
309.94
 20
414.93
  0
LWPOLYLINE
  5
3D
330
17
100
AcDbEntity
  8
LOTS
100
AcDbPolyline
 90
100
 70
1
 10
131.76
 20
396.66
 10
130.99
 20
396.38
 10
130.22
 20
396.09
 10
129.47
 20
395.78
 10
128.71
 20
395.46
 10
127.97
 20
395.13
 10
127.22
 20
394.79
 10
126.49
 20
394.43
 10
125.76
 20
394.06
 10
125.03
 20
393.68
 10
124.31
 20
393.29
 10
123.6
 20
392.89
 10
122.9
 20
392.47
 10
122.2
 20
392.05
 10
121.51
 20
391.61
 10
120.82
 20
391.16
 10
120.15
 20
390.7
 10
119.48
 20
390.23
 10
118.82
 20
389.75
 10
118.16
 20
389.25
 10
117.52
 20
388.75
 10
116.88
 20
388.24
 10
116.25
 20
387.71
 10
115.63
 20
387.18
 10
115.02
 20
386.63
 10
114.42
 20
386.08
 10
113.83
 20
385.52
 10
113.25
 20
384.94
 10
112.67
 20
384.36
 10
112.11
 20
383.77
 10
111.55
 20
383.16
 10
111.01
 20
382.55
 10
110.47
 20
381.93
 10
109.95
 20
381.31
 10
109.44
 20
380.67
 10
108.93
 20
380.02
 10
108.44
 20
379.37
 10
107.96
 20
378.71
 10
107.49
 20
378.04
 10
107.03
 20
377.37
 10
106.58
 20
376.68
 10
106.14
 20
375.99
 10
105.71
 20
375.29
 10
105.3
 20
374.59
 10
104.9
 20
373.88
 10
104.5
 20
373.16
 10
104.12
 20
372.43
 10
103.76
 20
371.7
 10
103.4
 20
370.96
 10
103.06
 20
370.22
 10
102.73
 20
369.47
 10
102.41
 20
368.72
 10
102.1
 20
367.96
 10
101.81
 20
367.2
 10
101.52
 20
366.43
 10
101.25
 20
365.66
 10
101.0
 20
364.88
 10
100.75
 20
364.1
 10
100.52
 20
363.32
 10
100.3
 20
362.53
 10
100.1
 20
361.74
 10
99.91
 20
360.94
 10
99.73
 20
360.14
 10
99.56
 20
359.34
 10
99.41
 20
358.54
 10
99.27
 20
357.73
 10
99.14
 20
356.92
 10
99.03
 20
356.11
 10
98.93
 20
355.3
 10
98.84
 20
354.49
 10
98.77
 20
353.67
 10
98.71
 20
352.86
 10
98.66
 20
352.04
 10
98.63
 20
351.22
 10
98.61
 20
350.41
 10
98.6
 20
349.59
 10
98.61
 20
348.77
 10
98.63
 20
347.95
 10
98.66
 20
347.13
 10
98.71
 20
346.32
 10
98.77
 20
345.5
 10
98.84
 20
344.69
 10
98.93
 20
343.87
 10
99.03
 20
343.06
 10
99.14
 20
342.25
 10
99.27
 20
341.44
 10
99.41
 20
340.64
 10
99.56
 20
339.83
 10
99.73
 20
339.03
 10
99.91
 20
338.23
 10
100.07
 20
337.55
 10
36.374776737345044
 20
321.7411855607131
 10
43.9929514956784
 20
389.1242275356965
 10
51.41081500626271
 20
454.73494108743114
 10
54.182911623469224
 20
479.24543998696936
 10
56.38
 20
498.67
 10
100.11
 20
498.89
 10
133.16
 20
397.14
 10
132.53
 20
396.93
 10
131.76
 20
396.66
  0
LWPOLYLINE
  5
3E
330
17
100
AcDbEntity
  8
ROADS
100
AcDbPolyline
 90
5
 70
1
 10
124.1
 20
349.59
 10
173.1
 20
349.59
 10
173.1
 20
6.02
 10
124.1
 20
6.02
 10
124.1
 20
349.59
  0
LWPOLYLINE
  5
3F
330
17
100
AcDbEntity
  8
CENTERLINE
100
AcDbPolyline
 90
2
 70
0
 10
148.6
 20
6.02
 10
148.6
 20
349.59
  0
LWPOLYLINE
  5
40
330
17
100
AcDbEntity
  8
ROADS
100
AcDbPolyline
 90
740
 70
1
 10
223.1
 20
349.89
 10
223.1
 20
349.29
 10
223.09
 20
348.47
 10
223.08
 20
348.17
 10
223.06
 20
347.35
 10
223.05
 20
347.05
 10
223.02
 20
346.23
 10
222.99
 20
345.62
 10
222.94
 20
344.81
 10
222.92
 20
344.53
 10
222.86
 20
343.71
 10
222.84
 20
343.39
 10
222.77
 20
342.58
 10
222.71
 20
342.02
 10
222.62
 20
341.2
 10
222.59
 20
340.87
 10
222.49
 20
340.06
 10
222.45
 20
339.76
 10
222.34
 20
338.95
 10
222.25
 20
338.37
 10
222.12
 20
337.56
 10
222.06
 20
337.22
 10
221.92
 20
336.42
 10
221.88
 20
336.18
 10
221.73
 20
335.37
 10
221.6
 20
334.74
 10
221.43
 20
333.94
 10
221.37
 20
333.65
 10
221.19
 20
332.85
 10
221.11
 20
332.5
 10
220.92
 20
331.71
 10
220.85
 20
331.43
 10
220.65
 20
330.64
 10
220.5
 20
330.08
 10
220.28
 20
329.29
 10
220.2
 20
329.01
 10
219.97
 20
328.22
 10
219.78
 20
327.59
 10
219.53
 20
326.81
 10
219.28
 20
326.03
 10
219.07
 20
325.4
 10
218.8
 20
324.63
 10
218.7
 20
324.37
 10
218.42
 20
323.6
 10
218.19
 20
322.97
 10
217.89
 20
322.21
 10
217.79
 20
321.96
 10
217.48
 20
321.2
 10
217.43
 20
321.09
 10
217.12
 20
320.34
 10
216.79
 20
319.58
 10
216.45
 20
318.83
 10
216.4
 20
318.72
 10
216.06
 20
317.98
 10
215.83
 20
317.49
 10
215.47
 20
316.75
 10
215.41
 20
316.63
 10
215.05
 20
315.9
 10
214.75
 20
315.3
 10
214.37
 20
314.58
 10
214.24
 20
314.35
 10
213.85
 20
313.63
 10
213.53
 20
313.05
 10
213.12
 20
312.34
 10
212.71
 20
311.63
 10
212.37
 20
311.06
 10
211.94
 20
310.36
 10
211.72
 20
310.01
 10
211.28
 20
309.32
 10
211.05
 20
308.97
 10
210.6
 20
308.29
 10
210.46
 20
308.08
 10
210.0
 20
307.4
 10
209.77
 20
307.06
 10
209.3
 20
306.39
 10
209.05
 20
306.05
 10
208.57
 20
305.39
 10
208.32
 20
305.05
 10
207.83
 20
304.4
 10
207.55
 20
304.03
 10
207.04
 20
303.38
 10
206.8
 20
303.08
 10
206.29
 20
302.45
 10
206.14
 20
302.27
 10
205.62
 20
301.64
 10
205.2
 20
301.15
 10
204.66
 20
300.53
 10
204.53
 20
300.38
 10
203.99
 20
299.77
 10
203.56
 20
299.29
 10
203.0
 20
298.69
 10
202.44
 20
298.09
 10
202.0
 20
297.64
 10
201.43
 20
297.06
 10
200.98
 20
296.61
 10
200.39
 20
296.04
 10
199.8
 20
295.47
 10
199.34
 20
295.03
 10
198.74
 20
294.48
 10
198.59
 20
294.34
 10
197.98
 20
293.79
 10
197.49
 20
293.37
 10
196.87
 20
292.84
 10
196.55
 20
292.57
 10
195.92
 20
292.05
 10
195.77
 20
291.93
 10
195.13
 20
291.41
 10
194.76
 20
291.11
 10
194.12
 20
290.61
 10
193.79
 20
290.36
 10
193.14
 20
289.87
 10
192.85
 20
289.65
 10
192.18
 20
289.16
 10
191.93
 20
288.98
 10
191.27
 20
288.51
 10
190.79
 20
288.18
 10
190.11
 20
287.72
 10
189.9
 20
287.58
 10
189.22
 20
287.13
 10
188.52
 20
286.68
 10
187.89
 20
286.3
 10
187.27
 20
285.91
 10
186.56
 20
285.48
 10
185.85
 20
285.07
 10
185.14
 20
284.66
 10
184.56
 20
284.34
 10
183.84
 20
283.95
 10
183.61
 20
283.82
 10
182.89
 20
283.44
 10
182.41
 20
283.2
 10
181.67
 20
282.83
 10
181.3
 20
282.65
 10
180.57
 20
282.3
 10
180.46
 20
282.24
 10
179.72
 20
281.89
 10
179.11
 20
281.61
 10
178.36
 20
281.28
 10
178.0
 20
281.13
 10
177.24
 20
280.81
 10
176.83
 20
280.64
 10
176.08
 20
280.34
 10
175.87
 20
280.26
 10
175.1
 20
279.96
 10
174.58
 20
279.77
 10
173.81
 20
279.49
 10
173.55
 20
279.39
 10
172.78
 20
279.12
 10
172.51
 20
279.03
 10
171.74
 20
278.77
 10
171.02
 20
278.54
 10
170.23
 20
278.3
 10
170.04
 20
278.24
 10
169.26
 20
278.01
 10
168.9
 20
277.91
 10
168.11
 20
277.69
 10
167.55
 20
277.54
 10
166.76
 20
277.34
 10
166.69
 20
277.32
 10
165.89
 20
277.12
 10
165.39
 20
277.0
 10
164.6
 20
276.82
 10
163.96
 20
276.69
 10
163.16
 20
276.53
 10
163.11
 20
276.51
 10
162.3
 20
276.35
 10
161.77
 20
276.26
 10
160.97
 20
276.12
 10
160.34
 20
276.01
 10
158.72
 20
275.77
 10
158.1
 20
275.69
 10
157.28
 20
275.59
 10
156.72
 20
275.53
 10
155.91
 20
275.45
 10
155.1
 20
275.37
 10
154.48
 20
275.32
 10
153.66
 20
275.26
 10
153.06
 20
275.22
 10
152.25
 20
275.18
 10
151.45
 20
275.14
 10
150.84
 20
275.12
 10
150.02
 20
275.1
 10
149.42
 20
275.09
 10
147.78
 20
275.09
 10
147.18
 20
275.1
 10
146.36
 20
275.12
 10
145.75
 20
275.14
 10
144.95
 20
275.18
 10
144.14
 20
275.22
 10
143.54
 20
275.26
 10
142.72
 20
275.32
 10
142.1
 20
275.37
 10
141.29
 20
275.45
 10
140.48
 20
275.53
 10
139.92
 20
275.59
 10
139.1
 20
275.69
 10
138.48
 20
275.77
 10
137.67
 20
275.89
 10
137.63
 20
275.9
 10
136.83
 20
276.02
 10
136.29
 20
276.11
 10
135.48
 20
276.25
 10
134.85
 20
276.37
 10
134.07
 20
276.52
 10
133.29
 20
276.67
 10
132.6
 20
276.82
 10
131.81
 20
277.0
 10
131.31
 20
277.12
 10
130.51
 20
277.32
 10
130.44
 20
277.34
 10
129.65
 20
277.54
 10
129.09
 20
277.69
 10
128.3
 20
277.91
 10
127.94
 20
278.01
 10
127.16
 20
278.24
 10
126.88
 20
278.32
 10
126.1
 20
278.56
 10
125.56
 20
278.74
 10
124.78
 20
279.0
 10
124.42
 20
279.12
 10
123.65
 20
279.39
 10
123.39
 20
279.49
 10
122.62
 20
279.77
 10
122.1
 20
279.96
 10
121.33
 20
280.26
 10
121.12
 20
280.34
 10
120.37
 20
280.64
 10
119.96
 20
280.81
 10
119.2
 20
281.13
 10
118.73
 20
281.33
 10
117.99
 20
281.66
 10
117.61
 20
281.84
 10
116.86
 20
282.19
 10
116.63
 20
282.3
 10
115.9
 20
282.65
 10
115.41
 20
282.89
 10
114.68
 20
283.26
 10
114.45
 20
283.38
 10
113.72
 20
283.76
 10
113.36
 20
283.95
 10
112.64
 20
284.34
 10
112.06
 20
284.66
 10
111.35
 20
285.07
 10
111.22
 20
285.15
 10
110.52
 20
285.56
 10
110.08
 20
285.82
 10
109.38
 20
286.25
 10
109.24
 20
286.34
 10
108.55
 20
286.77
 10
108.13
 20
287.04
 10
107.44
 20
287.49
 10
106.95
 20
287.81
 10
106.28
 20
288.27
 10
106.08
 20
288.41
 10
105.41
 20
288.88
 10
104.88
 20
289.27
 10
104.22
 20
289.76
 10
103.56
 20
290.25
 10
103.08
 20
290.61
 10
102.44
 20
291.11
 10
102.07
 20
291.41
 10
101.43
 20
291.93
 10
101.28
 20
292.05
 10
100.65
 20
292.57
 10
100.33
 20
292.84
 10
99.71
 20
293.37
 10
99.22
 20
293.79
 10
98.61
 20
294.34
 10
98.46
 20
294.48
 10
97.86
 20
295.03
 10
97.4
 20
295.47
 10
96.81
 20
296.04
 10
96.66
 20
296.19
 10
96.08
 20
296.76
 10
95.93
 20
296.91
 10
95.35
 20
297.49
 10
94.76
 20
298.09
 10
94.2
 20
298.69
 10
93.64
 20
299.29
 10
93.21
 20
299.77
 10
92.67
 20
300.38
 10
92.54
 20
300.53
 10
92.0
 20
301.15
 10
91.58
 20
301.64
 10
91.06
 20
302.27
 10
90.91
 20
302.45
 10
90.4
 20
303.08
 10
90.16
 20
303.38
 10
89.65
 20
304.03
 10
89.37
 20
304.4
 10
88.88
 20
305.05
 10
88.63
 20
305.39
 10
88.15
 20
306.05
 10
87.9
 20
306.39
 10
87.43
 20
307.06
 10
87.2
 20
307.4
 10
86.74
 20
308.08
 10
86.6
 20
308.29
 10
86.15
 20
308.97
 10
85.92
 20
309.32
 10
85.48
 20
310.01
 10
85.26
 20
310.36
 10
84.83
 20
311.06
 10
84.49
 20
311.63
 10
84.08
 20
312.34
 10
83.95
 20
312.56
 10
83.55
 20
313.27
 10
83.48
 20
313.4
 10
83.08
 20
314.12
 10
82.83
 20
314.58
 10
82.45
 20
315.3
 10
82.15
 20
315.9
 10
81.79
 20
316.63
 10
81.73
 20
316.75
 10
81.37
 20
317.49
 10
81.14
 20
317.98
 10
80.8
 20
318.72
 10
80.63
 20
319.08
 10
80.3
 20
319.83
 10
80.2
 20
320.09
 10
79.88
 20
320.84
 10
79.72
 20
321.2
 10
79.41
 20
321.96
 10
79.21
 20
322.48
 10
78.92
 20
323.24
 10
78.88
 20
323.33
 10
78.59
 20
324.1
 10
78.4
 20
324.63
 10
78.13
 20
325.4
 10
77.92
 20
326.03
 10
77.67
 20
326.81
 10
77.42
 20
327.59
 10
77.23
 20
328.22
 10
77.0
 20
329.01
 10
76.92
 20
329.29
 10
76.7
 20
330.08
 10
76.55
 20
330.64
 10
76.35
 20
331.43
 10
76.28
 20
331.71
 10
76.09
 20
332.5
 10
76.01
 20
332.85
 10
75.83
 20
333.65
 10
75.77
 20
333.94
 10
75.6
 20
334.74
 10
75.47
 20
335.37
 10
75.32
 20
336.18
 10
75.28
 20
336.42
 10
75.14
 20
337.22
 10
75.08
 20
337.56
 10
74.95
 20
338.37
 10
74.86
 20
338.95
 10
74.75
 20
339.76
 10
74.71
 20
340.06
 10
74.61
 20
340.87
 10
74.58
 20
341.2
 10
74.49
 20
342.02
 10
74.43
 20
342.58
 10
74.36
 20
343.39
 10
74.34
 20
343.71
 10
74.28
 20
344.53
 10
74.26
 20
344.81
 10
74.21
 20
345.62
 10
74.18
 20
346.23
 10
74.15
 20
347.05
 10
74.14
 20
347.35
 10
74.12
 20
348.17
 10
74.11
 20
348.47
 10
74.1
 20
349.29
 10
74.1
 20
349.89
 10
74.11
 20
350.71
 10
74.12
 20
351.01
 10
74.14
 20
351.82
 10
74.15
 20
352.12
 10
74.18
 20
352.94
 10
74.21
 20
353.53
 10
74.26
 20
354.35
 10
74.28
 20
354.67
 10
74.34
 20
355.48
 10
74.36
 20
355.75
 10
74.43
 20
356.57
 10
74.49
 20
357.2
 10
74.58
 20
358.01
 10
74.61
 20
358.3
 10
74.71
 20
359.11
 10
74.75
 20
359.41
 10
74.86
 20
360.22
 10
74.95
 20
360.8
 10
75.08
 20
361.61
 10
75.13
 20
361.9
 10
75.27
 20
362.71
 10
75.33
 20
363.06
 10
75.48
 20
363.86
 10
75.6
 20
364.43
 10
75.77
 20
365.23
 10
75.83
 20
365.52
 10
76.01
 20
366.32
 10
76.07
 20
366.6
 10
76.26
 20
367.4
 10
76.35
 20
367.75
 10
76.55
 20
368.54
 10
76.7
 20
369.1
 10
76.92
 20
369.89
 10
77.02
 20
370.25
 10
77.25
 20
371.03
 10
77.42
 20
371.58
 10
77.67
 20
372.36
 10
77.92
 20
373.14
 10
78.13
 20
373.77
 10
78.4
 20
374.54
 10
78.59
 20
375.07
 10
78.88
 20
375.84
 10
78.92
 20
375.93
 10
79.21
 20
376.69
 10
79.41
 20
377.21
 10
79.72
 20
377.97
 10
79.88
 20
378.33
 10
80.2
 20
379.08
 10
80.3
 20
379.34
 10
80.63
 20
380.09
 10
80.8
 20
380.45
 10
81.14
 20
381.19
 10
81.37
 20
381.68
 10
81.73
 20
382.42
 10
81.79
 20
382.54
 10
82.15
 20
383.27
 10
82.39
 20
383.74
 10
82.77
 20
384.47
 10
83.08
 20
385.06
 10
83.48
 20
385.78
 10
83.55
 20
385.91
 10
83.95
 20
386.62
 10
84.16
 20
386.97
 10
84.57
 20
387.67
 10
84.83
 20
388.11
 10
85.26
 20
388.81
 10
85.48
 20
389.16
 10
85.92
 20
389.85
 10
86.06
 20
390.06
 10
86.51
 20
390.75
 10
86.83
 20
391.24
 10
87.29
 20
391.91
 10
87.43
 20
392.11
 10
87.9
 20
392.78
 10
88.15
 20
393.12
 10
88.63
 20
393.78
 10
88.88
 20
394.12
 10
89.37
 20
394.77
 10
89.65
 20
395.14
 10
90.16
 20
395.79
 10
90.28
 20
395.94
 10
90.79
 20
396.58
 10
91.18
 20
397.05
 10
91.7
 20
397.67
 10
92.0
 20
398.02
 10
92.54
 20
398.64
 10
92.67
 20
398.79
 10
93.21
 20
399.4
 10
93.5
 20
399.73
 10
94.06
 20
400.34
 10
94.34
 20
400.64
 10
94.9
 20
401.23
 10
95.35
 20
401.68
 10
96.51
 20
402.84
 10
96.96
 20
403.29
 10
97.55
 20
403.85
 10
97.86
 20
404.14
 10
98.46
 20
404.69
 10
98.61
 20
404.83
 10
99.22
 20
405.38
 10
99.71
 20
405.8
 10
100.33
 20
406.33
 10
100.48
 20
406.46
 10
101.11
 20
406.99
 10
101.61
 20
407.4
 10
102.25
 20
407.91
 10
102.44
 20
408.06
 10
103.08
 20
408.56
 10
103.37
 20
408.78
 10
104.03
 20
409.28
 10
104.41
 20
409.56
 10
105.07
 20
410.04
 10
105.41
 20
410.29
 10
106.08
 20
410.76
 10
106.28
 20
410.9
 10
106.95
 20
411.36
 10
107.44
 20
411.68
 10
108.13
 20
412.13
 10
108.34
 20
412.27
 10
109.03
 20
412.71
 10
109.59
 20
413.06
 10
110.29
 20
413.48
 10
110.99
 20
413.9
 10
111.57
 20
414.24
 10
112.28
 20
414.64
 10
112.64
 20
414.83
 10
113.36
 20
415.22
 10
113.72
 20
415.41
 10
114.45
 20
415.79
 10
114.68
 20
415.91
 10
115.41
 20
416.28
 10
115.65
 20
416.4
 10
116.38
 20
416.76
 10
117.1
 20
417.1
 10
117.85
 20
417.44
 10
117.99
 20
417.51
 10
118.73
 20
417.84
 10
119.2
 20
418.04
 10
119.96
 20
418.36
 10
120.11
 20
418.42
 10
120.86
 20
418.73
 10
121.58
 20
419.02
 10
122.35
 20
419.31
 10
122.62
 20
419.4
 10
123.39
 20
419.68
 10
123.65
 20
419.78
 10
124.42
 20
420.05
 10
124.78
 20
420.17
 10
125.56
 20
420.43
 10
126.1
 20
420.61
 10
127.66
 20
421.09
 10
128.58
 20
421.35
 10
130.16
 20
421.77
 10
130.79
 20
421.93
 10
131.59
 20
422.12
 10
131.81
 20
422.17
 10
132.6
 20
422.35
 10
133.01
 20
422.44
 10
133.82
 20
422.61
 10
134.33
 20
422.71
 10
135.13
 20
422.86
 10
135.48
 20
422.92
 10
136.29
 20
423.06
 10
136.53
 20
423.1
 10
137.33
 20
423.23
 10
137.96
 20
423.33
 10
138.77
 20
423.44
 10
139.1
 20
423.48
 10
139.92
 20
423.58
 10
140.18
 20
423.61
 10
140.99
 20
423.7
 10
141.59
 20
423.76
 10
142.4
 20
423.83
 10
142.72
 20
423.85
 10
143.54
 20
423.91
 10
143.84
 20
423.93
 10
144.66
 20
423.98
 10
145.24
 20
424.01
 10
146.05
 20
424.04
 10
146.36
 20
424.05
 10
147.18
 20
424.07
 10
147.48
 20
424.08
 10
148.3
 20
424.09
 10
148.9
 20
424.09
 10
149.72
 20
424.08
 10
150.02
 20
424.07
 10
150.84
 20
424.05
 10
151.15
 20
424.04
 10
151.96
 20
424.01
 10
152.54
 20
423.98
 10
153.36
 20
423.93
 10
153.66
 20
423.91
 10
154.48
 20
423.85
 10
154.8
 20
423.83
 10
155.61
 20
423.76
 10
156.21
 20
423.7
 10
157.02
 20
423.61
 10
157.28
 20
423.58
 10
158.1
 20
423.48
 10
158.43
 20
423.44
 10
159.24
 20
423.33
 10
159.82
 20
423.24
 10
160.63
 20
423.11
 10
160.97
 20
423.05
 10
161.77
 20
422.91
 10
162.01
 20
422.87
 10
162.82
 20
422.72
 10
163.45
 20
422.59
 10
164.25
 20
422.42
 10
164.6
 20
422.35
 10
165.39
 20
422.17
 10
165.61
 20
422.12
 10
166.41
 20
421.93
 10
167.04
 20
421.77
 10
167.83
 20
421.56
 10
168.62
 20
421.35
 10
169.54
 20
421.09
 10
170.27
 20
420.86
 10
171.02
 20
420.63
 10
171.74
 20
420.4
 10
172.51
 20
420.14
 10
172.78
 20
420.05
 10
173.55
 20
419.78
 10
173.81
 20
419.68
 10
174.58
 20
419.4
 10
174.85
 20
419.31
 10
175.62
 20
419.02
 10
176.34
 20
418.73
 10
177.09
 20
418.42
 10
177.24
 20
418.36
 10
178.0
 20
418.04
 10
178.36
 20
417.89
 10
179.11
 20
417.56
 10
179.47
 20
417.39
 10
180.21
 20
417.05
 10
180.82
 20
416.76
 10
181.55
 20
416.4
 10
181.67
 20
416.34
 10
182.41
 20
415.97
 10
182.89
 20
415.73
 10
183.61
 20
415.35
 10
183.84
 20
415.22
 10
184.56
 20
414.83
 10
184.92
 20
414.64
 10
185.63
 20
414.24
 10
186.07
 20
413.98
 10
186.78
 20
413.56
 10
187.05
 20
413.4
 10
187.74
 20
412.98
 10
188.04
 20
412.79
 10
188.74
 20
412.35
 10
189.22
 20
412.04
 10
189.9
 20
411.59
 10
190.11
 20
411.45
 10
190.79
 20
410.99
 10
191.27
 20
410.66
 10
191.93
 20
410.19
 10
191.99
 20
410.15
 10
192.66
 20
409.67
 10
193.33
 20
409.17
 10
193.98
 20
408.67
 10
194.12
 20
408.56
 10
194.76
 20
408.06
 10
194.95
 20
407.91
 10
195.59
 20
407.4
 10
196.09
 20
406.99
 10
196.72
 20
406.46
 10
196.87
 20
406.33
 10
197.49
 20
405.8
 10
197.98
 20
405.38
 10
198.59
 20
404.83
 10
198.74
 20
404.69
 10
199.34
 20
404.14
 10
199.65
 20
403.85
 10
200.24
 20
403.29
 10
200.55
 20
402.99
 10
201.14
 20
402.41
 10
201.43
 20
402.11
 10
202.0
 20
401.53
 10
202.3
 20
401.23
 10
202.86
 20
400.64
 10
203.14
 20
400.34
 10
203.7
 20
399.73
 10
203.99
 20
399.4
 10
204.53
 20
398.79
 10
204.66
 20
398.64
 10
205.2
 20
398.02
 10
205.5
 20
397.67
 10
206.02
 20
397.05
 10
206.41
 20
396.58
 10
206.92
 20
395.94
 10
207.04
 20
395.79
 10
207.55
 20
395.14
 10
207.83
 20
394.77
 10
208.32
 20
394.12
 10
208.57
 20
393.78
 10
209.05
 20
393.12
 10
209.3
 20
392.78
 10
209.77
 20
392.11
 10
209.91
 20
391.91
 10
210.37
 20
391.24
 10
210.69
 20
390.75
 10
211.14
 20
390.06
 10
211.28
 20
389.85
 10
211.72
 20
389.16
 10
211.94
 20
388.81
 10
212.37
 20
388.11
 10
212.63
 20
387.67
 10
213.04
 20
386.97
 10
213.12
 20
386.84
 10
213.53
 20
386.13
 10
213.85
 20
385.55
 10
214.24
 20
384.83
 10
214.43
 20
384.47
 10
214.81
 20
383.74
 10
215.05
 20
383.27
 10
215.41
 20
382.54
 10
215.47
 20
382.42
 10
215.83
 20
381.68
 10
216.06
 20
381.19
 10
216.4
 20
380.45
 10
216.45
 20
380.34
 10
216.79
 20
379.59
 10
217.12
 20
378.83
 10
217.43
 20
378.08
 10
217.48
 20
377.97
 10
217.79
 20
377.21
 10
217.89
 20
376.96
 10
218.19
 20
376.2
 10
218.42
 20
375.57
 10
218.7
 20
374.8
 10
218.8
 20
374.54
 10
219.07
 20
373.77
 10
219.28
 20
373.14
 10
219.53
 20
372.36
 10
219.78
 20
371.58
 10
219.95
 20
371.03
 10
220.18
 20
370.25
 10
220.28
 20
369.89
 10
220.5
 20
369.1
 10
220.65
 20
368.54
 10
220.85
 20
367.75
 10
220.94
 20
367.4
 10
221.13
 20
366.6
 10
221.19
 20
366.32
 10
221.37
 20
365.52
 10
221.43
 20
365.23
 10
221.6
 20
364.43
 10
221.72
 20
363.86
 10
221.87
 20
363.06
 10
221.93
 20
362.71
 10
222.07
 20
361.9
 10
222.12
 20
361.61
 10
222.25
 20
360.8
 10
222.34
 20
360.22
 10
222.45
 20
359.41
 10
222.49
 20
359.11
 10
222.59
 20
358.3
 10
222.62
 20
358.01
 10
222.71
 20
357.2
 10
222.77
 20
356.57
 10
222.84
 20
355.75
 10
222.86
 20
355.48
 10
222.92
 20
354.67
 10
222.94
 20
354.35
 10
222.99
 20
353.53
 10
223.02
 20
352.94
 10
223.05
 20
352.12
 10
223.06
 20
351.82
 10
223.08
 20
351.01
 10
223.09
 20
350.71
 10
223.1
 20
349.89
  0
LWPOLYLINE
  5
41
330
17
100
AcDbEntity
  8
CENTERLINE
100
AcDbPolyline
 90
385
 70
0
 10
198.6
 20
349.59
 10
198.59
 20
348.77
 10
198.57
 20
347.95
 10
198.54
 20
347.13
 10
198.49
 20
346.32
 10
198.43
 20
345.5
 10
198.36
 20
344.69
 10
198.27
 20
343.87
 10
198.17
 20
343.06
 10
198.06
 20
342.25
 10
197.93
 20
341.44
 10
197.79
 20
340.64
 10
197.64
 20
339.83
 10
197.47
 20
339.03
 10
197.29
 20
338.23
 10
197.1
 20
337.44
 10
196.9
 20
336.65
 10
196.68
 20
335.86
 10
196.45
 20
335.07
 10
196.2
 20
334.29
 10
195.95
 20
333.51
 10
195.68
 20
332.74
 10
195.4
 20
331.97
 10
195.1
 20
331.21
 10
194.79
 20
330.45
 10
194.48
 20
329.7
 10
194.14
 20
328.95
 10
193.8
 20
328.21
 10
193.44
 20
327.47
 10
193.08
 20
326.74
 10
192.7
 20
326.02
 10
192.31
 20
325.3
 10
191.9
 20
324.59
 10
191.49
 20
323.88
 10
191.06
 20
323.18
 10
190.62
 20
322.49
 10
190.17
 20
321.81
 10
189.71
 20
321.13
 10
189.24
 20
320.46
 10
188.76
 20
319.8
 10
188.27
 20
319.15
 10
187.76
 20
318.5
 10
187.25
 20
317.87
 10
186.73
 20
317.24
 10
186.19
 20
316.62
 10
185.65
 20
316.01
 10
185.09
 20
315.41
 10
184.53
 20
314.81
 10
183.96
 20
314.23
 10
183.37
 20
313.66
 10
182.78
 20
313.09
 10
182.18
 20
312.54
 10
181.57
 20
311.99
 10
180.95
 20
311.46
 10
180.32
 20
310.94
 10
179.68
 20
310.42
 10
179.04
 20
309.92
 10
178.39
 20
309.43
 10
177.72
 20
308.94
 10
177.06
 20
308.47
 10
176.38
 20
308.01
 10
175.7
 20
307.56
 10
175.0
 20
307.13
 10
174.31
 20
306.7
 10
173.6
 20
306.29
 10
172.89
 20
305.88
 10
172.17
 20
305.49
 10
171.45
 20
305.11
 10
170.71
 20
304.74
 10
169.98
 20
304.39
 10
169.24
 20
304.04
 10
168.49
 20
303.71
 10
167.73
 20
303.39
 10
166.98
 20
303.09
 10
166.21
 20
302.79
 10
165.44
 20
302.51
 10
164.67
 20
302.24
 10
163.9
 20
301.98
 10
163.11
 20
301.74
 10
162.33
 20
301.51
 10
161.54
 20
301.29
 10
160.75
 20
301.09
 10
159.95
 20
300.89
 10
159.16
 20
300.71
 10
158.36
 20
300.55
 10
157.55
 20
300.39
 10
156.75
 20
300.25
 10
155.94
 20
300.13
 10
155.13
 20
300.01
 10
154.31
 20
299.91
 10
153.5
 20
299.83
 10
152.69
 20
299.75
 10
151.87
 20
299.69
 10
151.05
 20
299.65
 10
150.24
 20
299.61
 10
149.42
 20
299.59
 10
148.6
 20
299.59
 10
147.78
 20
299.59
 10
146.96
 20
299.61
 10
146.15
 20
299.65
 10
145.33
 20
299.69
 10
144.51
 20
299.75
 10
143.7
 20
299.83
 10
142.89
 20
299.91
 10
142.07
 20
300.01
 10
141.26
 20
300.13
 10
140.46
 20
300.25
 10
139.65
 20
300.39
 10
138.85
 20
300.55
 10
138.04
 20
300.71
 10
137.25
 20
300.89
 10
136.45
 20
301.09
 10
135.66
 20
301.29
 10
134.87
 20
301.51
 10
134.09
 20
301.74
 10
133.31
 20
301.98
 10
132.53
 20
302.24
 10
131.76
 20
302.51
 10
130.99
 20
302.79
 10
130.22
 20
303.09
 10
129.47
 20
303.39
 10
128.71
 20
303.71
 10
127.97
 20
304.04
 10
127.22
 20
304.39
 10
126.49
 20
304.74
 10
125.76
 20
305.11
 10
125.03
 20
305.49
 10
124.31
 20
305.88
 10
123.6
 20
306.29
 10
122.9
 20
306.7
 10
122.2
 20
307.13
 10
121.51
 20
307.56
 10
120.82
 20
308.01
 10
120.15
 20
308.47
 10
119.48
 20
308.94
 10
118.82
 20
309.43
 10
118.16
 20
309.92
 10
117.52
 20
310.42
 10
116.88
 20
310.94
 10
116.25
 20
311.46
 10
115.63
 20
311.99
 10
115.02
 20
312.54
 10
114.42
 20
313.09
 10
113.83
 20
313.66
 10
113.25
 20
314.23
 10
112.67
 20
314.81
 10
112.11
 20
315.41
 10
111.55
 20
316.01
 10
111.01
 20
316.62
 10
110.47
 20
317.24
 10
109.95
 20
317.87
 10
109.44
 20
318.5
 10
108.93
 20
319.15
 10
108.44
 20
319.8
 10
107.96
 20
320.46
 10
107.49
 20
321.13
 10
107.03
 20
321.81
 10
106.58
 20
322.49
 10
106.14
 20
323.18
 10
105.71
 20
323.88
 10
105.3
 20
324.59
 10
104.9
 20
325.3
 10
104.5
 20
326.02
 10
104.12
 20
326.74
 10
103.76
 20
327.47
 10
103.4
 20
328.21
 10
103.06
 20
328.95
 10
102.73
 20
329.7
 10
102.41
 20
330.45
 10
102.1
 20
331.21
 10
101.81
 20
331.97
 10
101.52
 20
332.74
 10
101.25
 20
333.51
 10
101.0
 20
334.29
 10
100.75
 20
335.07
 10
100.52
 20
335.86
 10
100.3
 20
336.65
 10
100.1
 20
337.44
 10
99.91
 20
338.23
 10
99.73
 20
339.03
 10
99.56
 20
339.83
 10
99.41
 20
340.64
 10
99.27
 20
341.44
 10
99.14
 20
342.25
 10
99.03
 20
343.06
 10
98.93
 20
343.87
 10
98.84
 20
344.69
 10
98.77
 20
345.5
 10
98.71
 20
346.32
 10
98.66
 20
347.13
 10
98.63
 20
347.95
 10
98.61
 20
348.77
 10
98.6
 20
349.59
 10
98.61
 20
350.41
 10
98.63
 20
351.22
 10
98.66
 20
352.04
 10
98.71
 20
352.86
 10
98.77
 20
353.67
 10
98.84
 20
354.49
 10
98.93
 20
355.3
 10
99.03
 20
356.11
 10
99.14
 20
356.92
 10
99.27
 20
357.73
 10
99.41
 20
358.54
 10
99.56
 20
359.34
 10
99.73
 20
360.14
 10
99.91
 20
360.94
 10
100.1
 20
361.74
 10
100.3
 20
362.53
 10
100.52
 20
363.32
 10
100.75
 20
364.1
 10
101.0
 20
364.88
 10
101.25
 20
365.66
 10
101.52
 20
366.43
 10
101.81
 20
367.2
 10
102.1
 20
367.96
 10
102.41
 20
368.72
 10
102.73
 20
369.47
 10
103.06
 20
370.22
 10
103.4
 20
370.96
 10
103.76
 20
371.7
 10
104.12
 20
372.43
 10
104.5
 20
373.16
 10
104.9
 20
373.88
 10
105.3
 20
374.59
 10
105.71
 20
375.29
 10
106.14
 20
375.99
 10
106.58
 20
376.68
 10
107.03
 20
377.37
 10
107.49
 20
378.04
 10
107.96
 20
378.71
 10
108.44
 20
379.37
 10
108.93
 20
380.02
 10
109.44
 20
380.67
 10
109.95
 20
381.31
 10
110.47
 20
381.93
 10
111.01
 20
382.55
 10
111.55
 20
383.16
 10
112.11
 20
383.77
 10
112.67
 20
384.36
 10
113.25
 20
384.94
 10
113.83
 20
385.52
 10
114.42
 20
386.08
 10
115.02
 20
386.63
 10
115.63
 20
387.18
 10
116.25
 20
387.71
 10
116.88
 20
388.24
 10
117.52
 20
388.75
 10
118.16
 20
389.25
 10
118.82
 20
389.75
 10
119.48
 20
390.23
 10
120.15
 20
390.7
 10
120.82
 20
391.16
 10
121.51
 20
391.61
 10
122.2
 20
392.05
 10
122.9
 20
392.47
 10
123.6
 20
392.89
 10
124.31
 20
393.29
 10
125.03
 20
393.68
 10
125.76
 20
394.06
 10
126.49
 20
394.43
 10
127.22
 20
394.79
 10
127.97
 20
395.13
 10
128.71
 20
395.46
 10
129.47
 20
395.78
 10
130.22
 20
396.09
 10
130.99
 20
396.38
 10
131.76
 20
396.66
 10
132.53
 20
396.93
 10
133.31
 20
397.19
 10
134.09
 20
397.43
 10
134.87
 20
397.67
 10
135.66
 20
397.88
 10
136.45
 20
398.09
 10
137.25
 20
398.28
 10
138.04
 20
398.46
 10
138.85
 20
398.63
 10
139.65
 20
398.78
 10
140.46
 20
398.92
 10
141.26
 20
399.05
 10
142.07
 20
399.16
 10
142.89
 20
399.26
 10
143.7
 20
399.35
 10
144.51
 20
399.42
 10
145.33
 20
399.48
 10
146.15
 20
399.53
 10
146.96
 20
399.56
 10
147.78
 20
399.58
 10
148.6
 20
399.59
 10
149.42
 20
399.58
 10
150.24
 20
399.56
 10
151.05
 20
399.53
 10
151.87
 20
399.48
 10
152.69
 20
399.42
 10
153.5
 20
399.35
 10
154.31
 20
399.26
 10
155.13
 20
399.16
 10
155.94
 20
399.05
 10
156.75
 20
398.92
 10
157.55
 20
398.78
 10
158.36
 20
398.63
 10
159.16
 20
398.46
 10
159.95
 20
398.28
 10
160.75
 20
398.09
 10
161.54
 20
397.88
 10
162.33
 20
397.67
 10
163.11
 20
397.43
 10
163.9
 20
397.19
 10
164.67
 20
396.93
 10
165.44
 20
396.66
 10
166.21
 20
396.38
 10
166.98
 20
396.09
 10
167.73
 20
395.78
 10
168.49
 20
395.46
 10
169.24
 20
395.13
 10
169.98
 20
394.79
 10
170.71
 20
394.43
 10
171.45
 20
394.06
 10
172.17
 20
393.68
 10
172.89
 20
393.29
 10
173.6
 20
392.89
 10
174.31
 20
392.47
 10
175.0
 20
392.05
 10
175.7
 20
391.61
 10
176.38
 20
391.16
 10
177.06
 20
390.7
 10
177.72
 20
390.23
 10
178.39
 20
389.75
 10
179.04
 20
389.25
 10
179.68
 20
388.75
 10
180.32
 20
388.24
 10
180.95
 20
387.71
 10
181.57
 20
387.18
 10
182.18
 20
386.63
 10
182.78
 20
386.08
 10
183.37
 20
385.52
 10
183.96
 20
384.94
 10
184.53
 20
384.36
 10
185.09
 20
383.77
 10
185.65
 20
383.16
 10
186.19
 20
382.55
 10
186.73
 20
381.93
 10
187.25
 20
381.31
 10
187.76
 20
380.67
 10
188.27
 20
380.02
 10
188.76
 20
379.37
 10
189.24
 20
378.71
 10
189.71
 20
378.04
 10
190.17
 20
377.37
 10
190.62
 20
376.68
 10
191.06
 20
375.99
 10
191.49
 20
375.29
 10
191.9
 20
374.59
 10
192.31
 20
373.88
 10
192.7
 20
373.16
 10
193.08
 20
372.43
 10
193.44
 20
371.7
 10
193.8
 20
370.96
 10
194.14
 20
370.22
 10
194.48
 20
369.47
 10
194.79
 20
368.72
 10
195.1
 20
367.96
 10
195.4
 20
367.2
 10
195.68
 20
366.43
 10
195.95
 20
365.66
 10
196.2
 20
364.88
 10
196.45
 20
364.1
 10
196.68
 20
363.32
 10
196.9
 20
362.53
 10
197.1
 20
361.74
 10
197.29
 20
360.94
 10
197.47
 20
360.14
 10
197.64
 20
359.34
 10
197.79
 20
358.54
 10
197.93
 20
357.73
 10
198.06
 20
356.92
 10
198.17
 20
356.11
 10
198.27
 20
355.3
 10
198.36
 20
354.49
 10
198.43
 20
353.67
 10
198.49
 20
352.86
 10
198.54
 20
352.04
 10
198.57
 20
351.22
 10
198.59
 20
350.41
 10
198.6
 20
349.59
  0
ENDSEC
  0
SECTION
  2
OBJECTS
  0
DICTIONARY
  5
A
330
0
100
AcDbDictionary
281
1
  3
ACAD_COLOR
350
B
  3
ACAD_GROUP
350
C
  3
ACAD_LAYOUT
350
D
  3
ACAD_MATERIAL
350
E
  3
ACAD_MLEADERSTYLE
350
F
  3
ACAD_MLINESTYLE
350
10
  3
ACAD_PLOTSETTINGS
350
11
  3
ACAD_PLOTSTYLENAME
350
12
  3
ACAD_SCALELIST
350
14
  3
ACAD_TABLESTYLE
350
15
  3
ACAD_VISUALSTYLE
350
16
  3
EZDXF_META
350
2D
  0
DICTIONARY
  5
B
330
A
100
AcDbDictionary
281
1
  0
DICTIONARY
  5
C
330
A
100
AcDbDictionary
281
1
  0
DICTIONARY
  5
D
330
A
100
AcDbDictionary
281
1
  3
Model
350
1A
  3
Layout1
350
1E
  0
DICTIONARY
  5
E
330
A
100
AcDbDictionary
281
1
  3
ByBlock
350
1F
  3
ByLayer
350
20
  3
Global
350
21
  0
DICTIONARY
  5
F
330
A
100
AcDbDictionary
281
1
  3
Standard
350
2C
  0
DICTIONARY
  5
10
330
A
100
AcDbDictionary
281
1
  3
Standard
350
22
  0
DICTIONARY
  5
11
330
A
100
AcDbDictionary
281
1
  0
ACDBDICTIONARYWDFLT
  5
12
330
A
100
AcDbDictionary
281
1
  3
Normal
350
13
100
AcDbDictionaryWithDefault
340
13
  0
ACDBPLACEHOLDER
  5
13
330
12
  0
DICTIONARY
  5
14
330
A
100
AcDbDictionary
281
1
  0
DICTIONARY
  5
15
330
A
100
AcDbDictionary
281
1
  0
DICTIONARY
  5
16
330
A
100
AcDbDictionary
281
1
  0
LAYOUT
  5
1A
330
D
100
AcDbPlotSettings
  1

  4
A3
  6

 40
7.5
 41
20.0
 42
7.5
 43
20.0
 44
420.0
 45
297.0
 46
0.0
 47
0.0
 48
0.0
 49
0.0
140
0.0
141
0.0
142
1.0
143
1.0
 70
1024
 72
1
 73
0
 74
5
  7

 75
16
 76
0
 77
2
 78
300
147
1.0
148
0.0
149
0.0
100
AcDbLayout
  1
Model
 70
1
 71
0
 10
0.0
 20
0.0
 11
420.0
 21
297.0
 12
0.0
 22
0.0
 32
0.0
 14
1e+20
 24
1e+20
 34
1e+20
 15
-1e+20
 25
-1e+20
 35
-1e+20
146
0.0
 13
0.0
 23
0.0
 33
0.0
 16
1.0
 26
0.0
 36
0.0
 17
0.0
 27
1.0
 37
0.0
 76
1
330
17
  0
LAYOUT
  5
1E
330
D
100
AcDbPlotSettings
  1

  4
A3
  6

 40
7.5
 41
20.0
 42
7.5
 43
20.0
 44
420.0
 45
297.0
 46
0.0
 47
0.0
 48
0.0
 49
0.0
140
0.0
141
0.0
142
1.0
143
1.0
 70
0
 72
1
 73
0
 74
5
  7

 75
16
 76
0
 77
2
 78
300
147
1.0
148
0.0
149
0.0
100
AcDbLayout
  1
Layout1
 70
1
 71
1
 10
0.0
 20
0.0
 11
420.0
 21
297.0
 12
0.0
 22
0.0
 32
0.0
 14
1e+20
 24
1e+20
 34
1e+20
 15
-1e+20
 25
-1e+20
 35
-1e+20
146
0.0
 13
0.0
 23
0.0
 33
0.0
 16
1.0
 26
0.0
 36
0.0
 17
0.0
 27
1.0
 37
0.0
 76
1
330
1B
  0
MATERIAL
  5
1F
102
{ACAD_REACTORS
330
E
102
}
330
E
100
AcDbMaterial
  1
ByBlock
  2

 70
0
 40
1.0
 71
1
 41
1.0
 91
-1023410177
 42
1.0
 72
1
  3

 73
1
 74
1
 75
1
 44
0.5
 73
0
 45
1.0
 46
1.0
 77
1
  4

 78
1
 79
1
170
1
 48
1.0
171
1
  6

172
1
173
1
174
1
140
1.0
141
1.0
175
1
  7

176
1
177
1
178
1
143
1.0
179
1
  8

270
1
271
1
272
1
145
1.0
146
1.0
273
1
  9

274
1
275
1
276
1
 42
1.0
 72
1
  3

 73
1
 74
1
 75
1
 94
63
  0
MATERIAL
  5
20
102
{ACAD_REACTORS
330
E
102
}
330
E
100
AcDbMaterial
  1
ByLayer
  2

 70
0
 40
1.0
 71
1
 41
1.0
 91
-1023410177
 42
1.0
 72
1
  3

 73
1
 74
1
 75
1
 44
0.5
 73
0
 45
1.0
 46
1.0
 77
1
  4

 78
1
 79
1
170
1
 48
1.0
171
1
  6

172
1
173
1
174
1
140
1.0
141
1.0
175
1
  7

176
1
177
1
178
1
143
1.0
179
1
  8

270
1
271
1
272
1
145
1.0
146
1.0
273
1
  9

274
1
275
1
276
1
 42
1.0
 72
1
  3

 73
1
 74
1
 75
1
 94
63
  0
MATERIAL
  5
21
102
{ACAD_REACTORS
330
E
102
}
330
E
100
AcDbMaterial
  1
Global
  2

 70
0
 40
1.0
 71
1
 41
1.0
 91
-1023410177
 42
1.0
 72
1
  3

 73
1
 74
1
 75
1
 44
0.5
 73
0
 45
1.0
 46
1.0
 77
1
  4

 78
1
 79
1
170
1
 48
1.0
171
1
  6

172
1
173
1
174
1
140
1.0
141
1.0
175
1
  7

176
1
177
1
178
1
143
1.0
179
1
  8

270
1
271
1
272
1
145
1.0
146
1.0
273
1
  9

274
1
275
1
276
1
 42
1.0
 72
1
  3

 73
1
 74
1
 75
1
 94
63
  0
MLINESTYLE
  5
22
102
{ACAD_REACTORS
330
10
102
}
330
10
100
AcDbMlineStyle
  2
Standard
 70
0
  3

 62
256
 51
90.0
 52
90.0
 71
2
 49
0.5
 62
256
  6
BYLAYER
 49
-0.5
 62
256
  6
BYLAYER
  0
MLEADERSTYLE
  5
2C
102
{ACAD_REACTORS
330
F
102
}
330
F
100
AcDbMLeaderStyle
179
2
170
2
171
1
172
0
 90
2
 40
0.0
 41
0.0
173
1
 91
-1056964608
 92
-2
290
1
 42
2.0
291
1
 43
8.0
  3
Standard
 44
4.0
300

342
29
174
1
175
1
176
0
178
1
 93
-1056964608
 45
4.0
292
0
297
0
 46
4.0
 94
-1056964608
 47
1.0
 49
1.0
140
1.0
294
1
141
0.0
177
0
142
1.0
295
0
296
0
143
3.75
271
0
272
9
273
9
  0
DICTIONARY
  5
2D
330
A
100
AcDbDictionary
280
1
281
1
  3
CREATED_BY_EZDXF
350
2E
  3
WRITTEN_BY_EZDXF
350
44
  0
DICTIONARYVAR
  5
2E
330
2D
100
DictionaryVariables
280
0
  1
0.0 @ 2000-01-01T00:00:00.000000+00:00
  0
DICTIONARYVAR
  5
44
330
2D
100
DictionaryVariables
280
0
  1
0.0 @ 2000-01-01T00:00:00.000000+00:00
  0
ENDSEC
  0
EOF
